<mxfile host="app.diagrams.net" agent="Mozilla/5.0 (Windows NT 10.0; Win64; x64) AppleWebKit/537.36 (KHTML, like Gecko) Chrome/131.0.0.0 Safari/537.36" version="24.8.6">
  <diagram name="페이지-1" id="NY58RX8QYUavym7g1tLp">
    <mxGraphModel dx="2022" dy="615" grid="1" gridSize="10" guides="1" tooltips="1" connect="1" arrows="1" fold="1" page="1" pageScale="1" pageWidth="827" pageHeight="1169" math="0" shadow="0">
      <root>
        <mxCell id="0" />
        <mxCell id="1" parent="0" />
        <mxCell id="OR4K_Lvooa0aKepmsGJe-48" style="edgeStyle=orthogonalEdgeStyle;rounded=0;orthogonalLoop=1;jettySize=auto;html=1;exitX=0;exitY=1;exitDx=0;exitDy=0;entryX=0;entryY=0;entryDx=0;entryDy=0;" edge="1" parent="1" source="OR4K_Lvooa0aKepmsGJe-1" target="OR4K_Lvooa0aKepmsGJe-27">
          <mxGeometry relative="1" as="geometry" />
        </mxCell>
        <mxCell id="OR4K_Lvooa0aKepmsGJe-1" value="&lt;font style=&quot;font-size: 12px;&quot;&gt;STM32F746 Boot&lt;/font&gt;" style="rounded=0;whiteSpace=wrap;html=1;fontSize=12;verticalAlign=middle;fontFamily=Noto sans;fontSource=https%3A%2F%2Ffonts.googleapis.com%2Fcss%3Ffamily%3DNoto%2Bsans;" vertex="1" parent="1">
          <mxGeometry x="30" y="60" width="120" height="30" as="geometry" />
        </mxCell>
        <mxCell id="OR4K_Lvooa0aKepmsGJe-30" style="edgeStyle=orthogonalEdgeStyle;rounded=0;orthogonalLoop=1;jettySize=auto;html=1;exitX=0;exitY=1;exitDx=0;exitDy=0;fontFamily=Noto sans;fontSource=https%3A%2F%2Ffonts.googleapis.com%2Fcss%3Ffamily%3DNoto%2Bsans;entryX=0.5;entryY=0;entryDx=0;entryDy=0;" edge="1" parent="1" source="OR4K_Lvooa0aKepmsGJe-26" target="OR4K_Lvooa0aKepmsGJe-33">
          <mxGeometry relative="1" as="geometry">
            <mxPoint x="40.344827586206975" y="310" as="targetPoint" />
          </mxGeometry>
        </mxCell>
        <mxCell id="OR4K_Lvooa0aKepmsGJe-31" style="edgeStyle=orthogonalEdgeStyle;rounded=0;orthogonalLoop=1;jettySize=auto;html=1;exitX=1;exitY=1;exitDx=0;exitDy=0;fontFamily=Noto sans;fontSource=https%3A%2F%2Ffonts.googleapis.com%2Fcss%3Ffamily%3DNoto%2Bsans;entryX=0.5;entryY=0;entryDx=0;entryDy=0;" edge="1" parent="1" source="OR4K_Lvooa0aKepmsGJe-26" target="OR4K_Lvooa0aKepmsGJe-32">
          <mxGeometry relative="1" as="geometry">
            <mxPoint x="170" y="320" as="targetPoint" />
          </mxGeometry>
        </mxCell>
        <mxCell id="OR4K_Lvooa0aKepmsGJe-26" value="FreeRTOS 실행" style="rounded=0;whiteSpace=wrap;html=1;fontFamily=Noto sans;fontSource=https%3A%2F%2Ffonts.googleapis.com%2Fcss%3Ffamily%3DNoto%2Bsans;" vertex="1" parent="1">
          <mxGeometry x="30" y="210" width="160" height="30" as="geometry" />
        </mxCell>
        <mxCell id="OR4K_Lvooa0aKepmsGJe-49" style="edgeStyle=orthogonalEdgeStyle;rounded=0;orthogonalLoop=1;jettySize=auto;html=1;exitX=0;exitY=1;exitDx=0;exitDy=0;entryX=0;entryY=0;entryDx=0;entryDy=0;" edge="1" parent="1" source="OR4K_Lvooa0aKepmsGJe-27" target="OR4K_Lvooa0aKepmsGJe-26">
          <mxGeometry relative="1" as="geometry" />
        </mxCell>
        <mxCell id="OR4K_Lvooa0aKepmsGJe-27" value="System 초기화" style="rounded=0;whiteSpace=wrap;html=1;fontFamily=Noto sans;fontSource=https%3A%2F%2Ffonts.googleapis.com%2Fcss%3Ffamily%3DNoto%2Bsans;" vertex="1" parent="1">
          <mxGeometry x="30" y="135" width="90" height="30" as="geometry" />
        </mxCell>
        <mxCell id="OR4K_Lvooa0aKepmsGJe-32" value="GUI_Task 실행" style="rounded=0;whiteSpace=wrap;html=1;fontFamily=Noto sans;fontSource=https%3A%2F%2Ffonts.googleapis.com%2Fcss%3Ffamily%3DNoto%2Bsans;" vertex="1" parent="1">
          <mxGeometry x="145" y="326" width="90" height="34" as="geometry" />
        </mxCell>
        <mxCell id="OR4K_Lvooa0aKepmsGJe-40" style="edgeStyle=orthogonalEdgeStyle;rounded=0;orthogonalLoop=1;jettySize=auto;html=1;exitX=0;exitY=1;exitDx=0;exitDy=0;entryX=0.5;entryY=0;entryDx=0;entryDy=0;" edge="1" parent="1" source="OR4K_Lvooa0aKepmsGJe-33" target="OR4K_Lvooa0aKepmsGJe-38">
          <mxGeometry relative="1" as="geometry" />
        </mxCell>
        <mxCell id="OR4K_Lvooa0aKepmsGJe-33" value="Default Task 실행" style="whiteSpace=wrap;html=1;fontFamily=Noto sans;fontSource=https%3A%2F%2Ffonts.googleapis.com%2Fcss%3Ffamily%3DNoto%2Bsans;" vertex="1" parent="1">
          <mxGeometry x="-22" y="326" width="105" height="34" as="geometry" />
        </mxCell>
        <mxCell id="OR4K_Lvooa0aKepmsGJe-35" value="" style="endArrow=classic;html=1;rounded=0;exitX=1;exitY=0.5;exitDx=0;exitDy=0;entryX=0;entryY=0.5;entryDx=0;entryDy=0;" edge="1" parent="1" source="OR4K_Lvooa0aKepmsGJe-27" target="OR4K_Lvooa0aKepmsGJe-36">
          <mxGeometry width="50" height="50" relative="1" as="geometry">
            <mxPoint x="120" y="150" as="sourcePoint" />
            <mxPoint x="190" y="150" as="targetPoint" />
          </mxGeometry>
        </mxCell>
        <mxCell id="OR4K_Lvooa0aKepmsGJe-36" value="SDRAM, QSPI 초기화" style="rounded=0;whiteSpace=wrap;html=1;fontFamily=Noto sans;fontSource=https%3A%2F%2Ffonts.googleapis.com%2Fcss%3Ffamily%3DNoto%2Bsans;fontSize=12;" vertex="1" parent="1">
          <mxGeometry x="180" y="135" width="120" height="30" as="geometry" />
        </mxCell>
        <mxCell id="OR4K_Lvooa0aKepmsGJe-42" style="edgeStyle=orthogonalEdgeStyle;rounded=0;orthogonalLoop=1;jettySize=auto;html=1;exitX=0.5;exitY=1;exitDx=0;exitDy=0;entryX=0.5;entryY=0;entryDx=0;entryDy=0;" edge="1" parent="1" source="OR4K_Lvooa0aKepmsGJe-38" target="OR4K_Lvooa0aKepmsGJe-41">
          <mxGeometry relative="1" as="geometry" />
        </mxCell>
        <mxCell id="OR4K_Lvooa0aKepmsGJe-38" value="LWIP Init" style="whiteSpace=wrap;html=1;fontFamily=Noto sans;fontSource=https%3A%2F%2Ffonts.googleapis.com%2Fcss%3Ffamily%3DNoto%2Bsans;" vertex="1" parent="1">
          <mxGeometry x="-54.5" y="400" width="65.5" height="34" as="geometry" />
        </mxCell>
        <mxCell id="OR4K_Lvooa0aKepmsGJe-41" value="DHCP를 통해 IP Address 할당" style="rounded=0;whiteSpace=wrap;html=1;fontFamily=Noto sans;fontSource=https%3A%2F%2Ffonts.googleapis.com%2Fcss%3Ffamily%3DNoto%2Bsans;" vertex="1" parent="1">
          <mxGeometry x="-106.75" y="480" width="170" height="30" as="geometry" />
        </mxCell>
        <mxCell id="OR4K_Lvooa0aKepmsGJe-46" value="TouchGFX로 구성한 GUI 실행" style="text;html=1;align=center;verticalAlign=middle;whiteSpace=wrap;rounded=0;fontFamily=Noto sans;fontSource=https%3A%2F%2Ffonts.googleapis.com%2Fcss%3Ffamily%3DNoto%2Bsans;fontSize=10;" vertex="1" parent="1">
          <mxGeometry x="200" y="260" width="150" height="30" as="geometry" />
        </mxCell>
        <mxCell id="OR4K_Lvooa0aKepmsGJe-47" value="" style="endArrow=classic;html=1;rounded=0;strokeColor=default;dashed=1;entryX=0.5;entryY=1;entryDx=0;entryDy=0;" edge="1" parent="1" target="OR4K_Lvooa0aKepmsGJe-46">
          <mxGeometry width="50" height="50" relative="1" as="geometry">
            <mxPoint x="215" y="326" as="sourcePoint" />
            <mxPoint x="265" y="276" as="targetPoint" />
          </mxGeometry>
        </mxCell>
        <mxCell id="OR4K_Lvooa0aKepmsGJe-57" value="" style="endArrow=classic;html=1;rounded=0;exitX=1;exitY=1;exitDx=0;exitDy=0;entryX=0;entryY=0.5;entryDx=0;entryDy=0;" edge="1" parent="1" source="OR4K_Lvooa0aKepmsGJe-32" target="OR4K_Lvooa0aKepmsGJe-58">
          <mxGeometry width="50" height="50" relative="1" as="geometry">
            <mxPoint x="300" y="480" as="sourcePoint" />
            <mxPoint x="380" y="360" as="targetPoint" />
          </mxGeometry>
        </mxCell>
        <mxCell id="OR4K_Lvooa0aKepmsGJe-90" style="edgeStyle=orthogonalEdgeStyle;rounded=0;orthogonalLoop=1;jettySize=auto;html=1;exitX=0.5;exitY=0;exitDx=0;exitDy=0;entryX=0.25;entryY=0;entryDx=0;entryDy=0;" edge="1" parent="1" source="OR4K_Lvooa0aKepmsGJe-58" target="OR4K_Lvooa0aKepmsGJe-67">
          <mxGeometry relative="1" as="geometry" />
        </mxCell>
        <mxCell id="OR4K_Lvooa0aKepmsGJe-58" value="Intro" style="rounded=0;whiteSpace=wrap;html=1;fontFamily=Noto sans;fontSource=https%3A%2F%2Ffonts.googleapis.com%2Fcss%3Ffamily%3DNoto%2Bsans;" vertex="1" parent="1">
          <mxGeometry x="338.66" y="345" width="76" height="30" as="geometry" />
        </mxCell>
        <mxCell id="OR4K_Lvooa0aKepmsGJe-62" value="" style="shape=image;verticalLabelPosition=bottom;labelBackgroundColor=default;verticalAlign=top;aspect=fixed;imageAspect=0;image=data:image/png,iVBORw0KGgoAAAANSUhEUgAAARAAAAHgCAIAAADi+qVbAAAgAElEQVR4Ae2dCZQdV3mgn4RxcLAFCpBxGAVjQYgRSxIEyCQhzkFRAmEZwE6AQDKjGMFkSPCZzMSEZJQ4ZDFBwwBDFmmyHMMEJU4YwsmIY1DAJ1ECYXQM05tard60tNQttVpSt3pRq9X3auZ/t959Vbfqverfrl6q+HTesevV++vWvV/d769ba9fWf2qIDwQgsEQCtSXGEQYBCKz/1JAIYzpqfCAAgVwCCEOmgICCAMIoYOWmHwIqTwBhEAYCCgIIo4BV+fRJA3MJIAzCQEBBAGEUsHLTDwGVJ4AwCAMBBQGEUcCqfPqkgbkEEAZhIKAggDAKWLnph4DKE0AYhIGAggDCKGBVPn3SwFwCCIMwEFAQQBgFrNz0Q0DlCSAMwkBAQQBhFLAqnz5pYC4BhEEYCCgIIIwCVm76IaDyBBAGYSCgIIAwCliVT580MJcAwiAMBBQEEEYBKzf9EFB5AgiDMBBQEEAYBazKp08amEsAYRAGAgoCCKOAlZt+CKg8AYRBGAgoCCCMAlbl0ycNzCWAMAgDAQUBhFHAyk0/BFSeAMIgDAQUBBBGAavy6ZMG5hJAGISBgIIAwihg5aYfAipPAGEQBgIKAgijgFX59EkDcwkgDMJAQEEAYRSwctMPAZUngDAIAwEFAYRRwKp8+qSBuQQQBmEgoCCAMApYuemHgMoTQBiEgYCCAMIoYFU+fdLAXAIIgzAQUBBAGAWs3PRDQOUJIAzCQEBBAGEUsCqfPmlgLgGEQRgIKAggjAJWbvohoPIEEAZhIKAggDAKWJVPnzQwlwDCIAwEFAQQRgErN/0QUHkCCIMwEFAQQBgFrMqnTxqYSwBhEAYCCgIIo4CVm34IqDwBhEEYCCgIIIwCVuXTJw3MJYAwCAMBBQGEUcDKTT8EVJ4AwiAMBBQEEEYBq/LpkwbmEkAYhIGAggDCKGDlph8CKk8AYRAGAgoCCKOAVfn0SQNzCSAMwkBAQQBhFLBy0w8BlSeAMAgDAQUBhFHAqnz6pIG5BBAGYSCgIIAwCli56YeAyhNAGISBgIIAwihgVT590sBcAgiDMBBQEEAYBazc9ENA5QkgDMJAQEEAYRSwKp8+aWAuAYRBGAgoCCCMAlZu+iGg8gQQBmEgoCCAMApYlU+fNDCXAMIgDAQUBBBGASs3/RBQeQIIgzAQUBBAGAWsyqdPGphLAGEQBgIKAgijgJWbfgioPAGEQRgIKAggjAJW5dMnDcwlgDAIAwEFAYRRwMpNPwRUngDCIAwEFAQQRgGr8umTBuYSQBiEgYCCAMIoYOWmHwIqTwBhEAYCCgIIo4BV+fRJA3MJIAzCQEBBAGEUsHLTDwGVJ4AwCAMBBQGEUcCqfPqkgbkEEAZhIKAggDAKWLnph4DKE0AYhIGAggDCKGBVPn3SwFwCCIMwEFAQQBgFrNz0Q0DlCSAMwkBAQQBhFLAqnz5pYC4BhEEYCCgIIIwCVm76IaDyBBAGYSCgIIAwCliVT580MJcAwiAMBBQEEEYBKzf9EFB5AgiDMBBQEEAYBazKp08amEsAYRAGAgoCCKOAlZt+CKg8AYRBGAgoCCCMAlbl0ycNzCWAMAgDAQUBhFHAyk0/BFSeAMIgDAQUBBBGAavy6ZMG5hJAGISBgIIAwihg5aYfAipPAGEQBgIKAgijgFX59EkDcwkgDMJAQEEAYRSwctMPAZUngDAIAwEFAYRRwKp8+qSBuQQQBmEgoCCAMApYuemHgMoTQBiEgYCCAMIoYFU+fdLAXAIIgzAQUBBAGAWs3PRDQOUJIAzCQEBBAGEUsCqfPmlgLgGEQRgIKAggjAJWbvohoPIEEAZhIKAggDAKWJVPnzQwlwDCIAwEFAQQRgErN/0QUHkCCIMwEFAQQBgFrMqnTxqYSwBhEAYCCgIIo4CVm34IqDwBhEEYCCgIIIwCVuXTJw3MJYAwCAMBBQGEUcDKTT8EVJ4AwiAMBBQEEEYBq/LpkwbmEkAYhIGAggDCKGDlph8CKk8AYRAGAgoCCKOAVfn0SQNzCSAMwkBAQQBhFLBy0w8BlSeAMAgDAQUBhFHAqnz6pIG5BBAGYSCgIIAwCli56YeAyhNAGISBgIIAwihgVT590sBcAgiDMBBQEEAYBazc9ENA5QkgDMJAQEEAYRSwKp8+aWAuAYRBGAgoCCCMAlZu+iGg8gQQBmEgoCCAMApYlU+fNDCXAMIgDAQUBBBGASs3/RBQeQIIgzAQUBBAGAWsyqdPGphLAGEQBgIKAgijgJWbfgioPAGEQRgIKAggjAJW5dMnDcwlgDAIAwEFAYRRwMpNPwRUngDCIAwEFAQQRgGr8umTBuYSQJjVFWadPfdhM/Zbpm9L7qYiYC0QQJhVFebo86/X/1kzb6a+aE/tND3fuRa6BXVoRQBhVkOYzqfYodeaI8+2p37eCeP/axfOmQuftsNvMl1PbbXNmL+KBBBmFYSxp99//fp1e+2CXTjnVQkm7PyAObfH9L9yFTsHq04TQJgVF6brZjs/GOjR5qud+Zod/RVz9AXpjceclSeAMCstjB368TZ6tPrJmjkzecCe/FnT/YyV7yWs0RNAmJUWxnQ+xRy9w56610z+nb12oZUhrebbhVEz8SdyCNT5FL8VmVgxAgiz4sJ01EzPM6PzyF3fbod+wpz/I9UgzblkLv+96XzSinUUVuQIIExcmPXmyCZz7PtN/8vNsR8wvc9briw+eJcc9F/pNeMfM4M/Gq2l76Vm7EN25v9Ys9Bq9xKfb6f/gU688gRWT5ieW83Aj5iBH258Xm0GXpWTMvtfnlhk8C7p3x2NHn/0e83gXY3SfLGpicG7TN8Lm0u5xQd+2Jzfa+e67bVJ3ynt4qydHzQTf2r6XxHG+5V21EStREPqaxy8y/Q8q+VSvbdZM9dc0bUJc+lz9uQ7o/i+F9rT/8Fc+ts259DEt/lBO7bbdN3Sci39r5RLohf+wlz6W3PxM3bsN1uec+u9zZ75j+bCQ+bS58zFvzLnPirntdO7r84nm84bWnxujKrR+STTMuzJpmN9I+zGFuXcIIt7vJ1twhpr9MErMrF6wpz7iO8xfqLZadKN77/Th/kJc+mzDbjr7Ow3/fz2E3bmcGOpumxjv50Tbxbsmf+cWMRXr3ezNfOZi5uJP8lepKNmum6y88fTS9nj/yaxSM+zpOOO/4Gd604HuzmyP/SV8ROd32bO781cxEz8ebDbtCO/YK9NpIPtzL/EM4s9/Yv2Sq+dO2LnejI+V46acx81fS+xc12tY3plr9hzq7n0WXvlaEYhUvIR+Qy/Xho1/rHWYT3y05n/lNF2D2F5JlZPmPGPpTeSZLhW7Tz74Yz4qUca8evb9KpgQTv7jcZStfSlwyDYf82U2Z58pw8IJuJr8avzE3bma0H89evX5bCkVfN7N9vTv2Qu/71dnPYL2oXzcjiUWsReeMjHpCfiJtuTP5cO8HNkB9u9MSq/hYE+2Ew9Yod+wn/NnLCLM6bvRfbqqcxf/Uw78l7TUbPT/+jnZE6Y83+Ubvtyz1k9Yc59NE1BrnN3Pz2rzdk+mMn/3Qheb+c60gVmzmnuYVpk+uylro5kjH/GP5kZLEOmlm2p79Yu7k8vaO2iOfayRov8UPP5MmAbea858mz5qftp9vhbzIVP2YVRO9cZBnfUzMCr0iUHc6L9UtfN9upI8FPw1Y7+WrSK8Y8HPwVfZQw5uD2YGXwVJkfvsFf6gvnBV3vq52WlU18M5gdf5QgwlSyWe87aEkb62Ymfzmjzsa3WmoCXpOTHJ8xcR7SK+sF3uthWc+SMVnIL2elDrYKlev3bgnj/1Z7L2GHKIumB3NnfdauwdvH63GNm7IFIqu6Npu9FvsDmRN4IUyCP7ZYUPviaNpWPVjr9T1HJucJMfn4JwowvTZh7ZaX5wny82erkdlm++WtOGHNxf7q1duw3Mzdte2GsNXZxyl67eH1x0n/stUkz9SW3Cnv6felizYVPSQKe+LP0T/b0+xN16356znF5fWiRWKSxXe3Ie9PlS1denDJHvqu5SPcGuzCajrTzJ+QcSaO0xMSFT8fjJamPfyI4SjEXPyPCJO9ks1f6zMAP2tEPJBafHzSd3ybl5woz9cVcA625siRhRt4ja8wV5vwfJxqeSaPomWtOGLtw1nRvSIJYd33usfhW9NM5wizOygmunmfKLcDxT6N8O/Ybvig/YYd+TDrT0A4/x080xyduM/S/wv+UOZGxu2hsvzbD/fha7MiuzJJFrcHtSUqNIdzFz8QXkbNkHbXAf8ctkNac/T2J7HqqpJjGP3v1TDQQTQpjr/Tbkz9jT76z8XmX6X+5HXptYzn5vzXz9vR99sQ7fIycw+h+hp0fjofJ8PLETzdipEBz5LulJklhzOVHk2HvMn0vzSbQgLwcv645YQT08BsTTe3bYs21OGI/nSfMTOK8c4qjPfuAL8pP2KEdIszwT/o5fiLeldMZ2oc1J+YeMx3rEm3xdeh7catG2fnhxoms9Xb2G83SYlN2cdb0Pie75At/EQu8LqfFOmrm3J7EzMkDUv+R9yRmjn1IIrueGj+wkRsL3JnrQJjpQ+m12+E3xgu0i9Op3FczcivdiUTYqXeni5I5gTDjn8wO80hXZGItCmPO742jsWd+Oc43Pp0vTO/meFHBdOZIzx2o2OHXx1fkpgNhzPh/T8fE58j4qufWYKXR1+5n2IXz8eD4tD35M632ci7Mzg9FI6V0LwmEufCQrPHcf4uXbzKFOfs7EilnAk774JbCzHwt3S47/Aa/YH14OZNhddctoTDBQNe3KBBm4n+k17jyc9aiMGFvuPzl+GaITy+jMMffHF+Rm5brgH5zLuG8Z33g9Jr4IrHp9Xaux69CLpLGLobY6X+UyEv/KxYwZRdnm1/bXObPFGb8D/yy/vx1uIdBmNjGjW2pxli3/utaFEa26MAPRTU+sskuzsQ3dnx6CcLc3qrlksKzziVEp8L6tshFoeTHDr+hWVr30+zCWLwy1i6mR1ktr3jKkOMRv7i9NmFifdqaa3KhMH7bwYWHEonf7TcyN3CWMHb0g/bqGXv1VP1zxtSzNcI0t2YmyayZa1UYl+3kTM6/870qPZEnzHS7+1NaCiMH/fmfYy8L6mMXxu3M14OZ0TF3ZoHn9/lgkW3odfbK0fic5vTCqB1+Q+JumrH/0rKGWcLIfS7dG0zXzfLp3uBuP0kd9GuGZNnHMMGQLOsYpntDOCTjGKbltoz3m6wLl80uMts4XL70N35meiJHGHNNAi7+pdwf5T6XPmtP3+erl97DSMeVC+qP1m/x6LBz/tMp0yfe0Vw2dY3czvUEx9YyJJNri9nH/Xb0g/EWmf5tdvT++Bw/bc79V3Ps+/xXKTZWE1+laCJTmDj5xvQTEuZKvz3x9uhz8p2ZB37WXJH9ZBT2DrnC1vXU+m1ByYP+Cw/ZE2/zRZmjd0QNCY5hLn8lFvaulmfVG60LsRQ0f43uYay5Zno3m84b2xwZy8hNf+EyfpNvhjDmaqtLirK6sQeamyF53kl+nfqSPf6WeLeuH/hOmyP/urlUbLPZE2+LB8sp155nZt6ZZnqfF1ziMP13ZpYpM1dEmHjNpZkLo/WzFDm3xsiNqh21YA8TFGXOfSRqWlKYMOzyl1sSiEEuPGaNCiPb4NS/NQM/GGAKvj4OYWKLZBzDWHPVjP12q6OmxFmyqS+FlTn/x6b39vQdCS0vmAz8ULwEdwOVufS5+EzhUD++t6d2+vlyR1YLCVdNmPnBpQkjt4rmCHP2d5ckzNQXCpdhKQWuXWHMpb/OPW8b6/1LvZcstkgbYZrno3w3lb7rb6zKuglN7pDvWGcXxuOLyFJnfjl7S/Q+Nx4Z3a6SvPYni9dv+7djv+6D7dXTLc8pr9YeZn6gOGHqh1Kp6zC++W7CnRnPBvstuodZnLWLUwGm4Gus9y9VmOuxE7KZQzLTuHcrWFdCmKN3ZJwQG3qtdJqZfwkWNBc+nb1dO58iP019wVz+ip39hh35hShs8oA86zI/LGe0pr9qOuXBD3v6/XI4dPlRM/l3xl1hbNUtVmdINrY0YbZKWPLCZYjr3J6IQ86Q7NFsqq2wFDR/7e5hAo6ZX9sLI+Orcx+1Y7v9x4z9lj3+Zg86Qxhr5FaOkfcE95K4tfs9TNaxyozpfpqUfP4Pg6ra2W/6NYYT3c+wx++R493hN8lTaH0vNr3PlbuSe241Xd8eBXfeKC++6L1dbrU89gPyhGara/yuT6yIMHZx2s4cjj6z37CX/rouzOvibZczKHMd8gzpzOHrc4/JAza9t5vOJwXC2PkTLkZKm/2m9SfNksLUT0JKUS6seahTkAnhpmlRbKWFkVszGo9zZLU/LYzsRtw9WgM/Et/2oTBju4Nf5aL++CfM2d+z018Nf7p2scX7LNeZy4+GwWZeesb8sDwgfez75AGY+UG5/3Jx0porUTVOv6/d1s0U5uj32ONvtcffXP+8NTr4Tt4AalQXLqe/mq5DxpX+9LFWxpX+X0wXJXOSwpjz+7LDsrbs8kVWW5gZOdXWGmi2MPV7+HNujbn4V0FHb/+1xTnQdk+JmoFXp92LhGl126VraaYwybt4zNRB2SEE95ItizCxZ8hd9RCmTY9s91PqOow1Cz6JpvufXPxO3YKZMyRbXCZh1i/9ceioi/thRmBv4yqTvE5g9pv26oi8DlM+E3box+z8QLT44qwcwEw9Io8rn/xZ03VTO7DZwiSeb5UDpycoDPeStdsGwWYu5GtKmOuLk2bqYFqVqNPMPhaMfXOvw8jp1+XYw/R8pzxdo/lnxls86tR47to9U9DYBOvkWmfXLf7Wm/qxU+P1EbnwM4VJ0ubmywbqJdzSkQS+hoZkchw5+mvWXM3siubcR+J3K7qYvD3MdIuDhwhT9pCsPuAJHu1wq7Njvy6gl/AMcNAE0+Iqm7/WLk8dd91iT79PHvkYfqM84HD0Dn+bvT35LsUGDoSZ+FNZNnmZNVsYd2tp102Jm9YWxrJv7y9yD8MxTFLK7I2dzHlytG2u2cHt8fupfLez1tjh19sr/X6Om8gRxszZ43fLu4X672x+Bl7l31Mc3JziyrTH3yrDleNvDdZVP638q/JT1u1t5vKX5fTaiXfY0V/NWHD+ePOsVwyO11L+0EXvbfEF7cgue+VYVKUTP5XNMFZUMyB4gGzqEXm6ZuoL8cLN5OfrQ7LEU5/m/B9KIT3PSrxnQ95kUP87AsHzMEUK80vNysdbxEF/gktKGBliHX1B9vnc+WH54xCpNza0FybeRRLT8lyX7GTsqXcn5te/yC1hYw/Yuc6Mn07VnzU/+/sZP8WuTqbrKSe4jz4/0XzXM/peKE/qyyXRD8rbLeIvKzu1s3kMM/S6jGXjfSs+HbunU0q2i3Z+KLj/QF621lGzJ96eaMjipDn74UCt+r1w9dFgIMwSb76MvzjOVTJ90H/1jJ3rbHy65PVLwz8p7U0KI8d1zbBOeeeTXClWj6me4CJraEgmwvTeHm7F+iaVd8x11OzC2cQGflz3kkkfkjs766D7XxkU2P6rnOftqJnJz6fDZFfmN17qrhlZaf2yZjPGBXdvdHcGRG8M6n2Ov5PNnnq3f3+sfxZX9sCpF3EEZfphXrqSfo4d+fey1NE7ApF8gJ+Qm1ZdVUNhMt67mTqtfDl6040nIw+ohQ+Q+XX5ieguoaQw/lc/8a3+miVrjexhjnxX+jDGnnh7kcL4F/l13pC+MO+3RzBhJaeuMx3r7VxX+JNdNH0vaXbc2JMtPjJ+l3QzsmO9nf2/otPCWTt6v+m/0z9eKkOy+SG3uB39gDxXU79oY0+3GPH7Ttlza/xBGl8BP2EXY/04y20fKRU7/pZMYczlr8Ra0TgmDJ64vDZpev5VGLYUYXjNUkhN3kKS8XyvXOruqAXDIWsW5Mp3543pc1P+/S/Sj6/0xrd0m2nrX7MkL3r9/nSx6WXlumT9TlsZGcYGTi5S3szSdbNvox39lYwSWj3yNf6JeLBP+fJCyqxbSOzQj/sVtZrIPMrya4nytxOs78XxV174GDdRv37fODuXrKe7khNUIHymX4RJ/QXCrlvs1ZPBioKv8qcNZEgW3t4ahLU89+hzxzJMrNqQzI79hpwWW7zc+ExLt+t9nggz+gF5PVL004zcPSW78pvkGZXFmcb8y3LWuPmc9zo57E786ksOJmbCjX3sZe1fL2Znvt58K3HfS+21yWTNZ8yF/5noOv132msXkzGz7s1GiTC3OXufmx5qSmof2ZXuWHIXfW+7Z0h9+XK2LXUYJocH6RNux14m6JKvfbMLY/I8ducNvsDglp/oIepkj7TDb4r3aXlGo/s7miW44K6b4w9jx+P9tFPaTv+Dn5M5Yb61XrPUdZPcE3Xku6NP73MS74s4sqkx/7bm+aXu7zC9t8UWif0kr4R8euJXX3Iw0Xtb5v0yciXk7O+Yyc/b6UN25ut2+p/l6t7Z35cD0PhruTtvkFvrEzW/LeNK4pFnp2JavzW870XybsvkjkvueYsdLMnbp8Y/3v4lOGHX7Hyy6X+F3Kh26l554Kx/W7t7nPteYk/8lESe/Dk7+JqMN9D2vciOvFeOrE7dK4dAg3eFq6v/GQ97amcj5j32xNsSykV2rbPDb6oXda8UFX7ebUd2yXaU0/evbh12r0jl9vlJaTNqVWjAqu1hlrth5Sv/6Aukr4x/0lz6G3mXQN9L5Yh57AF5HH/4jRk9uNB+UD5cq9R8hFnp85J0zVITQBiEgYCCAMIoYJU6NVL5QgggDMJAQEEAYRSwCklRFFJqAgiDMBBQEEAYBaxSp0YqXwgBhEEYCCgIIIwCViEpikJKTQBhEAYCCgIIo4BV6tRI5QshgDAIAwEFAYRRwCokRVFIqQkgDMJAQEEAYRSwSp0aqXwhBBAGYSCgIIAwCliFpCgKKTUBhEEYCCgIIIwCVqlTI5UvhADCIAwEFAQQRgGrkBRFIaUmgDAIAwEFAYRRwCp1aqTyhRBAGISBgIIAwihgFZKiKKTUBBAGYSCgIIAwClilTo1UvhACCIMwEFAQQBgFrEJSFIWUmgDCIAwEFAQQRgGr1KmRyhdCAGEQBgIKAgijgFVIiqKQUhNAGISBgIIAwihglTo1UvlCCCAMwkBAQQBhFLAKSVEUUmoCCIMwEFAQQBgFrFKnRipfCAGEQRgIKAggjAJWISmKQkpNAGEQBgIKAgijgFXq1EjlCyGAMAgDAQUBhFHAKiRFUUipCSAMwkBAQQBhFLBKnRqpfCEEEAZhIKAggDAKWIWkKAopNQGEQRgIKAggjAJWqVMjlS+EAMIgDAQUBBBGAauQFEUhpSaAMAgDAQUBhFHAKnVqpPKFEEAYhIGAggDCKGAVkqIopNQEEAZhIKAggDAKWKVOjVS+EAIIgzAQUBBAGAWsQlIUhZSaAMIgDAQUBBBGAavUqZHKF0IAYRAGAgoCCKOAVUiKopBSE0AYhIGAggDCKGCVOjVS+UIIIAzCQEBBAGEUsApJURRSagIIgzAQUBBAGAWsUqdGKl8IAYRBGAgoCCCMAlYhKYpCSk0AYRAGAgoCCKOAVerUSOULIYAwCAMBBQGEUcAqJEVRSKkJIAzCQEBBAGEUsEqdGql8IQQQBmEgoCCAMApYhaQoCik1AYRBGAgoCCCMAlapUyOVL4QAwiAMBBQEEEYBq5AURSGlJoAwCAMBBQGEUcAqdWqk8oUQQBiEgYCCAMIoYBWSoiik1AQQBmEgoCCAMApYpU6NVL4QAgiDMBBQEEAYBaxCUhSFlJoAwiAMBBQEEEYBq9SpkcoXQgBhEAYCCgIIo4BVSIqikFITQBiEgYCCAMIoYJU6NVL5QgggDMJAQEEAYRSwCklRFFJqAgiDMBBQEEAYBaxSp0YqXwgBhEEYCCgIIIwCViEpikJKTQBhEAYCCgIIo4BV6tRI5QshgDAIAwEFAYRRwCokRVFIqQkgDMJAQEEAYRSwSp0aqXwhBBAGYSCgIIAwCliFpCgKKTUBhEEYCCgIIIwCVqlTI5UvhADCIAwEFAQQRgGrkBRFIaUmgDAIAwEFAYRRwCp1aqTyhRBAGISBgIIAwihgFZKiKKTUBBAGYSCgIIAwClilTo1UvhACCIMwEFAQQBgFrEJSFIWUmgDCIAwEFAQQRgGr1KmRyhdCAGEQBgIKAgijgFVIiqKQUhNAGISBgIIAwihglTo1UvlCCCAMwkBAQQBhFLAKSVEUUmoCCIMwEFAQQBgFrFKnRipfCAGEQRgIKAggjAJWISmKQkpNAGEQBgIKAgijgFXq1EjlCyGAMAgDAQUBhFHAKiRFUUipCSAMwkBAQQBhFLBKnRqpfCEEEAZhIKAggDAKWIWkKAopNQGEQRgIKAggjAJWqVMjlS+EAMIgDAQUBBBGAauQFEUhpSaAMAgDAQUBhFHAKnVqpPKFEEAYhIGAggDCKGAVkqIopNQEEAZhIKAggDAKWKVOjVS+EAIIgzAQUBBAGAWsQlIUhZSaAMIgDAQUBBBGAavUqZHKF0IAYRAGAgoCCKOAVUiKopBSE0AYhIGAggDCKGCVOjVS+UIIIAzCQEBBAGEUsApJURRSagIIgzAQUBBAGAWsUqdGKl8IAYRBGAgoCCCMAlYhKYpCSk0AYRAGAgoCCKOAVerUSOULIYAwCAMBBQGEUcAqJEVRSKkJIAzCQEBBAGEUsEqdGql8IQQQBmEgoCCAMApYhaQoCik1AYRBGAgoCCCMAlapUyOVL4QAwiAMBBQEEEYBq5AURSGlJoAwCAMBBQGEUcAqdWqk8oUQQBiEgYCCAMIoYBWSoiik1AQQBmEgoCCAMApYpU6NVL4QAgiDMBBQEEAYBaxCUhSFlJoAwiAMBBQEEEYBq9SpkcoXQgBhEAYCCgIIo4BVSIqikFITQBiEgYCCAMIoYJU6NVL5QgggDMJAQEEAYRSwCklRFFJqAgiDMBBQEAx3GB0AAAZUSURBVEAYBaxSp0YqXwgBhEEYCCgIIIwCViEpikJKTQBhEAYCCgIIo4BV6tRI5QshgDAIAwEFAYRRwCokRVFIqQkgDMJAQEEAYRSwSp0aqXwhBBAGYSCgIIAwCliFpCgKKTUBhEEYCCgIIIwCVqlTI5UvhADCIAwEFAQQRgGrkBRFIaUmgDAIAwEFAYRRwCp1aqTyhRBAGISBgIIAwihgFZKiKKTUBBAGYSCgIIAwClilTo1UvhACCIMwEFAQQBgFrEJSFIWUmgDCIAwEFARWTpiJQ7Vdd9c2bpDPrrsVVcxNSIf3S5kP78ko8+C+Wq1W27s78dPe3bWD+5pzBg7Utm+TsM2bmvP37o6q6pbNjDEdUrJbsH0lM6vRfpGl/Lp5U6J1fi1+IrOQJ4grs8xVnLl5U23rlubWXO6arJwwrlPuurt2/05p4cShwhrpevPh/RkFZnadzZsSxj68R+rj/rtxgxQycEA64q675VOrydd0jNswmzeJV5s3Zaw6vuUyqxEPeBzTrpIbN9Tu2RGt3a/FT2QW+wRxZZa5ijOrKczh/dLz7t8Zdqy9u6W3uX3OxCFJ8LWa9ADXC50D7qvbJC7ShT14n4S53YXfjbidmJRSEw3iBW7cIF+3bnE/yrLBZn7wPvlp4EDNTUwcEqtrNfnqI32M2724/hoI41bqd6cH92VUI92oh/fIutx+cuMG2emly/HVMB1Sq40bBKlviIsPgJiOqJwnjmviUMau2K3UF+6x+HFEeim/93YDjaCE7duaLfKFBIv45rvOU8E9jOtn8YGQ35D37JCt7nRy7Fxf2bhBOrcPO7iv5qzz/c/ZMnAg6hB7d0tvc+W4vdnDe6KfNm+KHPC90E3E+5/piEQ1HVF93K+B576jTxyK+us9O8I9jGuF22vFu366GvFGtRImXk68wtu3NaVyYN16WwnzxHG58efe3QJz4ECURNxKfeFuGz14XzRYPbgvmvBLpQOCEtxaDu+PNvfDe6KJeJluke3boqzxrSKM88Sh37olOoTw+4p7dkjvdyM3N4jy2dT3DNeB/FfHeuBAtJH8Lssdh2zdEhnohlvxzue1dDsTV7G0MG5FLsbl1IEDotnmTYkRpq+P6ZA1+h1dUI2gUa2ECZZytXK7vvt3RqNHt+v26/UTAZ/gqxaX6+tbtwheV5Tn5uc4dLLl6v8evC/q7n6pdEBQW79X9/v59CJujhuAVHNI5qD4IZnTwDW7vTBuwzx4n3TK7duiY48Asf/qsr7bVEEf8n3XdMjvwVmHgQOyu/CJyvUkPyRzvSGI8UM7t7rt26QPuXb5+viVpue4QUW8UUsUxq3CBbtVu8FnvO/GVxefHwjzOHAd3i8JIr7XDdbltunBfWLywIEISHypdEBQgumQDX3Pjui/focfL7OVMA6Ol3k5JlbuoN/1MHfQv3mT0HSk7tkRjZfu3xnNcbvaWk2QuTa7A9xaTQLa9ACP3u3Hg0i/h3EHSP6s2sABsdEdq+zdLRkxfdCfjjm8XypzcJ9UcuMGWcolYN+K+J7BV8wr5E8t+Ea5xV1ScG1PL+VX4Q6QXAX8mQn36667o5r4pBAvJ87Ez18iroP7ZLB6cJ+0N32mIW7j9m0yPPY5K76UW2kQ4IcVrhB/xOIYtlrE9xOX6Tyc5fDEl7lywkwcEsrBaWWPZtfdko0cmq1bonzvB8qun6WPbuMbae9u6egbN/i0K13Z94l4T/UrdQnJdTi/mBtx+Ri3zTJj3Nr9MYxb+4P3Zaw0sxpBo9xBlDvnET8+iYvnV+EOjYLmxwt0DNMBcWG0uP78Q1Fm2bpFUGcW7g76XQLavk226cN7wqXcmR6XFPxGd810Zfr86PcYwSKmQ8YIblCwfVs0NPBwXCHL9N+VE2YpDYh3LB8/cSg6JomfrfK/xifu3ynbxg0G/P4kHrB2ppfeqOWrc4lwLR8EbcklEMaN1+/ZEQ2I27Tw8H5JNrWa5J7t25pZsM0iq/XT0hu1fDUsEa7lg6AteW0Jo6098RBYYQIIE43FV5g7qyspAYRBGAgoCCCMAlZJkyLVLpAAwiAMBBQEEEYBq8BERVElJYAwCAMBBQGEUcAqaVKk2gUSQBiEgYCCAMIoYBWYqCiqpAQQBmEgoCCAMApYJU2KVLtAAgiDMBBQEPj/wvw/E3qvmISBuz0AAAAASUVORK5CYII=;" vertex="1" parent="1">
          <mxGeometry x="314.33" y="400" width="124.67" height="220" as="geometry" />
        </mxCell>
        <mxCell id="OR4K_Lvooa0aKepmsGJe-63" value="" style="shape=image;verticalLabelPosition=bottom;labelBackgroundColor=default;verticalAlign=top;aspect=fixed;imageAspect=0;image=data:image/png,iVBORw0KGgoAAAANSUhEUgAAARAAAAHgCAIAAADi+qVbAAAgAElEQVR4AeydBVwU3f7/l21QBBR5DHYpKemW7gZFQrFBJOwAQVQUCxFBBDFAMbAxAEFBsTuQkBCV7lyW7Zz533V0L/d57nN/3r9eEZl57Ys9e+bE93zO9z0nZpZFIM/Uwy9YAViBb1QA8Y3p4GSwArACyDP1AmBA+IAVgBX4BgVgYL5BJDgJrMBXBWBgvioBv8MKfIMCMDDfIBKcBFbgqwIwMF+VgN9hBb5BARiYbxAJTgIr8FUBGJivSsDvsALfoAAMzDeIBCeBFfiqAAzMVyXgd1iBb1AABuYbRIKTwAp8VQAG5qsS8DuswDcoAAPzDSLBSWAFvioAA/NVCfgdVuAbFICB+QaR4CSwAl8VgIH5qgT8DivwDQrAwHyDSHASWIGvCsDAfFXiF3jn9x0Fun0Aaj4IMH8Bc2AT/o0CMDD/RpSfHwWwPvC71nDfK4NdCLAewfugwO/aADBe/nxL4Br/swIwMP9Zn590ltcRDdIQYAcCfI/gv0OAtQiw+XO43hDoSwDYn36SHXA1/5cCMDD/l0I/5TzA+gQMZPC7NvLrzLmVaAEtdQiwGgF+EpDDrcLx21xBVvVPsQWu5D8pAAPzRR0mk1n/+WhsbPyTYE1NTXV1dfX19UymYGnR2toKfYTS19fX19XVUSgUKNfr169TUlKiozdt37794sWLVCp1aGktLS3CXBwOR3gK4LTwPqgArf4AKREYzAF643gNVtwqUbABIXh9RIC9CF7bKhBgC7OQyeQ7d+7k5ua+e1chjGSz2ffv38/NzX3z5jUUyefzGf968Hg8JpMpjKPT6Vwul81m0+l0KBKKAQBAGAPF8/l8YUWjNgAD86XrHzx4ICcnRyQSFBTknz9/LnSId+8q5OUF8fLycjdv3gRB0NTUVJCQSBC+5OSI586dA0EwNTUVipSTE5yVkyPa2dl2d3dDpTU0NCgqKn5NIJeXlyusBeAzOZUyYBsC7EZw6z2geIDTBAxe4LeH8j9pgR8E8zSA2wWdqq6unjHDRGjA9u3bQRDs6upydnYSRgYFBQEA8PLlS2NjIwMDfehlZGSQmppiZ2c3NObAgaS5c+cOjYmL2/Po0SMjIwNhpLGxwYsXL4QGj9oADMyXrr979y6RSJCVnSonR9y6davQIfbt2ycnR5SVnUokEnJzc0AQ1NPTJRBkZWWnEgiycnJEOTmigoJ8VtYZFoslLy8HnZKVnQq95OSIO3bsgErLycmBqoBq2bVrl7AWEAQ5H43BT18WMACjBDrFbd8CdC8FBo4BA8d5XXHA1xFmyZIlkFUEgiz06ujo2L9/PxQprPrFixcvX76UkyMSCLIQwPLycpGRG5WVpwljFBTk161bY25u/pk0QYsUFORDQ4Nv3rw5NKOCglxRUdFQg0dnGAbmS7/fu3cP8mYCQXbGjBlcLhc6YW9vBzFAJBJu3MgDQdDY2Ajy0dmzvQ4cSEpMTExKSvrw4UN5ebmQlidPngQFBUEX+3nz5kFF7dy5UwgMkUiYO9dvqM/xmvzARgSnXLBo4TUvBkEQYDdy34mArYJ9M26VLMAjCdM7OtoTiQR7e7vdu3dBrn/v3r01a9bIyRFdXV1LSt4oK0+TkyNmZWW9ffuWSCQQCLKurq7LBUfYqVMnVVSUCQRZGxtrKOb8+fNmZmZEIkFPT3f58uWhoaEXL17Iz78BZfTy8oKSVVfDiygQBgaEDiEw0NDx5s0bEARra2uFDPwJGCKRkJx84Evmz28PHz6EEhMIsnQ6LSIiAhp/Zs+eDSXz958rBIZAkNXV1WUwGMIS+B2RgvV9hWDqxakSBfkMXtcOsA0BVApW/+wKcYDXL0zs4uIsJ0dctGjR69evoKHj1q2b69evl5cnLlmyCARBXV2df4wVZ86choAhEgnXr1+HstfX138e4v5pP4fD0dHRlpMjBgUFCau4dOkiBPzTp0+FkXAABuaLDwwFhkgkxMfvBUHwyJEjQhf/KzAHDiQNdaAnT54I6aJSKWfPnp37+YiLiwNBkMViCedy0JSJQJCtqqoSlsDvOwq2IDiVEpyqyWALgte2hlOtyq9GcGuIYB2CW6stTAmCIASMv7//y5cvdD8fjx8/WrNmjbw8cf78+VwuFwIgK+uMEJirV69CJdTW1kLAJCUlQjE0Gg0CbNmyfwPMo0ePhlY9ysMwMF8c4F+BkXVxcQZB0MfH5++AIRBkAwMD8/LycnNzHz58AILg06dPIWCUlBSzsrJOnTp1UnBk3r17FwTBjx8/QhM5XV0dc3MzaB6VnZ0t9D+AUgg2INiV0vyOTYL7MFWCPWXuBwNucyDYi+A2zBSmFALj7u7G4/GoVCqFQuHxeIGBgf8BmISEhMrKd58+faypqYGWZOHhGyor31VXV/f39+vp6crJEb29vd8JjgoWi3X16hVohMnIyHj3ruLjx49DDRi1YRiYL10/FBhZ2akKCvIPHjxQV1cTLt//NMJAMzdoOmRsbASC4PPnzyFgdHV1HB3toZ00eXm5WbNmgSBYUFAALQm8vb3Xr18P+eK2bTFCzwOYlYK7Lh8RAO0xp1oRbEKAnQh+72FeSxDIFgw4wpRCYNzc3IZGBgYG/B0wX8c0gpmZ6du3b4V7AwSCrKKiQlVV1YwZJsL5JIFAqKqqKiwsFF4sCASCjY310LpGbRgG5kvX/wkYWdmpNjY2QlqgS/LQRT8EDDRQmJmZDgVGR0fb3d0N8j8ikTB//nwQBBMSEiBIduzYUVCQD4W9vb3/6Xl8MvejLdCsCXB7+f3ngC4l3kddEAR57REA2Yg/8M+xSAiMq6vrP7ODYEDAkv8ADIEgKy9P1NLSLCkpEe6wQQxXVFTMmDEDGgA/b6ATy8vLi4qKIGCgGH19vaF1jdowDMyXrv8rMJDHC5n50whDJBJWrlzx4sWLp0+fVlSUD52SycvLv3r1MjAwEKICAiYwMADyzsjIjenp6cLp2T/X/QCf1xEBtLrzmhcBvev55Kt8yn1wYC+/NQBongX+69Mx0Bpm5kwPOp1eXV1dU1NNp9OXLQv6O2AIBNlVq1adPZuVn3+jsrLyM+eyCxYsyMrKunTpYmdnp76+HrTtdlZwZA0MDFy/fh0yODo6OivrTEFBwaiFZGjDYWD+DMyfOPkPwCQm7h8q5Z8W/Vu3boWAWbRoIQiC1tZWQ+Y8gts40Bj14cOHr4XwBPcuaxGcd1JAgzi3dQWnZhrYjuC/l+Z9MgM5HV+TCd4hYObPn//48SNolCsuvgPtkv3doj8398t9UuGi/+DBZKhMGo0GbRIEBy8T1iLcJXv27J+3cYVnR20ABuZL1wtHGC0tTVtbW6Fzm5mZ6uoK7lT+dYT50y7Z0G1lFou5bVsMBExgYMA/Ns2UlBSFZQqZJBIJ+fn5Qufj1urzGr1AVhXIKALozzgVGG6dPQjyhAmEAWdnJ2hbuaTkDWRbYeGtdevWfd5WXvJvt5XPnz8PZX///j20SwbtBIIgSKFQoF2yvwHmmbBeOAAD88UHIGAIBFl9fb1duwR3A6F1S1RUpI2N9V+BIRBknZwcNm2KjIiIiIyMfPfuXVVVlZCEs2ez/Px8oFzLly8XniIQZC9dulRWVqaqqgKdTUz8srcrWK40+nLr3Pg9B/gdSG69G7tyHLdZcFPlr4eTkwORSDA1NQ0LC4XKefTo4bp16+TkiDY2NpcvX1ZQkJeTI164cEG4rXzhwgWoHCEw+/bFQzEQMEQi4R9XiszMzOPHjz979iwn58uULCIiIjMz88SJ421tbX+1ZLTFwMB86fHi4mJoX0tVVeXBg/vQQy4EguzNmzeNjAyg3bCcHMG9P11dXWhyD0VCz5KcPn2Kw+GoqChDC2VoiQI9AnP+/Pm8vDzoMRNZ2and3YLnwWxtbaHsS5cuFfocrzOG+3ECQH3A+6TL+WTKfifFa/IGqVf53fEgCAiTgSAI3RWFUIEoJZFImZmZwodZoFM1NTUvXryABrrLly9BJUDbynJyxP37E6AYCoWira0lXPQrKMivWBEm3CWDsisoEO/cuTPUhtEZhoH50u+PHz+ePl1dTU3NyMigt7d33jx/dXU1e3u77u5ua2trNTU1dXW1O3dugyBoZ2enJjhUhS91dbVLlwTuWFBQoKOjDXnY57+yAQFLuFxuUlLSP9Koqak5OztBD92sX79eXV1Qpo+Pj9DzAEa54CHLVoTgGZlPVpwqacE3ZFgIbmuIMA0U6Orq8vX1hrjV1tY6eTLzHxTRaLSlS5dCqKupqe7ZsxsEwbt370IPHFy5cgXK+/79+887ZnL7939Zg1GpVA2N6VBp0ANy4eHrCwsLIfwgkOTkCPfv3/+TGaPwIwzMl07ncrm9nw8SSfDIFpPJ7OnpgR7OHxgYgE7xeIIHzMhkcm9vb9+Qo7e3l83+8uB9b2/vnTt3zp8/n519ubS0FCqdQqH09vb09vYKn/ZnsVhQDJlMHup2APUZ0BnIb9PndWzmdWwCOmfyScdB4J9P0AxNXFdX9+7du/7+fz4yA4JgfX19eXl5Z2fn16qp5eXlZWVlworYbPa7dxWlpaU9PT1QGj6fX1NTU1ZWVv75KC0tbWtro1IpwhgoXvgVhqE2jLYwDMxo63G4vd+lAAzMd8kHZx5tCsDAjLYeh9v7XQrAwHyXfHDm0aYADMxo63G4vd+lAAzMd8kHZx5tCsDAjLYeh9v7XQrAwHyXfHDm0aYADMxo63G4vd+lAAzMd8kHZx5tCsDAjLYeh9v7XQrAwHyXfHDm0aYADMxo63G4vd+lAAzMd8kHZx5tCsDAjLYeh9v7XQrAwHyXfHDm0aYADMxo63G4vd+lAAzMd8kHZx5tCsDAjLYeh9v7XQrAwHyXfHDm0aYADMxo63G4vd+lAAzMd8kHZx5tCsDAjLYeh9v7XQrAwHyXfHDm0aYADMxo63G4vd+lAAzMd8kHZx5tCsDAjLYeh9v7XQrAwHyXfHDm0aYADMxo63G4vd+lAAzMd8kHZx5tCsDAjLYeh9v7XQrAwHyXfHDm0aYADMxo63G4vd+lAAzMd8kHZx5tCsDAjLYeh9v7XQrAwHyXfHDm0aYADMxo63G4vd+lAAzMd8kHZx5tCsDAjLYeh9v7XQrAwHyXfHDm0abAdwFDIpF+lF719fXx8fFDC/Tz83NwcIDKLykp8fPzU/x8GBgYREVFDU0JgmB9fX3I5yM7OxsEwZCQEAMDAxAESSRSfX29oqJiSEhI/ecDgUBAaf5keXp6OgKB+FMkCIIGBgYhISFQvLBY6CNUOFRsSUmJlJRUfHy8sJD4+Pj09PS/FgjHjGgF/v+BgZyjvr7+h7S/uLgYgUAMLW0oMIqKigYGBiUlJfX19VDKqKgoYb0kEklKSsrBwSEkJASBQBQXFws928DAADHkgBIMBYZEIg05/yXo5+cHgmBUVNTQU9nZ2cJioaqHJoCsGgrMUNKEpsKBka7AtwIDeSqJRCouLobcWghMcXFxSUkJCILFnw/oug5FCnNBZ4UeP7QcSMH/DEx8fLzU50NRUVFKSgqCRyh9fX09NG5A5MTHxw/17OzsbD8/v5CQkJKSEggPKCzMTvp8ODg4IBCI9PR06CPUChKJpKio6ODgQCKR4uPjHRwcoIELyhsVFeXg4ABZ/m+Bgc5Csgh1E9YLB0aiAt8KDISH8IJdXFz81xjo+k0ikbKzsyEPhtIM9dS/5oJUgxzO7/MBXZuFI0x6enr85wOadEVFRUEfIUqh7FDVCATCwMCARCIJgSkpKUEgEPHx8X5+flJSUhAwioqKwskSZK2Dg4OUlBRUSFRUVHFx8VCrEAiEcE74d8AoKipCFQmnZMI5JDSTHFrpSHQU2GZIgf8OmPT0dMizIa+FLslQTEhICBSAZkSQd/4dMEPLgeyAPDIkJAQqubi4WAgMNGJAtAz9O9Sts7OzoWRRUVFQGsiz/y0wQ6dk9fX10KIIGjaFwxEIgtCwFhUVBcH2b6dkwhEGain0F1pTlfy7409LL9gLR5wC/x0wfx0rhsaAICglJRUVFaWoqAgtA/4OmD/lGsoMNMhAf+Pj46FTBgYG0JRM+Fc4RECebWBgAF3jQ0JC/jQlgwCOiooSVjoUGIiHoZVCYWgeJawlOzsb2lf40wijqKgIrWSgi4UQGGh4QSAQUlJSkGFQYGjVI85XYINBEPzBwISEhED+AXkGtPUEXfIRCATkzdAMR7icEHaD0OegGZeBgYFwl0w4bgiLErqyMDs0IEAfhVMyCCdhOSAI+vn5CYcmEAShoQmas0FzqqHzPWjvSzj3y87OHrrZkJ6e7vD1EA5lwikZdPmAmIc3AITdNNIDPxgYyOmlpKQgXUgkErTsgS7D3wJMdnY2dHWHXBEqB9ol+7fzMWEH/B0wUVFRUlJS2UMOIQDCvCAI/tttZSEGQ3ILtq3/eghTwsD8VZzfKeZbgfmWNpNIJOGQ8i3p/5SmuLhYuD6GAsIbIA4ODn93SlgItMaAPkZFRQnnTunp6Qb/egwdJYTZ09PThZwLI6EVzr/mFtze+etRX18fFRX1p0KEC314hPmrYiM05kcCk52dDd0PgZe2I9QbYLP/TwV+JDD/Z2VwAliBka4ADMxI70HY/p+qAAzMT5UbrmykKwADM9J7ELb/pyoAA/NT5YYrG+kKwMCM9B6E7f+pCsDA/FS54cpGugIwMCO9B2H7f6oCMDA/VW64spGuAAzMSO9B2P6fqgAMzE+VG65spCsAAzPSexC2/6cqAAPzU+WGKxvpCsDAjPQehO3/qQrAwPxUueHKRroCMDAjvQdh+3+qAjAwP1VuuLKRrgAMzEjvQdj+n6rACAOmvrqy+Mrl29mXqkvfkvr6fqpUcGWwAt/+b5aGXSsWk3Fu/zYvwjhrMYT7VIk50+VCrAyiF845l3pgsLWuu6Uh70xG5aunHDaTD/yLsaTOptbK5+TuVhDk/8sJ+AOswH+vwK87wgySB+qry94+vVv64sGHd69zjifFB7hdiF2xb5FDzCzjtbbaO+fbxy1xiF3ocGK5x4WoxfFL3I5vCXt753zF3Yv9bR/I/Z10GrWttuTanuAjQU63k9feOR73ouBKV8N7mJz/3k/+7xwsDrmx6/H/nW6Ep/hVgOGDYHtHV0PVq/pXeQ+vnix7cvv57eykdR7R87S3L9U/utnr3sWMp9cyclK2Xopbm7rCN3a2ha+KzGYf+8hZ1ksMianL7Eov772TuuFNTmpP3ePBjko6pfPDq6Kc3Yufnt11PW55bmzAmfD5kV6OMQtmbfBzv37iYG9n6wjvu+E3n0xvr21+CNnB5AyUfDoz/Db9jy0YfmA6O/uLLl84eyD2xpHoF5d2Nr083VZ6+ebB9c+vZtS8yD273eb+qSVlN4+21Fa8zT/16GLancx91Q+yPz3LzU3dE6gjG+9vVFqQ1lT5kMckgby+jsqbzdVPORwqtb/+ztHVqQuNT652vrkv6OnpHfdPxu33M/BRklLFY+brKxwMnf3+cQGlt/N/rPDvXDybS8t7lsDjcf/x6yBMzsCbTyd/59Z+btuwAcMDwI4+6pWjyYfDnG8kzn+atfbF+cgnJ9e9PB/97OTqjGXO2+013uant1Vml9/a0VDyoLHi0atzu15eTS/K2FN+93JJQdbTnItR9qp5263qnx2vfHia3Pqu6nFO24eXHTV3yN0fXl3eXXpla/HJ7ee2zH+QvunN5fhPz/MfJIWu0P/DQ3GCv4l21taVDQ8uNb64xWHSf/tu/p4G8kCQ1d3GB/91afi1xHvlJ5o634EgSKY3lTec/xr9274PDzB9ZOrbkrL4ZbPiZxMK9znk73A7vdz+ypY5L7J3lVyN/XA/paPs8oVw38OLjFveXGkpy2squd1R+7iqKP1+5t4nFw8/ztr/9OKh2+cy4/1nPE62uHtoXklBWm7CJhskwnnKlIc5F2pLinNj/chVh1mdebSWW/Sut7TeusHm2+8L1uYmLsk9FFlaeLa+/Hl75fPOyqc1b1/yeLzftoe/o2F8Jr0v71JtkM8nk2l9m4Kp1a8Gq54N1pexB3uEpda03nv1IQcEwYbuh9Ut+VA8m0vto3zkA7+hqsMAzCCF2tlLelF45Wbm3jfXt2Z6YWPlEdulEZd9LV9lxudFz3qVvqKtPO/hkfADbrJH5mnUv7pFp/b3fnxcnr3j4fHoksLzT7IzXuefK7l7Y1+Ay25f/R1e+vsWWMyVRtjgEK5jsfELXHYH+Kx3nfHszHJaTexATdpgw43BD8farhmU7CaUpDnUXgt9X5hY+yT7/avHjaWPXhTnNdbXCT1gFAYAEOSBIJfLZbFYLD6fyaDTKt82H00q8bavNFCoN9PsnuNCDpzFOJXCOX+Ydjm15+GlpqpiHosB8sEO8oeHLw6BA+S7FYGvqhL6WZ2PPx4seBteVn+WzaH+fmIOAzDt7R21tTWUnoaOT2/6a+9dni2drIZIV0LslUHslMWlqCKOGSCqri/69GhP6kz5rFWOPe8LaV1lHx+fvpuytOhg8OOze59nJ7WX5VNayxN99ezwCC9FyWVahANLvM9sW389bk16qN1OA+yCP7BeSpNuHwvuq8ioe3Kk4cackm1TX66WfBUx7lGC7d2U4BcXdnx8dLHnw9Oi6xdfPPn9t3f+6rtcEGSBAJXJ6Ovu6Gls6O7t6e7t6Xp2vzF+y0d/t2oLjRobvffOpi2u5j1zHHv9HWnbVwNZh8HdG2nnDxw/OpdW9qi/6nF184Mb+x0Zad7nHstcKfJ/cHtRacXeD10FzdQXjYOvODzmX+sd0THDAAyVSnv+/OW70udNpQXtFXdeHlt3wV/niJ74flXxaKLYcV+Ts0utSrNDeko2XN1oXn0n/c2dU0+u7C+7Gn9n/9LrkV43VtjeWz790QadpzH+sXpisR4aKWvmFx3dU3P3zO2U8L3u6ifcxQ8aiobLiMwRRwZqyF07FNNVfrm26GB5XnJZblLV9djaoqQP9460vTnf8fb8tWN7jyTu7WxvG9G9+O3GAyDIBUEGm0XubOl787wn/1rX3cLBaxcZWzYMZGUMvHjUl7KrI9ivy9e+y8+xc7Yt2cmU6mpGc5vBtjXgORrwMvaBB3bydm5MS9NtztlYkhvz7NrqpNMTbhTJpWQovToWCMavBmM3gJmptJws+pvHIPC73fsaBmBAEBwkk0tKKysqyhuqX3Y1lLRVFrW9zSHVPSLVPeDR3oNAG63jVVHGpq1zZrhOVzLCYPbPt3uU4N9QsJNc96jhwan6+5m3kzZcCPO8e3RHU/V9cmv5hyd5aQEu64yV1xgpb9GZGDoFGzoJ5SshEvTH2DWq0lv9LEsLDja9ulD7IONldnxB8upHZ7bfydqbkbgzeU9sQ92nb3e4kZoSANk8Lm2Q1F98o3N/bE9UGCnEtyfYr3t3FHNvJD/Yjx3ozV67lLFzdW/0Ukbs6sFFbhwHI76rJc/dArA34s2y4rmZ852MOQudOen7wb3bDycoP7/o9eDgvNpkx4QbiL07xFgbl4EHd4J717fFLbi40/xkpH1/5AL+s8J/v1cwUnX85h9U+uENLHv6pOJtRc8Apa21uerl3Xd3zz2/EH/3SERNYVr9i4uxAR6GoiImoqgl08cdsMetnYoIVZE9szm4rfTqYEP+YH0uvevhQOtTkN9OJzW9f3jj5oHdTy+cvRYXu9daf8Uk0SXjEKvlxIOlkUFjEcedpNKCHE/sWP82LyUvNfrghmUpm9efOLA3bff2xEDPh6cP/PCm/WoF8nk8OotBaW/u2xfb427G8DLlBziztwWTUrexDm4BtizlBrhyfW05KxYy5rvS49azMhOYcZFARDBviTvbyZRnqc+1NeSYafDsDbneNuyYZbzdGw5EKJ05rnlz/9yyS9qHryAvbZQtibcqOuZxItMhNlH7eYAhuHI+eHQr53Iak8vi83+f1f/wjDAgCD68fjVp+cpH2ZebaqoGKVQmDyD19bTUlnXVvb2bnbk5aGGQm/1qU51bsY5Fu7XP+6O3qSMCZSVeXNxbV7zzburiOykLK69v6C07Rmt73FP7qOvDC0rnp+ri3OMLPROcjBMdjRKcTbMjV9zL2HMva8+r/NPP8s9eTtt94cj+S0eSz8SsPR4y6+hMrc0q6AcnU341//6x9gAAQCb19TXXD55O4+8OB3atBfeuZaVu7T2whbpnLXP7SkaIL8/BEHA04nnb8F1NOdvWDGYdZN+/wX9UyIsK5hmp8w3UeDM0uIs8uSv8KesCqCcTqbGh25ZN2rFv/IOzwfeLFbPiZU+uVAuNJJzebFK1QvfRbpNbiSZvIvTpK9x5h2JYdVV0Mon/u+xDDhswr4qLN830PLh44Zk1wbk7N77OOf/xzYuB/v6BPhKdSuVyORwui9zfVV/1ovxxzuPs5EeXksseXPv49ubb2yde5p96eze7+vmNupL8xoqi+orid48uv3t8rfJFYcmDm6/v3Sh9fPNlUfb9vIuXDh9I2bhyT8j8zXPdt3iYxTuoxc2QidMdG6czbpuG1NJJmOc5F3+sg/5qpbEY9N6ero6T6f3etry1i9mJm5kZe3v2bSKdSiIv8qTaGHFtDAELPb6fI7BhKRDiy5/jxFizmPv2KfDwFm9vJM/ZmBfsAxRc4hzaw1k6u2upfetK575Lh05scYpdLpUcrhG2ckxsxJSjK1VuhpsMJK0AXa1BzWkUL4PyCP2eeXrA2gWs9Hjqp48c1m9ys2vYgGlraIj29d3rPzc9KOB02NKsVUHnI1dd2Bxxdkv0lb27izKO3j5x7OaRg/lHDz68eu5hzqU7F45fTt59JXn37czUR5czH184fv9c+v3Lp4vPHb1zOuX2mUO3MhPz0nbcSN16ZvOyPX72a2eoL1CUdp8o6iyFdhyLmCWJCCRgVk8XX64xIWia9DI5yYApYsFqk3tam341F/+x9tApg6S+PlJOds8ij25TTVz8ZdIAACAASURBVFpiNLvwPCkjjr1+IeBoDDqbAm4W/DlO/L3R/NMHgfUL+Z7mgKUWY/V81tbl/Jgw7uZl/LePGEVXqNvDGD427dssH64hls3Xbp6nc2L+HxELMDvnSD6epwmmbAFTY8GYUH6IL2A0HdSbDhrpgjZGPA8Tyq4oSns7m8X4se0artKGDRgmg75r6dLNnh4J/r6ZK8Ou7NpzI/nQzbT0nKTUs5tjTq5ZmzrHd5eNebSJ3gptlSBNxVBdpSXykquVxsVMG5OkI5lpPP6s5YSLLrLX/eRvLFTKW6xyZa7clTmTLrhL7FFBBI5F+OARHmIIe1GEtRjSfhzOXVp81uTxs6ZKz5wq7T5JcrbMWO/x6LWWujwOe7ik/zn18rjc7rb2vo/1XdFrW8zVaUd2sJ/e4lxK5buZAuZ6gKs5sMCNv2cT70URb+8GvrcN4DgDsDLgepoxFrtx7uVyCy+wdq/ri1lNCfVjzbWq3WP9MsL8qbtclTWhxEn2SZDCA1vFZhMVXqg3f3MosDkMDJsLzLblusxgORrSrDVp4cso1ZWU/j54SvYDujth3brVjvZbPV3jfGcdW7E8Lynl4cVrz3NvPbl4/UFaeuGWmKxFC+OtrTdpa6xQkvefMsl38oSVcuP2q4ufmzH+iu3EXAfJfCexPGd8gSfuujPmoi02wxS/Uw0Xq4LZpICeJ4V0ERMxxaNMRbGW4qKOUmM9pMfNkhZ3kRKzFsc7S4raiSLWu9j8gGb88kUwafSuxtbu0qrOrBPkA9tYd3P5Vw7zl/sCdkaghzUQ4MU/Gs97VgiEB4COxqCpOuBgAMy04nnbcHwcOAs9mX4OTE8rrodF/xK36mDHj2Guzz11SgyntjpNb1pi/dJtWpW7Ukeo/eC2JX0JYZ1rPfr9Lcg2GhQfa/LujQOlpYMdHVzW73M3ZthGGBAED8dsC7K2jvDw2OblsW+uz8HAgMwNEdf3xN9NPfQk5cCDnVuzQ5amujnvMjbcrqUeoSS3eOofoXLSO9XGp+uMyzIac94Ud8ECc9EKc8EafdYKddoSc0gfvUMFFSWPCpZFL56C9hqPMsEhTfAoM1G0rRjadSzKaxx6pgTWaRzeYpyYPhIRs2DOL+/tP8ZAdu273msXe6pqSW/KGI8fc+/mcy8c5q1ZwPd25C/04AXP5YaHsRfPpAZ604L8GHYzmOb6FGuDQRt9lrspw8FwwNaAEjJnMDKwcb7D+yDPnjl2TdpyXbZa7WEeZQ5a5TOU3hgrv7LRLDOc9t5So2WeS2/STtL9QnL5W1rOWV7Z0x/Thl+jlOEEJiv54GJz87WurjHesw8GLzsZFZ29a3fB7p1Fu2LuRK8pXLHoor/HEUeLJBOdBC2lONWpUXIyobLjo5WlktTHnjEQyzLGnTPFXDBHnzdHZ5qgDumi4tSQe9RQmxWRYQRUsDxu1gS0CUbEBIO0wKEcx6K9pHD+MqLzZER9Jog6SYhqIxD716/5NXrhf24Fv+Yte5U/I3Y9/co5ekkJ7VPD4PsPlId3qYeSBiNWUFYuZgT6MhbPpgXNpe9eS1s5hxY8i7Z2Dn2NH2vLEvrmgJ55dj0B7o3eDu8M1ZvsjchOZjVahAoTpf45dlXe5q8ctN75O5atWFiRENt87UL3/aLBohuMtH3cjYE83xn8B3n/8+b9xAqGE5i806eDrKzCPT03+fjsDgjMiNx0O+3wyzOnyi+eqDyTXJIUWbx2YZaX/TFL3UN6igfVJycoTQifIhEuNy5ZY8xpXdxFY8wlM3S2BfqMMSpVG5U4HbV9GmqNHCqMgAqYgp45Hm2GRxphkGZ4lN0YjJsk1kca7/+H6Jw/8L7SeE9JnD4CcXJf3E+Uejir4g30MWJWs8PmcVYt4sas4xxNZBdeY9eUsVo+Mlvq6HW1jJdP2Ldy2FfOsPIvs88eYeWeZFxIY1zNpN+9ynxV2HcsriEyrH7p3IrFvqX+nuUrFpSunPcuLrpk/9b7cWuexW+oORrffjS+L2ELbdsq7uq5fF9Lvrsh302X42PCb/6t7gsPJzCP8gtCbGzCPT02zvaODViaFh55Kzn59bkTlVdPVF5MKTu69cX2ZVcWuh+3NzxipJyoMWWvouR22bHLJ4qumCq6ZjI2Rg4dNw2zQx61RQ61mYgKl0UFTEDNHoecJYFyHIM0QYsYoUVMsEgLPMppLMbjMzA+E/E+0niv8Xg3SawxEpF36sRwevFPrBsAQXrqDlrALMbyeZzIMGB3FJiyCzh7kJ97HMg5ziu8wL97nXszm3c2g3M0jZW0n75r58DO7T1J+zsPJrceSWs9mlaXtK8hYU/dwfiaA3Ef9kR/2rG6at2SqqVezfNdBuY4sLzM+C5afAd1wF0LcFbjWynwbZX5LprcjfOB3+uZ5eEEpvTZs2Bb27WuLhEzZ25fuPjg+o2XE/Y/zzpenn28/FzK28Mxz2NDry3xOO5kfNhULU5z6hZFqQ2y4ksnjvGVwvtPwAVMwIRNRIdKo0ImopfLoBZKomaPQbqJIe3xyBkYEWOUyAw00hSLtBVFuYzDzJTCzp6A85qAnzUe7ymFc5XEmuJFnhbe/IlOO8xV0U4mkxe5UUL96BHBnD2bwFOHgLs5QPkzoPw1cP8WcOUkkLwdWBcI+HuAnragjQFfR5mrIstSnEJTmkJVnkqdLk830aDbG1HsjShOht02mq1mKl2myuQZSiwzJZ6lEs9aiW2lxLZS4JgTuZZyfCdVvocOb+dy+NGYH9bx9TU1K11cVjs7r3Vzi57rv3/1+pN79hUeO/bizLHSM6kvU2LvR4dcWux51HlGgrHqVo2p4QoTQiaPmyct5iaOdx4nNkcCs0QCM2cs2lscPWssykMMZYNFzUAjjVEiJigRMzTSHIO0wqGcxqA8JDCzxuM8pXAegrEF7yKJtRPHmEuKvi97+8Ma88sXRM0927vIfSBsLi0imLkjAjiaBOZeAp7dB9+VAjXVQGUF8OIekJUCRIYCS7yB2faguQ5fU4GtSqBPk6UpTaUpE8gaSr06Ku0609pM1Fq1Fdq15Dv1lfr1FAZ15ah6RIruFJLWJJr2HyyDyTxLBcBLj++lzz8Y/csL898ZOJwjTE9HR7j37HUuLmvdXKP85sQvX30sdk/2oSN3MjIeHz34OCn21sawcwtnHnY0TjRW3TZ96gYF6aDJ4t4TxJzF8TPH4j3GYP3GYLzE0A6iaAss2giN1EajtJBIHaSI4WdgbLBIVzHU7HFoH0mMlxTOQxLvKol3kMDbSeBNxdA2Uyd2tY2ir/VT793oDvAgrZzH2LScs28rkJECnDsBXDkH5F4C8q8ABVeAnLPA0QQgIgSY5wG4WIDGGhx1hUF1RZKKXL8SsU9RtlNJtlVhaqP85EY1uQYlYosysUON2K0q26syhaQ8uU9ZhqQqTdeS4RhN4TuoAN4mPE8d/vnf7VG94QSGQadvX7JonbPjOleXjd7ee0KWH962Kyv58JVDR/MPHCiMi70RseLcwlmHHUwSjdS2qMuukp8w749xs6TGLJPER4zHBUtgfMQwzni0FQ5thEVrolBqKJQqEjkdidRGIQ3QSEss0mMMap4Uet54jPdnYFwk8baCPWVRPZyIi4oSnfobfsPp7y6YjLdPu5bOIq9eyNyyin9wN3D+BJCXDdy8DhRcBXLOAxczgFPJ/IRoYM1iYJ6b4PaloRpPXZ6mShxQkiUpyPbITe4gTmojyDQTJzUSpzQTJrUQ/miT+6NTflKnwqR2pUndan8MaPxB05HhmBL4LupcTz2OqwY/79Tf2TNC44cTGAAA9q1csc7Jfr2rc4SX186gkLQtO04npZ05cPjC/gNXduy4vG7l8Xmz99qaRuurr1EjBhKk58lIrJER2y+L3zMFt24CbsFYrKsYzhqH0cegNdBoNSRSBYVURYqooZAaKJQOGmmGQ7mMRXtLYmZJ4lwkcfYSohbieJOxeDURxDwL0xHaZ/9/ZrM+VXaF+pLXBbK3rQVSd4MXMsH8q2BxPvigELx/C7idKxhhju8HtqwEgucCfi6AlR6or8JXJzDkZAanSlMJMjTZiX2yE9sVp7QpTG4hSjcRvrwaiNItitLdqhNJGjI0XRmOhRzHQZXhoM5yVuffvfL/Z+0vm2s4gQFBMPvwoZV2luHuLhtnzYoNDDq0ZcepxEOnktIy9x08HrPjyIqV+3y9oyzNVumoL51GWDB14lKZcdFTxkRMEls2QXS+BG6OONZrDM4Nj7HCoHXRaHXBICNgRhkpooJEqqFQmmiUIQ5tPRbrLIGzl8BbiouajMXrj8HLIxAp22J+2V75XxjG6WrtX7+YvGYxO2YNmLIbuHAcuJEN3LkBPrgF3r8JFF0HcrLAzCRwdziwZgmwaCbgYg5YagNmGnz9aexpU5iEibSpEwaIEzumTWlVntKq+EeD0qQ6+T8+TZGqnzKuTU6iV3k8WWMiXW8yy1yeYaVIsVamOKnyXt/7X7RlGMscZmBq3rxa62K3wc1pw0zPbUsCUzZtO7U/9UzykZMJKYdjdsYvX73Fx3e1udkyTfWFCoRFU2WCJ0kEy4wNnCC2UBK/QALnL471GYvzFsPMxmMcMGgDFEoTiVRHIachkUpIkWkopCoapYHF6OBxxmPwluPETMVFDcbitcRwamhkySj7WjKPRh6MWcEMX8qNXQ8m7wTOZwA3LgOCEUYADFiUA1w/IwBm3yYwYhm41BuY4wDMtga8LAF3U0Bfhac4mU6U6VWY3KlMaFMntqgRGlUIn5Sm1hEmNEwZ10Yc1zdNkqI5kWEwlT5DbsBUnmQ1jeyuzf9QOozO/b+oepiB6WhuivabFe7muMbFKWqu/4GI6FOJh84dOn7mwOG0mF17V6zd6D0n2NxisYbGQgW5QFmZ0M/ALB0vtlgSv2Aczl8c5zsG6z8W5z8G441HO2NQpiikDhKpgkQqoZCKKBElNFIFi1HDYTXE8LpjxfTH4HREMRo4jI74mE/VVf8LQX/ZMvk8zsCejYyNwdxdUUDyLvDsMeDGJeB2ngCYB7fA27lgzlngVDKYuAWMDgND5wALXQB/e8DPBvCxBSx1uMqyg/KTe5Vle9TkujTkutQJzdOmNirJNslPaiBMaCZKditJkqfL0PRl+w2IXSbyvbbTKfMs+W2/238XGWZgyP390fPmrnZxXOviuNbVJcpvzr41G47E7s2ISzq0ZWfcynURvv5BFlaLNDWXKsmHEGVWTpEImyQeNEFs0fgx8yRE54rj/cRx88Wx88Sxc8ZiZoqh3XDIGSikBhKphkQqo5DT0EglDEoJg56GQati0epYtDoeq4JGmU6e1NM1uv6FHwCClMNxjIhlvL1bgMMJwNl04PoFoDAHuFcAPLgF3MkFcs+BZ1LAAzHgpjAwyBtY5AIscgX87AF3C94MbbYykaMwia08hTFdlq42hao8qVdxUpv85Bb5yY1yfzTIT2xWkm5XkenVntqtT2w3Vep00B0M8QAo/b/sFeT/z7BhBobNYu0IXhbiYL/c2XmDt8/WxQG7Q1bErVizO2Tl9sXLNnrPXeHktsjYdL6mZrCy/Eq5P1ZPlVw5WTxoAn6RlOh8SdE54ri543DzxmEXSGD9JTBeY1GzRJFmKKQeUkQThVRFIadBLzRaGYtRweNURfFqojglJMJRTZXJ+E2+ofHtHU+/eZUVFcpLiAGPJQJZGcC180BRHnD3JnjvpmDRn3ceyDokuH25ZTkQ7AssdAcWeQJetjxTHa6uGk+dwJObwJMbz1GWpstJ0IlSDAWZHvlJ7fKTWxVkG6cRG1WI9apTWjVkWw0U26w1W611ereuBv/m3/99u82/WsphBgYEwb3r1gVa24Q4Oq3x8o4NXZkWG3cq6dCJvQcORsZsW7h0tYvHYhNTPw3NQBWlSKUp0cQJG6eKr5IRDZ4gGjQeFyiBXSSBDZTCLBuPCZiAmS+O8sIhrVBICzTSFI2cgUEaYVE6WIwWHqchilcXw6uK4tREcfIIxFxL81+tJ36CPay6930h/szt4UD6QeD8SeDaRcG28u0bYHEB+BkYMCsNTIkFt60CVs4Hgv2BBd6AoyXfRIdvpMrXUeBM+4M5TYapKsMkjmPKijOJ40lyMi3ESa0Kcs2qyo0aqk1a05p0lJpnTG+w0mmw1GbmX/4JjfrJVQw/MGk7di62sl7m6Lx8pteWpcEpW3dk7k89c+Bw+q6ExHVRm+cvCbV1nKur5640bb7c5Eh5qfCp4qHSYkvGiy0cL+orgfMah/Mbj58vjQ0Yj/YZi3bEoBwxKGcsyhmPcsAjbURRZqIYPVG8lqiopqioOh6nLoonIhDLZ3v9ZKF/her4A32UqDBa5Ar+4SQBMDmXgZu5QPFN8F4heDsPyL0AZB0GUncBu8KBTWFA6ALQfzbobAuYaPH1lPg6CvzpsgwtIlVPnq40kSorGGR65aQbCX+0KCl0aqu36GrW6WvVGmjWGWjUmen0eDvwSp/9Cq3+sTYMPzBnUlLnW9kssXcI9Zi1aUlQ8ubtmftTTyceyti5N3l91Pb5AWvsHBfo6HlOU3aYMsV7yoQVU8SXTRwzT0rURwrvPg7vLiF45sVbEjtzDNoRh7bFoOwxKMfPwLiIopzHoJzF0dZjMUZjcLqieC08XlMUT0AgYsJCf6yOI6I0PoPOTd7F27WRfygRSE0ETqYDN3KA24XA/WLgdoHgPua5dDB1D7gjAohcASyZA3i5AfbmgL46T53IVZHlKE1iqkyiaxKoKn9QFCb0Ece3yk9smTa5VVOx1VDzk4Fupb5utaFes5lRu4Nl5yJf9qf3I0KW/8rI4Qfm+pmsuRbWC+wcgtw8Ny4K2B+5NXN/yrmkQ2d2x6dt2LR3UeBGB6cgPQNfZRWXKVOspSe4SUv4S4+dLSnqJinqKiHqLoFzH4d1FsPYY9G2OLQ1Fm2NQQmwwaGcRFGuYwUPkrlLYR0lcebiOD0xHARM6o7t/5VMv0digMfjZh4DEmLBjDTgdCZw5hRw6SJw7SqYlwvkXQeuXgJOHAbit4HRa4BVgcCcmaCDNWCix5muxFScSpWfPCArQ5KfOKA4sUdhYq+STIv8xHrFSbVKU6pV5Wu01Cr1dKtMTD7YWNW5utT7zWmLDGd1dfweug1txfADczfvxlwrm3l2jktc3dcvWBQfvulkXNL15NTLe/ZlREQnLl66xdFppaHBAuVpnlOnOMpIm0tJ2kiKu0iIOo7Du0iIuo7DOYlh7PEYSxzGGoe2wKDN0ShLDMoSh7IRRTmOQTuPw7iPx7lPwDlNwBqNxU4XxRERiMsZ6UNVGD1h7q0C/rHDwKnjwIVzwLXrQO4NIDcfuJ4LXM4WIJS8H9gSAaxY+nkyZsefYcTU1SSrKZKUCL0KUzuJkzvkJ3UoTm5REmwof5pGrFWWq1SWL1dXLtXVLjU0LDe3qHByrVwQ8HF9ZGtaGud3fPJo+IEpefZsnq39PDvHxU6ua+bOT1i/8eLe/QXJKbl7489GbjoSuHSXi8t6I6MAVRVv2alO0hPMx4mbjBWbMVbMeizecSzOSQxnh8da4HDmWLQlFmWGQZmhUeYYlBUOZS8q+KKl8ziMx3is50Sc60SczhicKh6rgEDcz78xeiAZ2lJ2ZQ0r9yYnv4idX8S8UcQsuMPKv8PKu8W5ksPLOstPO8TfsY2/Mow3by7P3YVtaU7T1yNpaXRNV+6YrtKmqtI0XbVRa/pHbc1aPZ0aI/1KY/0yA70SQ8NnRiZPLWxeOnmU+i+pXBf1MSG5ueDmb/mbCMMPTN379wFOrvNtHRY7uaz2m5eybsONhH13Ug4WJuy7Hh19elnQAXe3zcaGK6erz5syeaaMtP90dVtpaR0cTg+PNRbFWeKxZjisGQZthUXbYFFWaMF8zAGLdMEj3ccgPcehvMajfWSw3pNw9tI4dTxOBYdRw6ArXr8a6kajJ8zs7Se/rqS+rqS/qaI9L6M8KRm895xS+JCeV8S8fJ114iQrYT8rahMjOJThv4DmOXPQxq7fwqrDxLTVwKhRz+CTkXGtiWntDIsaS5tKO/tSO4cSG/vXNo5PHd1e+i4oWbqiPHxLVVxi7dnzza/f/GbfhIGcZPiB6e7oCPPyEQDj4BTuOydz/dpb+/c+SEu+n5xQtD366oplGV5u8eZGGzVUIo31Vxvqr7ezWWZmOlNdzVxGRh+P00MhjZAiFmiUHRbtgkO5YFDuWORMPHKWGHK2ONJbEuUrjfaVwc6ejDWSwKnicNMwSD1JiZaG+tEDydCWclisgfYe0qc2cl0Hpa6dUttCLv9IflU5+PANpegR9dpN6omz1IQU6padlFXhgwHLB/0Dejx92xw9mqycGswd6u1cPzl6fHCaWePp885rTqXvwtLZ817OnPtyzuI3K9eXxuyq2J9cderU+4KC9qrqofX+NuHhB4ZGoYQvWLTAxn6pg9N2P5+s9auKEnY/PnzwaVrSgz1bC9YsO+vjcsjKcLee+j4nmz3uLhE2lqHmMwLMzRbMMPHR1vKQl7MdL2WBx1mgkbZohBMG6YFFeuKRXgJgULMlUT7SaN8/MK4yuOmigvmYogjCWo4wODDw23Thf9UQLptNGxikkSiU3kFyB4nc3k9u6iHXd5JrmsglNeTHbwdvPxm4cKMv7UxPwpHu6LjeDdu6QsNbF4Q1+y9r8V/Wsji0YVHYx/khtQtCahaF1SxbVRG0siRk5dt168u2x1Qk7a/MzKi5fuXDvbs9db/nJWn4geFxuVtDwuZb2YY6Ou7ym31qzfLCfbueHkl+nrbvSfzW2xuCs/3dTjgYJ+or79KdtklXbZ2J/nIr8wBzs/kmxguNDJeaGC01Mliso7VAU81j8kRTBMLu65TMcyzSSxLlLY32/gMzQwKrgsOp4gQLGE8drd9yev0t5PC5PCaVyqLSWVQGk8pgDNJpJBq1j0JuJw00dJGqGvpfV/c9Le++/az/VUX/wxftpy417z/SuGVfY+TO5o2xTRu3N4Rv/bguunZtVM2GTVXRMWUx20t3bnsXH1udHFeVfqD6YuanwrzGJ49Irc3fYs+ISzP8wIAgGB+xcaGVzXJHhy1eXkeXh97YHfvwUOKztH3P9m25HxlyY4lnlqtJqqFSqq1BnJ1poJrSLHmCj7pagJFh0AzjEBODEEO9YAPdEBODJXoa1mKipiIiFmikBQZpi0c5jEG5SKDtJTHT8VgVHFYNj5VDIAIc7EZcP/0ogwE+n0WjsekMDoP59cVi0ZlMGpM+SKf2U8jtvdQeEotCo/b0Uzp6yI0tvaXv2u88bLyc03DqXMOxE/VpR2tTD1UnJ787mFSakvg2Oa4yKaYqeXvVkfias2kfc7Ka7+Q2P39E6fk9H9X7JYA5vGv3AkurEHv7cM+Zh0KX3diz/X5K4pPUhCf7tj7YFHZzqeclD5M042mJZlpxnk7rHWwCDHQdxcXsxce4TZLxUyAuUJ0WpDU9RF8rzNTAQWKcEQIx4/NzMWY4lCkeZS6G1hPFKuMwqjiMOg5LRCDC5/n/KP8bceUAAMCi0SFguEwWl8nisdhcFovDZLGZbBaDyaQxmBQaUzAE0RhkCr2PROvpGezo6G9o6K2q7nrzuu3hvY/XLlafO1Fx5kjF0bj3ietrDkRWHd1Tc/rAxyvH6vMyW2+daXn9jD7QN+LE+RaDfwlgzqWlLbCwWmpnH+7unrlqaVFizOOj+58e3vdg7+biyNC8QM+LnqaHZqhsN1CNdrFfZWO5wdZyviLREo00R4nYieF9CFO9/5Dx/WPi7IlSVmiUqYiIEUrEEC1iiBExxCJ1cWgVLEYIDAGBSIgI/xZpftc0LDrjCzOfgeEKgGFzPr/YTBabzmBSqCwqldbfT+3upvf20Pt6qd1d5Pa2gZamgaYGUv2H1uf3P+Sfq7mSXpOxqzY1qurYzsrTiR8upjZcO9J6LaG9MKO5tIRJJf+WAv4SwOSfO7/AwirQzn6Tp+uxkCU39mx+fGz/y/R9zxK33NkUmhPoedZzxj4TtTXaKhud7NbbWm6yMVtupOsohrNEIecqyK01M15tqLfOWHfOREkbBMIWhbT4/I9j9NAiOhikJhajjEUr4zBqOMx0HEYOgTiZuP+37MtvbBRbCAyDyfk6yHwBhsUUAEMe5NDpLBqV0d832No80NxAbmkcaGkYaKkbaP5IbvzQU/O27m72xxuZtecOVJ1OqDyzv+Z88qcrR5ryTrXlH2l9mNNSUcJm0L7RnpGV7JcA5klh0SIr62X2dhFuLimBC67GRN0/tO9Fxr5XqVuexIblBc/KcDPdbKAeMl1xo4PNZnurKGuTCOsZPpMn2uMwYXraq4301hjohM/Qmys9zhmBcEOLuGAQ9hgRC4yIIQY1HYv+AgxW8NUxRQQi/9zZkdVJP9ZaATDUL8sYNlMwGeOxWBwWi8fmcFgsNp3OGiSz6VQ2ncKmkOnd7QMNtaRP1f2fqvsba3o/lvVUv24rudfw4Erdrazaa8eqL6VWXTxYk532MSez8daF1rtXm188bKt6y+OwfqzZv0hpvwQwla9eBdnbh9nbrXd2il/gfz4q/E7S3oeH4p8kbXm2a3nBcq9DLuYb9KcvVZaLtrWIdbTaamUYY2OyWnNaoOzEjWYGaw20NhhqbzTW9pMQdRNBeGBE3LEi7jgRF1GkIQ4loAWLFtyvxGKmYzEqCMTzO7d/EfWHxQw2k8X8DAybwfy8jGFy2Uwum8VhUNkUEodBY1PJHNqgAJjBARapZ7DlE7m+htJWT+tqHmz7RKp/1/qqsOnhtfqic7V5x6uuHam6crjqWnpt/umG25daHha0vH7S8b6Mz+MOS+v+15X+EsA01r5f5e66xskh3Nlh9xy/0+vX3YrffT9576N9mx9uC8sL8drnYLZOT2OlMnGbtUmSh02skcpOc52dlvrbZmhvMdVbpiwXaaQVaajhNwbjiUJ4VN3AHQAAIABJREFUYgS0uOJELHBIFcHXLVHTBMwIgFFHo3RxmA/lZf9rWX/l8jksFpNCZdPpbAaDy2RwmAwOm8nlsDiUfja5h8OkQ8BwGBQOZYA92EvvbBpsek/vaqF2NlI6Pg3UV7S/vtX05Hpd8YX3BSff5WZUXD/6Lvf4+5tZdcVXm57cbn77tPPjOwD4LW/0D9+Pwg51qZ6O9k0+XhtdHaLdHOPn+pxYszp3187b+/bc2RV9Kyr01EKvODvzTXrTY6ZPPeqkm+XvuMtAcauO/F574x2WBpF66v6TJmw0N1ivpzYLj3RDC4YXZ6yIEw6pj0UpoVHTMIJBRlUwH8NqIEUsJ0h0t/yetwiGSvofwhw2i0kZZNNpHAadw2SwWRAwTC59gMukcZh0DpXMoZK5DApnsI9N7mH0tjE66hndrZT2OkrHp/660rbXN5ueXv9w70L1rVMVN46X5x6ruHGi6lbWh7vXGp4XN7190l1f8x8MGNGnfokRhk6h7AmYH+Vks9XNLn7OrMzVK67Fbr+xe9f1LVHnV4Yem+OV6mCxy1Bjp/bUE/Yql+ZYpFgoRcqNibM12GNnvFJOxm/8uOUG2gsUptpjRGzRSDsM0gEr4oBDaqBRymiUiuDb/Bh1HEYLi9FEIGYpERlUyojus+80nsdlM6kDbDqFw6BxmXQOi8llM3gcJo9F57LpXCaNSyVzKWQeg8oh97D625n9ncy+VlpXE7m5htJZ1/vxdeubgqZn1z7cO19VdKo8P6Ms70h5fkZl4dn396/XvbjTWPK4t+nDdxr5y2b/JYDhcjnJq4KjHK1iXKzifT0yV4Ve3741f/eu65s3XVwRemKuV4qj5V5jzc3qhD0miulu+odspu3SlomePnklcULYJMkgwh8Bakq+kyfYokVsMCgbwZOXIjMwIioolAoapYZBT8dgtDAYPSxaF4FYZqIN/qazhW90Mj6Py6SSPwND5TBpPBaDx2bwOUwem8VlMwSDDJXMoZAEIwy5l9HdzOzvZPS3U9o+kZsqqZ31PbXPW97kNz6/9uHB+XdFJ8sK0kvzj5QVZFQWna15kPPpxe3Gkof9bQ3faMyIS/ZLAAOC4JFN4eH2Flucrff5uJ9Ysezats15u2Jzt0ZfXhly0t/rqLNlipnmbo2p243UkmbZx7uaxbmaRZhqL5s2ZbOFfrS5/ioDzdkyEvYYEXvBdy2RTngRLaSIOgo5HY3SxKC1MWh9LMoEjzJGIDbPdBhxnfRjDebzeUzqAIs+yGFQuQJg6Dw2nc8eAgxtkE3uZQ/2skldjPY6elcTvatxoKGqv76sv7Gyo+phy9uCphdXPz48X3XnZNnNjLcFR0tvHi+/nVX18PrHF7cbSh6Qu3/bf1r9qwBzYveO1TbmEQ5WO71cM0IDs7duyt0Ze31L1OVVwWfnzz7tYZFurblPhxCrrxjjaO1NnDRz6kR3mfEB6orrzAy8pCWdcShHHMoJj3LCoXzGIi0wIppIEW0UUhuN1MWgDD/f8rcRQ1ogEAdCF/5Y/xtxpQEAwKQNsGhkDoPKY9H4AloYfDaTz2bx2HTu510yFrmHQyVxyL2svg56dzOl+aNghGn/SGqp6ai631pa0PzyWt3jSzXFZyoKj5feOlp2K6PszpnKh9c+CIC5T+3/PZ+LAcFfY9EPguCltEMhlmbr7C23ujsdWrroUvTGnJ3brm2OurQy+MKi2RdmW6ZZa+3UJa7SIK61s/KUJywy1FugqbZEQ3mFia6jKMYeI+IkhnbAodxFUa6ign+zpIcS0UOLGGCQJjjBty9tRZHOY5FWCMTJbREjzsV/uMEsGplNJXGYVB57KDAMwTKGSWPTyJ+BGWD1dzK6mqlt5ZSWckpXc29DRXfN847y2+1v8zpeXmx9eqbuwcnK2xllNyFgBCPMZ2AeMMi/53MxvxAwhRfOL7MwX21rGeVsn7R4/sWo8LydMTlbIq+uXpYdMPvkLMskS+0ILfll06aE21v7TpP3UpJfbGTgP1012EDHQ3LsAkVZj3F4JxzSFY+agRQx+PyLF0ZoEVOs4Cdi7EWRLmORHhJIGxFE7uGkH+5/I65ANoPCopI4jEEeRzC8QGuYz8uYz2sYOkUADIXE7G1jdDVTWqsGG5+Q2z91VD3vqHjQXlbU8Sa76/nxjqfH6h+cqCo6XnbzWNmt4+V3zlY+yvn44k7j28ds+m/7swi/ypTsRVFhmLXFahuLjY62++b5n9qw7tr2LXlbNxaEB2cHzs6cabnbXCdCW3GF4sRVxrobHGwEzyYb6MydrrrMxCDM1DDMUNNNDOWCRzpgkKZIpClKxBwtYokRscUjHUWRrmOQMyWQs8eLOGAQj7LPjTj//uEGs5k0Fp3MZVJ4bMECRgAMm8XnsHicz4OM4JZlL4dCYgtGmCZ6bwelo36g7UN37avu9y/by4raX19pe3qy6dHJD3czKwoFI0z5rRPvis9XP8779LK4ufzp7/Q7438S/1cBpurl8w2O1hvsLDY62uyd63tm3epr2zZf3xyRt35ZbvDs47OsNptq7zJQWKcqE0SYsEJLebWZYZC+lp88IVBfx3eagu0YUUs00gGLskch7VFIRzTSESPihhdxH/P5i8riyNlSSO8JIk5iiIpHd/8kwSj8yGHSWbQBDuvLlAwChsdhCQIsOpdBYVMEd2C4FBKrv5Pe207paBwU3LX80Ff3prW0sO11TtOzCx8fnq26fbLsVnqpYITJfHf3wvsn+Z9eFbdWvfpdb/P/QlOy5g/vY70cY5zMNzta7fGdnblqxfWYTbe2RbzYEXJ7rU+Cm9Vuc+0EY8UtmpPWK0gGTcQvnID3kxrjKYZ1E8XaoUWs0UgbDMoVg/TBiviLIueOFfETR3qNRXqKI70lkD6SyLnSKJ8JCBcpVH1l+Sgk5E9N5rAYTHIvh0GB1jCfgRHc7OexGVwWncOgcqgkFqmT3d/JInXSe1sHWxvIbZ/66ks7y691lOW3vclren7548Nzlbczy24dKy04Wlp4suL/sXcdcFEc3/9dodc7OI5ixd4LYu9i12hU1Ng1ijWWxIjGxCQaEzW/qLFjLzGJ2HvB3gv2gg3pHY4Od0fZv2/mblluEbH8DWX3sx+Y253dnXnzvvPem3nz5sy/AZePvLjhF/PM3+BzpelncZEwcZERvw35bEGPlj92af1r/8/WTxy/a84sv4Uz/f+YsOXLfou6t9vQuf7a1lUWNHCaX1M+p5LFdCfjiXZGX9pKh1lKPjc36mshHWktGSUTj7MXT3OSTHGWjHbE3S07WYh72Eh62YgHKCQ9baCrk018RKkd8Sw6X2Zp1RmJMeqUeB1g1KiSZWszs8j0JQImTaVJjFHHhGVEBae8Oq96djH22e3IJ1ej7h+Pur036qZv5NVtIRe3BPhtvHds3Z2j6whgdgVePRR1+0RwwP3n8doboRm3wzNCkzS5pSu8cnEBTFpK8h/jBv/Uo+W8rq1+7ddj/YSxf3vP9P3+6x3fjP1jUN/VfdruH9BgWesqCxo6za9tN9vV4pvyxjOcjGY4SqcqpBMVRtNdJDNdJN9UkHxbRfxtNcm48pIOFmI3Y3Ebc0lbc0lHS3F3maSFMfSuUi6zbE/zU1BlZ2kzU1XqlPgsopVlq9MJYNRZ2ky9hElUJ8ZkxoanRwYlB9+Lf3Yu6pl/5KMrkffPRN0+GH19S/TVtWEXNzw9vfHecQTM/RObXl746/SZ03P3Pv58W3D79SEt1wS1WhvksTFklG/EttuJqZrsouO5OOcsLoDJyspaPX3M3K7NZ3u0nN+32+qxo/6eNWPHzOnrvEatGdhnz6gOuwY3/t7NdV4Dpzk15TMrW0x1MZnkKJ2glEx0kExyls6tJv2hmmRuDckv9SUzXCUdrHBbpQbG4qamkqam4hZm4tYW4loAQ5s2LH3x5N+DvXKys9CGyUhhAZONE5foI4Mz/aiSJWpUMZmxYZmRr5JDnse+eBgVcD3q8ZWI+2ejbh+MurY98vKmkAtbnpzaePf4ugfH1jw5tWHxnivtN4Q1Xxfefn2ox4aQzhtDPDaGdNoQ0nptsNuKVwP+CrsZVhq2SygugGEYZsPcaTM7uc9o3+K7np3/GDl804ypf30zdYvXyPVf9Dk6udOfPRrObuQ6r77jrOq2MyqZT3E29VIajXMw8lJIx9hJRzpIxrlIvq4mnVNT0sNWUkmMO8PUNhbXNZHUNRY3MJE0NJFUBPDq3uU92Kv0PZKbk42AycwDDLqTaTKoL5k2M1WbkqgmgMmIeJUU/DTm+b2ogOuxdzZH39kdefto5PVd4Zd3Bp7f9vDU+vvHVz85vmrW39fd1kV3WB/aZWMIixaPDXnpVmuDW60NPhdY4leVFSPAbP3tx4lt3Ca2bj6tc8f5Q75YOXmyz9Qpq0aPXDesz44R7ee2ajCzQWXvOspvqsomlTcfqzQZpTAaaScdKTcaLZcOl0n6WmNQpW7WiJZKdO8xI9xNydVIUt1IUtNY4gQwc/jQ0sf971Gj3NwcTVqSJj1ZiyPLadmatCx1BooXdYYWHZZTtCkqPWACE4MCop/diXxyK8p/a/z5ryL994Zf3xt8+e9nZ7c8OOnz4sTSJf/61VkZ3W1zaMcNIW3WBbf3CW7rE9yZiJcO64O7bkI50359cIvVQZ02hAQmlOyFZcUIMP+sWj6yWaPRLZuPa9/O23PgovETlk2c/PuIkYv7957ftc1X7vWn1K08uYZyXCXZCEfzofYmX8iNcEtxa+kQG8lQG8lAS0l3M0kVsdhZJKooFlUWi10l4opScWUpOvlXkYrlAPOnT30P9ip9j+QyuZr0RC0FjBoBgy6YeKYjYHAljEqtis6MDU2PCEx89ST66e2Ix1cjH16MvrU9+s7usBt7X13a+fTspqcnV/kd3NJ8TfCSCwmBCZrHMRkT90eefpE6bm/ErGMxJ56nHnyc0ntb2OXgtKH/hq+/kbDwbNy4vRElmp7FCDBnDx8c4NZoUPNmw9u0nda3/09fjl/oNXHe0BHf9ur1VdvWYxvVG1Or0phqToNcZJ/bW3xma9LL2riPlfRzC6PPLcT9LcT9zCRNpWInkchJLCovFlcUi8tJxM4SSXmJpLJUUkkqkQH4btlcolvrIxZek5GsQXeylCziIINOMer0PMCkJhDAhGUgYAKicYjsStTDczH3z0TdOxp2Y/erSzsDTm8KPLF89vbz/f6Nj03TjNwVseRC3NPYzJjUrOgUzfbbifejMp/EqNv5BG+6pQqIzQyIzfzi73D3Va8eRpVgY6YYASYkMHBw69Z9mrgPatlmfK++s0eN/f7L8V8PHjahR6/RrVoNrl+3f3XX/hUd+zjKusksPKxMOloYdTKTepgaeZhIuprgMpgKYrFSLHIQi5zFYmex2FEicZRKnaSS8lKpi0hcXix+ck+YhNGBLkuTQbxjUrIz0QWTCxj0/Md5GDT6WcBEPbkc9ehs9L1TEXeOhtzcHXjpr6enN909urb3+ifjD8RGJGsar3g1yjciKkV7LzLD70UKw+ReDk6/F5nZeWNIq7XBqZqsHXdUTVa+cl8VtPZ6Cd74shgBJj4+fliXbr3c3Ps2bzmqe++vR345a8yEqYOGju3Wa3DLVr3q1fdwde3k4tTRQd7GxqKFpWkzc5NmJpKmxkZNjaXNjCTVJGKFWOwgFitEYqVE7CCWOEgkSqlUKZE6SSRKgBo21pFhwiSMDjC4jCwlXpuejIDJTNP5+aNKlqrJSNYSCaOOQ8AkBT2NeX43+umV6Mdno+6fCr9zJPim7/NLO56dXn/60BaPDcFtfEJOPU95FJ0ZnKheeSXePzyj346wMy9Tr4akB6nU9yIz115XnX2ZNu9UbIs1QS3WBH17NOYjispP/KpiBJiMjIxR/QZ0bdykt3vzQe06TRjwxYwRY6cMHD6qWy/PFq07163XqrKru6NjIzt5I2ur+mam9UyM6xgb1TKS1pJKq0okSgIYhVhsLxYrxBJ7icReLLaXSBQSiVKM+ljjShUz0tM/MX2L7efIyHKCJj0pKyM5i10YQ2wYAhgycRkXjsPKwc9iX96LeXo15sm5qAenwu4eCbq++9nFv56fWXfowM6OG8I6rA/psD545rGYCfujmq0KGvBX2Ofbw7psDOm5JXTM7sjph6LH7I784p/wPtvC6Cjz+H0leKOlYgSY3NzcKSPHdGzQuJt7835tOozq0XdcnwGjuvUe3K5TnybNPWrXa1WpspvSsY7crqa1dXUz06qmJq7GRpWNpBWlUhcpAgMRIhbb6f/KxWIZ+amQSCwBOjV2K7bs++kLlpubrU5TadOTcWUlsWSyMnE9WVZmqlYnYWLUcWGZUUHJoc8TXj2Ie3Y9JuBC5IOTIbcPv7y2+8m5bY+O/3lw94ZOG0I7bQhtvTb47Mu0ZZfj263DsWNtTk50qnbKwagv90S+iNeEJWkjkrOohGm1NmjKwRK8WqYYAYZhmO9mzGxTt6GHW7O+bTqO6Tt4wqARo3sP8GzbqXujJh1q1GlRvlJjhbK2rbyKhWUlE5OKxsYVpdJyUqmjBHEip6dIJBOLbQlUZBKJTCKRi8UKicQcwLNr10/Pl8X4i3SgDINd6PUxREtWZgr6xSTFZsZHpEe/Sg55EvfiVnTA5aiHZyPuHQ/1PxB47d+n57feP7H69qHfz+39s9emwA4bwtqsDYpM1v51J2nfo+RkdfbMo9GHnqREpmj+uJjAMDmrrib8cTFhxK6I9j7BzVYF/XI2rhiT5S1FK16AWfTTgla163ds5N67VbsRnw0YN3jkqH6DB3r06O7esk3Nuk3KV6pvr6xuK69sblne1NTFyNhJKlVKpfYEFdYikaUILAAsRHgiZvSAsZdIjAGmjBr1FmKUsduajEQtOvmjYMkhQ2Q4UKZJ02YkaVPiNQlRmbEhqeFPE176RwdcjHroF3HveNidw8E3dr+8/NeTs1vunVj34MhSr223W62PbLM26FWCxvdBckSyZvU1levil01XBfXcErrwbFxObm5EsjYsSTvCN6LtumD3la+OPi3BQUiKF2B8VqxqUatu+4buXVu2HdLj8y89R4z8fPAAj+7dm7ZsVbNu4/KV6iqU1Wzlla2sy5maOZmaKo2N7aRGconEViy2FIkoVFjA2EokNggbsZ1YYgTws/fsMoaIt1RXk5mswdBKKbhQmQJGk56jTadCRpsYo4kPz4wOSgl9lBB4O/rphchHp8LvnQi+deDl1b8Dzm27d3L9k6NLN/jua74+us3aoGCVZsedpJthODLWzifk+5Ox9yMzVl1NyMzKWXQ+/qfTcf3/Cmu1NrjPttBkdQn2KytegPln2/bmNeu0b9ikc/PWnl17j/586Ig+g/p36t7ZvUXLmnUblatUW6GsKpNVtLB0MTF1MjZRGhnJjaQUGAQwInMRnhYikY1YbC0WE8CgVmYMsHbp0rdwUBm7rc1M0aQlIGCohCGLyXLQnSw1Ky1RmxSjTYgggHmcEHg75unFqEenw++dCELA/Pvk3PZ7JzfcPrrq7tEVI7feb7Q6IjxJs/Nu0uC/w1LU2drsHIbJ/etO4uzjOCAWn54Vn571v4vxVZcE7n5QsoOUFy/AHNyzp3HVmu0bundyb9nPo8fIPkOG9fbs17G7h3vLlrXrNSpfGQFjK69gbulibOpoZKyQSmVGRjYSiZVYbIFQEZuByIxgxlostmIBIxKbA+z+S1hrma9L0KrT1OkqbSYZWSYShiyMYQETi4CJCU4NDUh4dTv26aXIx2dRwvgfeHF11+Pzf907udH/6JoHx/48dXhH141BQ31jhv4b3nx1UL8dYT/5xU0+ENViTVCfbaFTDkRNOxw9/XB0pw0hs49Hl3Tn1+IFmDMnT9WtUKlVnQadmrT6rGO3Yb0HDenl+XnH7p3dW7asU79hRddaCmVlW1kFCysnExQv9lIUL4gNidhcLDIViUxEIjOx2FQkspKghLGlZoxIZAtw8vDhfPxS5n9kadLV6YksYEjsmIwcTYYWJUySNilWmxCJgAkLSHh1J+b5NQqYIP9DL6/tenJh532/TbePr711dE3AqXUnThzutvFVw5WhnTagL1mLNUGt16I7WccNIa3WBjVZ+arWH4FzjscQyVOy6V68AHPr+vU6FSo2rOTarlHTvp26D+s96Iue/ft06OrRpEWLWnUbVKhc28HRVW5X3sLS0cREYWRkJ5XYSFCSIGAIWoxFYAqIHAtUyUQUMHYikZOx0cN7d0p2W33s0mdnaXBkGVWyVIxOhsvI8MTB5XQKGGL3hz2ND7qLgHl0NuTuiVe3Dr64tvvJhb/v+W3yP77W//i626e2BV7effvS8XkHn3XZHOG+8lWzVThB2WJ1kPuqIDozs+9RCTb0uYQvXoBJSkrs2bZdTUenNo3cB3XvO6rfsGG9B/Zp37WjW/PmNes0LFexpr3SVW5Xwcra0djEwQjNfWuJ2FIsshSj6WIiQqiYEcBYikVUwsjFqI91a9FCq9Fway6kmVwmIylWna6ik/1kGRm6k6ENk56oTY6jA2Vp4c8Tgu7GPLsa+fBc0J2jL67vfXp51+MLf987vdn/xHr/ExvvnNp258y/Ty7sy1JFRKRk736Q/Ou5+FnHYr47Efvn5YSzL9MytCXYyjfgk+IFGIZhdm/fWl0ub16rwWcduo3sN3TU50P6dezeya15i+q1G7pUqIkqmZyqZChhJFJiqyBgzKg+RmwYS7HISq+P2QA4mxlfv3DGoObCT4ZhMlMSMpNjNalkMVkmChkamowAJl6dEKWODU0Lfx4fdC/66dXwh2df3T7y9Krvk4v/Pji747bfxpvHfK4fXnPl8No7Z/4JenA9S6st9VQtdoC5euJQlyoVWlSs2KGBW+82HQd2/axvu86dGzd1r1ytjtKpisyuvLmlk4mpwsgIB8eoAUMlDMGMKVr8YCnGUTKcwRSJ7KXiXvWrpCeWYP+l/z8upGuVNemJdHlMFoYnT0NPmZREdVKcOiE6MyY0NeJlfPCD6KfXQx+ce3HryMOL/9w9vfXG0bWX9y274Pv7pX3Lbp7cFHD9WHIp3QXWgPjFDjDxMZHju7dtJ7dqX6NO39bte7Zo275uQ7eKrjXtHKrL5BXMLJQSI7lUaksGwSzFYiuRyAqnLEVmIjAVgTmqZGAFIjsywe8gkcoBZo8bWVq3KzFozvf4mZ2l1aQnZ6WnZmMkfwwZo05JyFDFpkSHJoY+i3/1MOaZf9ijy4G3Tjy+5Hvbb/O1w8sv71tyac+Sy3t/v3poxfXjG+6e9Y14+eg9Pl0SHyl2gGEYJuCe/8CWDdtWrjRnxJe/Tpo6u//A0U3cujorG1tb1zIzrWJk5CSW2IHYEsQ2IrGNSGQrEtuJxAoQVRCJK4O4klhUTSquZiR2AbAG6NGmTVRkCfb2+wRclZuTgzsrZaRnaTKz1RmatKSstOSM+JjkiMD4wAdxgQ9iX9x/6X/80aV/H57bfvvUhhvH118/tuHKkfXXT+x46n8uKa4E+4a9K3mLI2Bwqis25s/5P0wd1O+XsaN3Tpv0z/B+65tVGWAMU1zEf9aU/FZZMrO8ZKqL+HMbUVcz0UAzkbdMvFAh+sUOZsuglxSaANQ0gt7N6+/wWakRbP2iMUVubm5Odla2Rq1OT9GkpWQmJqTHxaREhqdGhadHR0Q8uf3s5tknV4/fv3jowZXjz+9ejngVkJ5Ssmchi0aYfLmKKWBoGWOiIs8fO7B3xcIFowdOaV6zrx2MsIevHeE7B5guhxHm0MMYehpDHzEMs4CpzjCuivFot3IT+nb589efbl29lJOTk6+uwo8iUwDBk5OTnaXVqjNxl7L0tFRVXIoqNi1Zpc7MKMv6bbEGDNu+ao0mOjoq4MGdS34njuzauXvDql0rF+34Y/7OZfP/+XPhkU1/nD+w/eal0y9evkhKK/FxSdhaC4liSIGSAZhiSDihSGWTAgJgyma7C7V+TwoIgHlPwgmPlU0KCIApm+0u1Po9KSAA5j0JJzxWNikgAKZstrtQ6/ekgACY9ySc8FjZpIAAmLLZ7kKt35MCAmDek3DCY2WTAv8lYFQqVaD+8Pf3l8lkixYtAgCGYbi3AgMDVSoVAPj6+tJbfpyDYRgvLy8PDw96y59zcJ9iGMbX19ffvzRvv1g2OfgT1/q/BIy3tzfoDz8/PwBgAePj46O/A66urlzW9/PzcyOHTCaj6GIB4+fnJyMHgOFTDMO4urp6e3t/Yvr+t5/z8fHx8/OjXQnb4wQGBnI6HD8ubdnS+vn5+eY/2L7mTbcCAwO9vb1VKhX7Ei8vLze30hZt9D8GjIeHB4WKAWBYont6enp4eBTYqCy6WMCwT9GmMniqDALGzc3N09PTADCUbq7k8PT0NKASpaGnpyftldi+ib6HYZg33aItGBgYSIX5okWL6LNso5SORHEBjKurK1fCUOKqVCqqp9FGdXNz8/X19fPzo43NlzBeXl6urq70Ou3tAIA+RSWMp6cnR2Xzp61bOhqSXwtKPVdXVxYwnp6efn5+bEfDEpkVPgYvUZEjMDDQzc3Ny8uLe5d/iwuYRYsWeXp6urq6ChKGS7QPTXt7e7MShraiQVt6eXnJZDLaNgBA25s2DEUO1TdYCePv7+/n50c1PX9/fwoz+hTDMG5ubqzCRhOLFi360DoU4+cp9WQyGbfv8PHxoUSm3b+XlxfbGfn4+NDa0CusSsx2QCzwCrzFtouvr++iRYv8/PwElewjc4e3tzdVkwCAkpsFjEql8vLyYns+2oTU6Kc5fXx8aMP4+PiwgKHKAGURtnXpU2zRqXXE/iytCU9PT5lMRu0NdjSFkoISmZox/G6FEsTfH8Wvr68vFcIymYyF05tuUQOSShUPDw9fX18BMB+Zu3x8fDz0h7+/P1clo+3N8roBYKhK5urq6uHh4e3tzQKGyhbWsuc+pR/YGV2oAAAgAElEQVSNC6TsQludjr995FoVj9fR+lITnBXRXMBQaUxHDtmOyaDsrD7s4eHBGv00TyG36LglFfV09NLgtSX6539pw3AJZwAYA1bmsj73KZpmAUPtEzYD9ykPDw9WkeAm2I6TfarUJLy9vWUyGVsdb29vyvQ+Pj4ymYwVBVTksn0TwzCBgYGUklRWs1YfHet/0y32Q1QFKH1QoRUsLoChg5K0LVnSswlqv3Iblb3FnYfhXqQqmUwme9NTBplL308KGO7gsIGUoFXmdiv0SiGdSyG3GIbx9/enH6WjL1Qx4w40lwIiFxfAlAJSFrcq+Pj4cIeG3dzcWGWVW9TCOyNuzremfXx8PD09aQ9Fe8DSJ2cEwLyVDYQMAgXyKCAAJo8WQkqgwFspIADmrSQSMggUyKOAAJg8WpSylL+/PzUn6AyJr68v69hqYNuw5o1KpTJwMzOYS+H6obFzOAUOq7AzbKXMnUIATCmDia46gYGBdIaeWuF0poUChmEYOvLr5eVF/YyoxxCd9qV+q3Smiz9b7+vrS8Emk8kMfPw8PT2pNwYA0LEyOi0mAKZ0clgpq5W3t7ebmxvrFWEAGDo6TGd+6ZwM9RKiUog7EGwgYVgq8Z1iPcmxaNEi6l1O53AAQAAMSzQhUXwp4OnpyfqJ0Z6egoSKFy/esWjRIuoLQ91V3dzc6IiwAWB8fX1Zz1dWwri5udEBZS8vL+qkTKWNIGGKL38IJTOgABcw1BuIMjGd5+XbMNSnm0oYA8dWrscxdQso0A+NfpEChko2ATAGjSL8LL4UoKoRO9lvoJIZrGlhV0BQwFA8UNgYSBgWMNTrmQKDGv1USaMOtXSYQQBM8eUPoWQGFFCpVOwSI1ZusEa/t7c3NTnoXwCgPnWsxzH1NKOOrVwJQ1UyqrBxhxNe7/5HrSYKMMHoN2gO4WfJoAA13/mAoXjgGjJ0ZRG/VgYSxiAD3w+NzSAY/SwphEQJowD1ifT19WWdlz08PNglEjRhsKCSrSHrCc5e4SYKAYy3tzd1pRVGybgUE9ICBcoWBYSJy7LV3kJtP5ACAmA+kIDC42WLAgJgylZ7C7X9QAoIgPlAAgqPly0KCIApW+0t1PYDKSAA5gMJKDxetiggAKZstbdQ2w+kgACYDySg8HjZooAAmLLV3kJtP5ACAmA+kIDC42WLAgJgylZ7C7X9QAoIgPlAAgqPly0KCIApW+0t1PYDKSAA5gMJKDxetiggAKZstbdQ2w+kgACYDySg8HjZooAAmLLV3kJtP5ACAmA+kIDC42WLAgJgylZ7C7X9QAoUFTC5Sa2FU6BAGaFAIaAqKmCYNBBOgQJlhQJvRkyRARMHjHAKFCgjFBAAI6BdoMA7UEAAzDsQq4x0okI1C6GAABgBMAIF3oECAmDegViFdDzCrTJCAQEwAmAECrwDBQTAvAOxykgnKlSzEAoIgBEAI1DgHSggAOYdiFVIxyPcKiMUEAAjAEagwDtQQADMOxCrjHSiQjULoYAAGAEwAgXegQICYN6BWIV0PMKtMkIBATACYAQKvAMFBMC8A7HKSCcqVLMQCgiAEQAjUOAdKCAA5h2IVUjHI9wqIxQQACMARqDAO1BAAMw7EKuMdKJCNQuhgAAYATACBd6BAgJg3oFYhXQ8JfRWvBCP4R0pIACmjAImHpgUYNTkTHxHpimhvcNHKbYAmLIJmNwUuHbU6OuxVhf2G2ujgMkCJgOYBAE5b6OAAJjCAJMATCI5C1FdVDw+o09xH3lT+l37vHhSGJat2Q/R6ypyV0WaPB6YZCJDWOnB5okHJhOO/m1So5y9KSjtzJSdmsn/N8/iyRUpkwSMCphYYOIB0+yzKvKT1iKB1DeB5Hlr+l0rWPzzC4ApADCxhD+ykOGyoiA7mvS+GsIosfoeSEN6ZQ3kxhLWzCR8lkguppBH1CS+YRwwGnImkAwJ+p9cCMURNjW4Ek8u8hgIC0OZNR5ZFn/G6RLZ0fgzJ4Y8mAzxz8TRj8RZUQQ2cfhUdgy5m4AFu3dG6tnNdkhv2w7ucjsTpSk4Olg6TBlhrY0hOEmF9FARvpygLjcWUoNEqMKpyJVk8jeJk04sKJ1CQMWrQgEEL0F5BMAYtl8sMOmQFgl//gZd2kPDuuDWAAb0hoM7CQCSdJw3bTx8/w3MnAx1akLn9nDuECIh5jnMnw2tm0Gt6jB8IDy/hcy6YRmMGQqRj7Bfj3oMIwfBuv+BlvK9nlGSXxGG42ImFdJCCMb0eZhMOLbTpEV9u19nWTLpCGnviVZtG9vdO2t0bKeJRzN5j7ayVvXtxg2y0cSIFs2xrOakqGiv6NlW/tJfymTB/s0mHdzl3dvI75+TMjkQeldSu6J94+r25/cb37hk9O14q05N5dWcFXf9pEw2+Cwyb1zdvlMzecAVafA9SY828toV7VcuMFdHir4dbzWwm23/zrK/V5tNHW01sLvtqH42h7ebjB1kM6Cr7YQh1uf3GX/paePZzXZYb9u4p2KEHFuFUpAQAGPYnKkQEQDujYF/jB8JOUlE7ERDOSe872APFVwwYW0J0c/h/jlM28lAYYeJxvUgOxYa1cX0ro3AMLBvK6Yb1IWsRI4ASYdf58LSBcDk6LvkHPhnPV5kUvVX4lB2bVpqJgHHBlXtMyJEMY/FrkqFOSjP7zP2WWxuDI61Kth3bC7/apT10yvSSgqHOpXsPZrLARx/n2vBMDB1lLUJOJqDcssyM4ZBidGusdwUHL8ea80wMKq/TYt6dj9MtUqPESUFieq52ldzVshNlfOmWS7/2cLJ2qFtY3l1Z8Xza9JmdeycrB3qVVUgJp0V5e0c2jaxW/OruaO10tVR0bm1/K9VZo5WDlWUDk3r2kc+lKBcKgU4YasgACZfcyZATir074VsXeDx50JgciErGmpWw/tPr4EmDTq2xvS6/wGTDa/8QR0J8YEoeQBQpGxbiYlxIxAwk0brc+Zw2CgREsJgcF9Y8RvBTC7s3gwjPCHmFdEM2abSwvYVZvbmDkorh5snjE78Y2JnpnS2cbh00HgzAZL3RCuGwa88uSx1kTkM6iHbvNRMKXP482dzJhN6t5cprRzkpkrMpkW49u9iKzNRNq5uv2aheTm5gwk4/jjdkmEg4oG4uotijKeNW3W7aaOsF39n0bmFfOMf5tWcFU8uS91r2c2ehB8KuCJVWDgs/9mcYeDyIWOZifK0rzHDwMWDxgoLh5P/mmBh2MKXmoQAmHyNmgoRD8DEGNm6wKNNc9SscmKhRlW8/+o2MuivczH9yxzQpsLCudCgDjg6gJkpGBvBi5uQGAimplClEqSGQfUq+PKoR0R0sDwUiz/TYxEz29bAib0wciAkhRMNkDWZ4oAhgFFYONibOcz/xvLb8VZcwFhIlZ91lK1bZn77vFHwbUllpaJJLbvpY6z7dJTt32ySFixqUNW+qpPC2cahbycZmiJaGDfIplYF++Z17ezNHVo3sCsvd1i/BLk/6pG4qpNi2mjra6eNnt+Tzv/GslMz+brF5jXKKQKuSFs1sBvQ1fbMMePrx4wq2CvGDrS5csb4/D5jRyuHedMs71wzunbMyMna4YepVldOGaOBx9Uz2SqX3IQAGAPAhN8HI6MCwYIXWzfHAYDcGB1gXt5CwHw3HW+tXgxL5mGiawf4/TfEhlgMjy5hhr498Pqaxfj38x7E7jdgo1gCjzRo2gjq1IBsFRlm4KKFA5gK9gr32nYNq9pXtEcAUAnjYO5Q0V5hCo7zZ1jGBohruCjK2ymcrB0swHH5T+ZPLqE0GPqZTcem8jqV7OMCxEwu/Dbbokcb2a/eFlWdFKsXmresb3dqlwmTi4Cp7KD4djyqagwDP0y17NRUvnaRDjBdWsjlpspqSsXOVWaNqtnLTZRtGtgd2WFS1UlhIVIO7WF757RRZQeFtVTZtqGdOkKUN9RWckHCLbkAmHyASYCcFOjVGTm7wGPZAuShrGgdYGKeQFwI1K6OeS8chN5dMfHsBvbf7o0ARPCQAGYvMV2UDnh3/1YyksZtA5rOhgN/wVdj4cshsG4paneGfbNewlR2QGu+okJRSZEHGGORo9cXNqFPJakRohc3JBXsHXq2k82ZbGkqclzzq/mhbSY2Rso2jeRNato52zjcOG6EBtUmk+Z17Ub2s5k6ynrcIJuuLWURD8SMFgFTzVkxZYT10l8sDuw0WTjLwqO5fP3vOsC0rG83rI+t/1WjmyeMyssVX420fugvPb/P2MHSYemPFkHPJFePorT5Y55FgL9UkDAF4Yvf9iX6ShqEPIJmbgXgZfQXxFhPQcDUJSZKjapgZY45B/RGGHz/DabtZGBrrXv83nlk/fRQcK2IV1ycIDWEDIgZkCgLfLfA8AGQGQvZSTCoD6xcRHDFFUR6wNQop3BVKqo6Keq72jtZ6ySMMThOGGITHSxOCBY/uog2TL/Ost/mWBiB4/KfzZf+aGFn5tCwqn2dSvZyU+U/a00ZBnasNOvcQj7Ty6pLS3mfjrIH16XZRNBFPRS/1r4G9bStolR4DbJZNMeinZv8j3kWVRwVjy9Jm9a2mzMZTZ1n11Bq/Tkftbgrh43lpsqDW000GrhwAMGzf4upJpWMuRvUtKT/LAgB9FpZ3R8mFmXIteM6jlcqcIy4d1f4Z4N+qkGFgKE2vXsjaN8WFs+DzCgcjE4KAe+p0KIJDjfv3gzTx5PR5GR84cjB+MIZE4joMGCaNNizFYZ76u2WFLRnBvaFlYuJnsZiJgvW/24O4DS0t211F0WdSop+nWUATmf3GK/9zVwEjnZmDjYSZefm8qDbkrqV7O3NHCo7KEzAcedq02F9bAGcDm4z/dXbAsD52/FotZ/ZbTygq2xYH9uqTorZk6xe3JfgxEsSZESIOrjLLURKE1CuWGDx92ozC5GjwsLBvZZdyF1JdRfFpOGorT28IDUGxwUzETwX9htbih0VFspm9ex2rDRTWiodLJQ1yiki7ktwoM+gviX6pwCYApozB374BiQS+H0BRAdCZjiCgY4s4Sx4IgKmqisCIOIhggFvJZI5kyRin6STv2ryl8wS3jgNCns093GQIJ3HQIlw/iAkPNdb+WQMICUIDu/Uz1FSDksF/1NG3hOtzu3FYbHtf5od22ny3WSrV7ckd/yM5k2z/OVby++nWq1bZM4kwmlfk5H9bAZ2t10y1yI1RLR5qdn3X1nFPxM/vCCdNdFqz0ZTJhMSXoj7dpJVtFc0rGZfyUHx9ZdWuXSqMQVunDCaNsp6wUzL5FciTaRoyVyLCUOsLx8xzomB76ZY/b3GlFFDxAPJ5OHWx/82YdTw/Jp0+mjrycOt535ldfWI8awJVpOHW88YY53wXIweAyUaIQaFFwBj2JzEK3Hbarh0BEeQsYNMzG9OEMBUqYyAeXGTBwAyAa97J/FGyYzFcTMAWPbLG6wXavEncaYpCSzRuYvbWrFkzj6XfJF6D2SQEpKpIZzDySaj0hryVCaBX5Let1JNcibq35BBvpUMiS/EJ/81vnXS6O4ZI02kCEfP4sgtinkNqbtKj39annTyklgC5kwidWPJnFImGaggM6pYcvqTFY/cipTotACYfExJ25JysAG/ss0cj6q5/2lEVGYY4Rv2VoGJZDi1m8xLphUhc4FveL+L1NGrcJalIjGD8DpFC/stgwfZnwY9Ajc/e4sm2EfYPKUgIQCmAMAUpV3TSSfK+kEW8gjxtUGPsqJkLuQ9wq3iQAEBMO8JmOLQeEIZPj0FBMAIgBEo8A4UEADzDsT69P2Z8MXiRgEBMAJgBAq8AwUEwLwDsYpbbyeU59NTQACMABiBAu9AAQEw70CsT9+fCV8sbhQQACMARqDAO1BAAMw7EKu49XZCeT49BQTACIARKPAOFBAA8w7E+vT9mfDF4kYBATAFACaBOOEaOCPyWy4pf5AKfoaiXIknPmY03lfhzmY0T+EejTR+38ctOY05Vsh3aZw0buC/AitOy8YGBywwT/G/WNYBk0Bc01Wcv/EYvC/hBWgi9F79/DyEs1ODSegwbhsnEHf6LOLGT/9yl0/R2Hz5v4VrB1JBGwWqF7jMRrcsWUXeoyWe/JRT40EdAYkvSeQ+6gvMfQ+Nvkni+qleYE7de1KJKz63hCRdQMnjiMMyt+RZupWhGWH4XYwPyC8/dYgmAf6SX+HC0rxl1fHkhWl5KxRyYiH5FWSEcfLwClZA51Xc8pR1wPDbQwN+e0GpgNVLyDoQfgayykUbiav2e3bWL4qk8S+T4cw+mD0Nxg2H8SMxbFLwvfwvYf3eaSIDVi2GoQNg+UJwcoALhwiTEf67egxO+MLjy+QKiZe5dAE4OwKueabrDrhdPk1nwP0L4KSElb+RNW1xEHwHwh/kZ9BE0ERCS3dS8kS9AzVBws518NMsDEQ4fzb89j2e+HUGV4+6OJGlbxzu13F2Oubp3B42rcBwh8M8yfIhInCyouD2GQi4Sr5OlhhFPISK5WHqOOLlzS08n8LF+UrZBUwSZIQi6ygVurNKJVyNHPMcl68AwII5ZElWFnwzSZ/HHsq7YESyrasgNwXkMqhbSy8EEiEjBr7ohw++XitmYwtWlpiwsoR/N+vExbIFuLK/ZjXk+xpVMb3kZ/h6IliYw+ypmPnYv/jF5HD4rBt5C/mz4DuCkByYOwN/Xz+BS8HO7MP3VHABpT2GdKpeBUYNxmf9/TDPT7MwT24sxnbq0Jrojayyl4jyR6kgJSdRPJH1E1AQde8EUgkYScHcjHwY4NvJsG6tbvXbS39cTNa4nu5z1VzxJf37wMXDmPmbyRjJoH0r0n2Qt8U+xUBTLd2JmEpAIIXcxZwDPiNgFgBTAoSpQb+lQqVr1hQY0h/Duo4cinwMAKrnyI4A8NsPRLPKhE1/wuDPSZ7h0LYF3sIuPAPzuzUggElAJpjvjbeGDoDnDyArFlf5H/FFUJmZwKs7yME7NyNXAUAzElbTTgbb1qM4clLiimgAOLkbe3TvrzA9fTz4ndDF4jh3EK//+C1ev3kK0zQMTZOGMHKEDqVNGuEn7p7BPL98pwOMzBYa1S8AMBXLkZKzgCHRmVUvMGBaQhBGIWxYF+S28JM3iEX4QpEIAv2R9adPgMGkU7AwhyEDYPECuHoMM8z9GqnRpUM+wBgbYfkxVCwBTOg9fM+Q/kTkCoApeYChShQJvUUDcHVuj51rThwy7uvorxi7lSGNzcnztw/eOrELOcNJCU0bkzxkXW6DOmBlRXT0LGIRJeGttb9j/m2rSLfKwLhhyDQBV8HGGsaPwgwzJ2OfTQFzZh/i0FEJ1VyJ7cHAnbP4uBeJmvnTLExTwBzYjum/fcjXU6CcM0beYBh4cQOvs4BRKkgJucAgEqZAwOBeMQx+d8qX+JJFP8DzR3B4H7RriT+f3yBdQw6WsGI5aNUMMfk65No9Eh2XD5j45yhhWjcjFREAk0+RM+i5S8rPFAz0+sscjFU5fzbMmIgNjEpFLhz5G1lk8pdw+zrau+uXIgsu/A5mfwP1aoOxMYTdQ0iUd0HN6uZ5iHiMvXjtGihPcqn1TE0UBv5ah6/a9CcRVjkYiVwigbMH8CWjv4CDB6BzO9TsKWAuHIS0YETU5z3J6vxkHFSwsSbcyaCiZQCYjcuRZTPCoEpljOY8fTIM6ot5FuolTNEBo46G0EewZilUrUTqPhYR/ll3TNNDB5gk/JzMBnVXJgG++QpaNcX7P8zML2FS0XYSi1GdwyAYAmBKA2C0sH8bsq9UrLM3AGDtEmTBwzv1bAJoebdwB4kYTEww9CsAdGqLZmtWFCKEHjMn4VPTxuGv76ZDeoIuBMTjW2hdvFbcMf5lOmKABYy5Gep4NcndOjWR4V6/+dJhVIpeR2QeP5IALAk04Sh/3Bvh+wsBTC0SSdBEikYIAIliTmyYogJGDVtW4YMA0KQRHPXFzzEM3D0H+3fptNBn10kVMuHhRYS0hQVGkOrWAfEMAPO+5QAmHmtKw66bmhJdLhNtGEEl06OmpIgUg3LGY/ykiAcQGwyPr6B+ZW8HCYEoYShgeneDVcswkFJCIEQGQFKoLrDlsX8wjyYCKlXA4aMVS+DqcWSm2EDUQF5HJXd0gBbNwa0hYUCApQv140IcwBgbw5ghEPwKraNyzjoJc/EwJDzDp4YOIBImCdThGJ/prYAp54w7AkSHwylffNxQJUsmKiIVesk4SmaokiVh0PTvZoLPHxjZ+e4FNOXPHwD/M/DgOgrhoZ4Q+5TICgalMT3W/o50OL0Xf+VTyVKQGm2a67JNGIXZmHQBMHq8lDzrhSKHBgpisC37kFGpf3x08yeH/sLGXr6QdLQ0zDGDhv7rcP2D+5Ixq2QEjJMSzXfsjNNIaKI0SI+AdcugYxvMaWEOk8bC5aMELXQ3JQatEYkEGdHICFW+19tOfDMpz4Y5tx9yEsDMDJq7Ecs4C6KfYP6+PTAnX8LQLTSYDFQO0bxm4PEl/DQLGAd7FI9YwhxSNTWRjdE8wNCoTgzuySEiVj6+RX+YmoJrJSwJkwuRT1DtdK0IlcrjR3OScViZBUzn9mQ8kIHfSHT2UYOhLyHs1pVYhkgiPAWjnynBgFFD8GOdUTtrCrHLE5CxKGB0o2SpkJ0IP3yNbNG4PiSGkamGRARMvlGyNAIbDXJGPJESOClBRwvSEZNMOpz3A3cidmZOxrc1qAMrf0c5w0qYU2SUrFcXvHvhIGgydSBZ/we+ijtKtn8b5unXCxYvRnhYWEDzJoiKO/lHyZyUILPFoa1p42GaFyqEbVtg9M3a1aFJQ711wQpeYtT5/IFyZt3/yPkHbFiJsksqgbhnqGp2aovfPbMX/PZgwrM3jn+IRDoJ060TqFNh8Q94q0YVSI2E+GCoTfYF+XkOvLyFY9YCYEosYDJg73awJJGRf/QmPE29NriAyYWgh9CgNnJA5/YQ+5KIC9If5wEmA+fpX9yEZ9dxKOnFfd0gW/dO8PIRXnl+A55eh7hQ+IyEKqdduJgYRW71YcQg7O91w8q+2Iv7n9PZVOXL4XebNoLUcAQDFzAHdxiKArSseIBp1jjPPJNKwF6OdtfP3rhBAA6Ic0fPyO4Af63F2RUXJ5zhKU/PcmBthV1DagiMHoTl+fFbIqy0MGcamJuiHGYB4/kZjgcCQP068OIuoZUawp8gOF0rwIOLYGoiAIYpsYBJhVunUH06sJ3IFhrrlWz0lSdhciApGAZ9jj1ojoqAim5BwZUwufDyBu4AU/gxahBEBmFg/+c3EFovbuI4UlIcDi7LbeF7IsFO+hKVJhOtiLHDcABt3kxIeElkVxYHMGocTKNQZP+G3cdnb5GJS1TJstAnJfYp2mBRj1EdigkgjjxkVqQCfx4mDuc96SD4xNGwaQ3KGXpuWAY71kJyKJw+AP/7mRSGbp+WAMFPdPMw3lPBxRF6dIbkMHxJ/HNSkViiqWbgd6OfYQFAmIdBQ4aV6SUrQedhUkhHyJ1Hy4Y9W5D5531LZvoTCYtk6qMn0zoSwJiZQtXKaGwkv4KNy2DN78gra35HZWbjchyMplfW/o5eNnSOhepmur+pKE++/xoaN9TN9B/ZSUyXWGImaXU4wYm/WCzJrClYqqvHCC9S9OqVPXxhCl6nMdTnfk1KHkcmDak7Gf1LgsqqI1BoYMkNJEwOlpMeIjEOCrMnu+WgLhwh7TUSUFG85YcTR7/9gAPlqBaqib1Ey0xppd9hN+g2vvuzbqR74hK8ZLENa7rzEmUjej/rM8I2WxoastPHExan3lN0fInNQHckjkbdBsMl0626taRTN3Be5P5MJ3zPfQmZX08PhaRIHBuYPh7nhfJ2hKRezGz+NDjpi340ofc4edi7NJECoffRRPHbS8BmcJf+TEAXz1/mkJKr8ruZJaPU2vQnbP4TNi3HhO4k4A+6Q+Bn8E7iqBr/ElKCYM50QFsrKf872fyJOKP1zSTYuY4Ygez1Epfg4YS9UDYAw28w2iNqCV8a7AFmkFmjN2kMrr/Tz0TCZCn51UL+G0hI/7wdBPgZaBBxshcfoq7wkpPhMkPVgIrcbCKd+H+5sdK5X2ed9jVEML7pu3RMkvpfvykP97XFNs3ig5coq4ChTVUUnaEoeYre8EV526fMU/SS/1cUe9cSfpT8PJywF8o2YD4KcYWXlD4KsPjgJQTA5C1+MtReSh8fCDUqIgV4OGEvCIARACNQgEcBFh+8hAAYHrGK2AkJ2UoxBXg4YS8IgBEAI1CARwEWH7xESQMMf7akiP3cez9YxPd/9Gy0wG8q9puuf/RiFPLCAstAYiFg0A/uaTAPVuCDhXyIe+tDnuW+p/A0DyfsheINGLoPHt0JNY5MZdBdi1X5pyDiyRReNplVzNHPkXMpEk8uqslsWjGfH6B7r9LtYNNJvdSkXsn6XpCb4U3TJtQxmbqKvvUvN+QNl2iFpGm7FDTPkxuLTnfcUxNJgtHQt9HprwIbkWZIJi2VRZwhUvNPj9JJHjXJkJqfAQop6vvdYvHBSxQPwNBAPvy/yRgOYuNyMnOchAt3J47GtbXBd/UT4XTPYTU6Pm5fjWuqVi+GS0fJiki1nsMSISkQZn0FE0bBP+v1D/LpSCfd+WVgrxQ4PZKk8z7E/YQL33qbBFVBpxI1cVcrMKoY3adWBcd34Vx+lw644GTkYKSA6hV5MA7LH3IXJo+BSaPhxsk3TParMJ7T02uGrmisTxqbeHYdg87kxuZnTXZ6lA0ixe1l4rGma39Hev74LQEDK0DS4Pl1qFcLvT/Zs1Z1+GeDzu2NSYMrx2DiKPhqHIQ94HgVUIRnYbHP7oe9WzBUCHWcy5ufTUJn6q8n4Xf3bf1/9iTg4YS9UAwAQxoAuc3gTMZ58XHD0TdJKsW7m1fonKBwLZea9DFpkBwCXiNx4TH3aNoYLhwjvRThsND7Orff4QPJxQJZn07GG5SB+5P7FJ0v16KDmf9puHIU1+VjMK4sUgsue7EbfGeif+S1E5j58dp60HUAACAASURBVBUCZi1Z1suFbirEvYIeHtyq6NJVK8Ml6mCmxk6EHhuX6RmR+5I49F77/Wf0+2JPE2MkET1xVSnnVr3aJMSZQei9JFwbs3IR/LmQOLZxpVACAp7GCZHb4qJU1L7iCHQZBAz/8CErF9AXLle34ggA6Ya9DKVPMmjjYf4cXATBHrYkIoIqSO9bkK4LZgCAkEN/CG6LGFDgA3+y+OAl/mvAJGPDtGuJq1AMzm4dISde54zoYI+MSJfO65a8E0fJ9Bjo2EpHYaUCOnfEwEL0MDOFqycJrlIg/CGuGNGtClbzCE00upmTDQtgUB4MTEFjhRGFJCUcZk/H9ZjsUb0KLPwBNNS9hYsZDTzzx7XKDva6vMZG6M+/04e8kOXUBMhO1q1yA4CGdXCJy7fT0TuYHnJbCLqHXo/UWxkAhSryDZ85GGS+Ih7lXQoCjAaBTY9pXmTND/uVBMQGRXXlCgQwSShnHl+Ge5fQX27RPBLx7Ad01vztB4ymcHgn3L+K4dRy0lBa0gg1d8/p6amC7CTw/CyvvEoFLqqhR5MGuMqVScWPBt4Cc7JS4+uJb+742HJ+SIKHE/bCfw0YsgpcqqdOHs0A15HnROvCERUMmGxY+avuieEDISYYe74sFcYTo374rZtBThJefAtgErDlunXifryA9NF/9N15KjZhiyYF5AGArh0gPUqvbMRiu944nQcVg2e+nUKYhqo06fD0qu6+52egTtQvTctFD3x6LCMxbt4OmCQIug1H/8bYa+cPw7VzMOaLvC83qAOnDsCVk7g+7PguZHFdwEsuh3HkmPdXKBnyYMkHTBqkBuuCSwFgUB5zc1yLSk9zc10YJwBcK04j8ryOAXL/AmF6sphvrd6BunUzuHwS0kLhkT+M8NSVecwXOj1WAAz2HGH3wdYGSdOmOcydg6d7I/zp4oQNSeN3FQAYDT7buT3mLO9CFoFoiIZD4h6NH4nXjYxwUQqTXQTApAJdAuniBBNGw9jhuFKFe345jMR3pGZoRl53WN0Vlyuf2g+LfgYHBX4UA95N1Hf8ybh0pGpl3fV2LWHHRjixD6ZNQCWTHhhFiSxrYTJ0EfoAcNkWLuTUEkZh0FahK9Lmz9Y529Nn3yhhqFFOloLmqGDJTzoK06ckYhjYB1491AMym6cZxuF3WcWvKIBJC8FIILY2GDKhYjlc3lyZczo6YAwamQ1qE69Db1IJ8+AiAUwSZMfrWtxJSYIKMEStJQsf2pPgT1aWuOCHyRIkTJwOMDQoyZIfdU1IQfIWwBAVlnbzjesTkU3N6Fh8ya9kublITBTl3LcBhjjAtyKhLTAwBeVUOk7F/UsXn2XA7dOU8ZAzQinbkUXLt/x00VUsLEjs1lRs4w1LdZk7tkGNS/dyBrbo7bFGdSGLhjNOgpRwHbrMzcB7Kpw+BBeOY1QkVvG7dBjf8HYJQ4B9/wrMn4vr8ulhagK//6ILL/g6gqGJMYweAmcPYneO4QoM7AEOYGZPfZuEScRhg9gASA6G6ACMPzhvJhqf40bgkul1/4MHlyA9HNeWMZmwYZmuPA3rYRc5bTykBoGdHC+OHMz5EGnHFXoN4spRrLggYfIBBpfFkqHhqSSUERcwSgXSax9Z466zYdTYAY8imoaZKQ6tsLyYHo0WAgAu1k14jt3YW1QyApjWJADK6CGkX88kC6So93s6YSaWn3JwQSI9fvYmH6WaTDymR+s1HxyOy8J+ul8vXWbU6HL1g6EkBn59sihaKkFNDA1i0q+fPZyn2+ie1P/7yZvob5pCAUPsseW/4Bp91gx4HZSweRO4fBxLmEDGSLi3KleAL/rjWpd8o3xqXKlKD9QbC1fJ9Ku+n97Exa38CBuVK8CG5YQgObjkjnvUqIpBc6h1N/jz/B9i4PefdHmvkcILgCkqYMzN4NuvMLQ2PdD+zsTzxild88htYckCOH4A/t2iC4MEgCsccfFg6tsAk4jzBvXr4LtnE13owSXsCJf8CNtWA4Yb1nBWYmbDpDG6YuiWPbOqfw4qP/T49XuCpURoSULgmRjz4nxnYZglepzbT1Qvur6SgcjHKF4a1Uf1xk6OMmf4QLhAuljsUPSRMt9o9KvhIAmI8zqwpakJdGoHf20gQowOD6Rij3D7HEZFo1FzAVDU5KTlV8w0aALRA/k4kyOC+DYMmaNUx0CjeviErQ2OGq9bCltWwrw5uosAQGPhsoDp4QFDB5PY1hm6ECUyG9J3kBA/DAPqaN2zdnIcUGa0goTJr5IVImF0Taf/pwMM6ZLXLdWF3tPf1P33/Awy6DTZW0fJkjB2GQ3GN2c6eE/DVbvsYWUJs2dgTBnsgMkE6DC9MapbbMwCJhsW/6h7buFcAhgVxrOk0cox5FcKx3TW6EbMaewYRoN9/NNrOHIa/hBV+QcX4NIRtMhvnETz6dlNDOPy7wbwWYExO2kvXoANo7de9m/DSaeYp6QYDBHddAqIThoS8yY7Gs4fxBXLOA+Ty4EEGZieRyJBA2DETU0kR/4UCJgUiAvQxeJo4U6GCmkwHQb7HXrgIDijkzAiEelBGNJTaHDihR5VKsHfm+HhLTi2D6gBA4B2LJpzwigZKiHE6Kc2TCGAEYuwr7W00JE1DzDxSMobp+HLoRjo3l6OQwU9u8Bf6/HNOtWcjJJRDBQ8D5OEe55QO0GpN9zLl8e3sYdu/wayM8wIElfldUCmQ38R4cMBzKJ5uid0EkYPGEsLtHcNAPPlUF1m3ACDgX/X40iAiTE5TZD5ZLYYOoNuEMCWBAB8/odxzAqQMGRd5JolGBht9lTcCODrSTjFOXFUQedotB/mTMNsU76EryeA6qUeFYkYOY2KXPrdI38TyNGx8gIBEw85qXldgMIOmrpB0yZQ3VVXcBcnsikIZ8Qvb1iZjFLSqFTcatJ0ry6QGUMKJgCm6IB5HVM4KQTW6+3FPMBQZs1E/Tg7GsfKMsOIok/ibTMqokqRMJC7NuCsBW4jwZ+PT4LMCCivnzJr6Q5X/SAtCseOl/+Cc3z0uElnddQYM4keHxcw21frXlvgP3Mz1KBq14A+3eHQDp0MNJQwZHujZm4FvuDtF4PvkC4mFu03GgOWfaZVU4J2SroCAUMcl7LiYMUiaNMib1BOIsGZsekTMA4TxhlkUE8znIeJI82UDlvXYFR1Gqr3dUSOWtXgl+8581oCYIoOGKU9wuDfjboWzAeYJJxu79weY3A1aQhNGuAuDvVr5zsb1sUdVDq2AZzHoEY8KxZoIhlO7cNRmu6dyMhmLmnCVGzgeSQgMo2njCaEGi0KerwTYHCMKL9KlidhDqKkSnyJ+yjpzjvY/dNj1SJ4eBde3tRtXRQXgpGg6VEAYFIwDo5HO5wOKvrZpT307wVxNE5sOqSE6gbrrC2hpX66afEPSA2MOP4mwFAFOAOjPV09Dkf/wfPsfnTPSQnGzd7C7yNsrp/E4DubV5DxGHbSlvqJZekMzoBrOA2aGU7GCdjIWAJgDABDJxkYBkOrvH0ehnpVEM+X+Gf5rA4dNxX0Dzck0uRX1qlrBjtLmMGx7+PQ2H10STdngravFs8xQ3SvRkVFwzFLsvOMfgwaRtirhTtmtjBHv5h8gNHiPA89dEZ/IpGNGToJyY4f+O3BV6WF4OSGmSlIjfIqawgYCn7qJky6cyzDW89cInWp9EiF3NS8WaZp4zCqpYsTFlMiJp54DJmTNZjpZ/k+A6OYm5ui8mxjjae1FU4iSyWoQ+JJApwrFRiA9yGN3c72XPFoSoXeg5B72AMW4JsnAMYAMN9Nh4wUyEhGD8t3AEwCBnTdvx3+WouzyPzzn024Y54FcanAgPl815g07NcnjMLvXjxEmop1bEnHDtKIxPNHwJD5Fho6TGdC5HAAw8DP+hjeKxcRDSQV2rfGuojFGBJS5zpFAi8xmjyfMYxCxuJfHwF592aoUxP3pcDBpRzs/ss5Y0lMjPPGiwsGDNl24sB2HIAqyrlnM0Ey2XAzOxEjzdKjbg1QhSDezhzE0TaqRy36EXJIbLR8rjEsYMjmfgo7tL4KPOWyPBX3zlnSNbCASQRtJG6wYWYG/Xvr7U/2bhyqBnRjHABsLOy82LF+braPkmY9YXiJ/941Juy+br7PTgY1q6PtTif+nR0LnelnOUyFA/k+f+D0yNIFBZzLfkOnWrpDXcGAUeMWFPTwaEesW6q2qZBd2Ik2NnrqLr1miOHDc8joQjzh+BRUwelx5QhBZjY6HdPjVzpulkiaORciH2LA79f7nNnJiHLCeu8nIjZ2bwbfTeimkKPSuRJnR2PYYhxGe4jRxOmxoUDnSzKUR+Mj6/IV+s+jLTJuThLcuwJd2umylneGJzf18jMX5yLZLf66tAdtgs7nTedLxgJGhY7he7dg4fdsLuA8sAsjjNIeJM/opyxOAENHurvSTc4M8JAM0Y9xR7QBvdH7qYDJ1o8CFfoSHk7YC/89YELu5ukY3Ja1snybLxmtWzIyHDuAxn0DP40T+XyVLBHUMdi30WPmJIilvvSpcGK3zuFFIiG+TxmokCQFY8RUevw8C1Ki8Z1xQTgeRY+G9UATRzafyMyb/rOyhF2b0MuQycTQzB4k4DduPDY8f5HUur0E83YWoHxD1/ykI57jnmKwv68nEj8Grh8xJUg8YvjX73HfKI92BZ+dO+Bd6uLdrydiW6uC1mTKCAOo14aAm6QLZyVtDlw8ijohAC4ryFbrPIkMAUMkjL0cuzwLC/2IHx33I3+ppKJUun2mAAlTkfgl5O3Cy8UAG/QsSz84wb37cdMsPniJ/xowiei3t+Z3lAzLfsk7ly4gc8MpGEYRAGeCC/BWpjRKxkUUVM+u5gpfTcBZs6/GFnzu2UJozSeuBg7/Q9sR/zo5oCrVhLgL0Ks/fMNhay0u8GAP10rQvk0ehIykcO4QyUxVL7XO4Zrmb1AXHeNtrHRPV66AW4JhZ8kWKRO3WaYHbmnGEMOXG1xTS+ZMqGWSo3cdYB9nE0nE2Egh6hb/rxoHBikAEDBkpdrTWzgK178XoEe9hvdmLfr7LJ1P5mT0+qQhYDLg/nld4e3kUK8u1K2Z76xTEwdjGtRFx3DcT5NbcSJhKGDozh/U7QMdJvgnv9djK/5REjycsBf+a8Bwuw0DuhALe5oXNkARAdOrC7x4AC9uYRTwAs9n11FRLkD3JfM5/2yCci669mb/vXZ8Rp+UFDIYQBuD6DybVhXgg1y5Ihz6h/TNbLMl4rPff6PrztnXAuDmw89u8ViTA5jX2zBt5MQLZwOH08Ta3zE8dAFrv9hCskvf+IlUHLmqTNYm6ABDJBg6yBATqICYmnStHl3wk5rfvZ9VyTJwvpVukDZiEJw9i6Nk/PPMPryIo9jsg2RkWRuJGxsC4BK09SvyAqXzK75zHRquWFSWzh83weKDl/ivAVNIPQkTe5EFZEZSJK7hehj6LJEw7FITLkfy0wWMVrEFIJ+LewGbV8KYodjRDumPG3HhNvZc1xiaPx67vcjHsGwhjjL364VebRuWQ/zL/Ghhh+A08OgyBjse0h9V8PGjYO82yKIbZbJqD32zGpmpiEc5JwKYAhdvsvUqMJEMSa90fpmf9yAShjIfDSFd4CPsRTKs3J2shqhYjrOAjFSHlTBvrcKM8cRcZA0VImHs7d76HGYwMyX7HXCH6dnifZQEDyfshWIMGDIXdssPJxx9N6Geza64xKW5rNGfjDMYNavhjLi1Ff5902lhgdMLhvMhBvRN1isA6TqrXecWaZCN/kwhTa4hDEfjlLO2u0H+eJKHTOPgKrRsgitu/8rmT8f5loZ1dWeDuqjAFHzWwd1hUcK8F2ASA3GXmNeerD08OIBhi1FIggCmMxkecHHMDxhiw8hl2BCFt4WZKcz7hhCBBYwKX9Xdo0gV796J5y1aSIHf4xaLD16ieAOGekbRneiScGTJbw/ut4jj9CyXxONgWsRDFPEhZBT/TX+D76IWnh1TkEpmQFO6vp9tS4O7Bj/fNXMRXpsTg5Uq/MwmGd5TJ0lA1fTgDhxuuniYqEZFKFXetxJwK9lTu3FVZj6dMB5fi3Mpd9/SFq9uYzfH16kKrzL3bl5hDJrjo/zk4YS9ULwBw608G3BETdDC1WRofIk0MsKb+ua/NMM7cQa3AJ8szUYqUpGavukv3fDovUtFI+lkEfHCJWYRX5hGJDBds819hIzRoTVfSENQNz92Cp/7OPVmelOV6fUPrDj3c29Ks/jgJUoOYN5UN+G6QIGPTgEeTtgLAmD+30ZaPnorCi/8ZBRg8cFLCIARACNQgEcBHk7YCwJgeMT6ZN2Y8KFiSwEWH7yEABgBMAIFeBTg4YS9IACGR6xi2+0JBftkFGDxwUsIgBEAI1CARwEeTtgLAmB4xPpk3ZjwoWJLARYfvIQAGAEwAgV4FODhhL0gAIZHrGLb7QkF+2QUYPHBSwiAEQAjUIBHAR5O2AsCYHjEogu/2Mh9bK+WQIJFsE6f9LqqoIv0DQY52feQyLR5voM0sDJ7l5swyEm/9a6LQPjvp8tjuB+i6QLrwqcD/8HSd4XFBy8hACY/YKi3fCY6RKM7LdmFBldTpaNLb2wAehBjGA260CUDHZ9jA4j7c4Z+iSJ9A42VzOUkGt2Cu1SQ7iSTTvZL4+aky5s16HmJvsD0lhq93zEaYGKR3SXpki92HQR9TyYuaMt7Lb1IK6jKX5cEXAiUFoILWrH6b9oe0KDkpeMnDyfsBQEweo6kLZ2AUWHnzoBW7hiSa/IYXO7PZMDDqxjZrKU7RvU+uosAKQO3XmnpjsFgWzcj24NRkKhwbfDYYRjiDAPjs3EDEzE44A/fQAt3uOlHlrOnQOAdXNPyeU+y7peVSAmQlYAxBFs3g3MHdE7Be7fizy7tMbrafYMARW/i0RQIf4RhB3t3hYxQgrRUOHsIV/N/M4mzoIgEZPE/i7H0W7rjV3AjqgxcP7zkR2juBq2aYpD19HBOXd70xVJzncUHLyEAJj9gsmDVIoyz/PQuBD7GKDBL50OuGjcwmTMNwoNxexMXR4h4AmkRGPdozRKICIE/f8WV6+mRxBufgeULoVI5ZDUMoU2XlCVATiLG+xrYB9fN79+Oi/Wf3sI8o77AcEqpwYShqS6XAVPGYuT1ujUxGjrDYED0SuUxfp8qBn6ahRyMsZ4L181SMFpAm2YYZqVWdRIGNgf274CmDcGzD8b4w2WklL8TcQco14q4vDQ8FBbPgwZ1EE67N2MFb56HoOfQuR3Gvsh7pNQA400V4eGEvSAARs83lHbpGByIBjtmGAw6/O1kXJpWuwbJpkb29WgL21Zh6NoVv5K1/gzuCVWxPCQ8w6WUT69DNVe4fAT79ZgnesDEYwScexeQEbu0x6hFTBbqP4EPIPQuxuzExfTsAsx4EqEmHSXP5hX4xRsnEMOIEAZ3yaxVHTTszpL63TbxcSLcdDBQQdJLeHYb41A2ro+BJ2kw78QIDAPbpYNesSTqX9JL2LaSXGFw7VfNapCbBCMGwo+z8Iv40eOIalx7x4rBN7Fa6bjO4oOXEACTHzDUrmAwTtLC73FJc+ADXDPctDHGbkamVGOYuRW/kWXGORiX7OIpaFQX5kwnDJeGOzesXgw5sajCoXnDXbScgQBr3wo3utHFCcjGqBGN6+cHDN1gVY2Lh7esJB/KxE3R6tSAKeMxKDtGk6GblsXh+0Pv457GSYGQG4/srpM81JTKwlBmjeoRwCSSwpC9nLp25AAmTgfFAztgxleIlnnfIki+6IebEeCH0jHQYYO6JO6EAJhtgSDeFsgDEu9C6eg5ilILNfgdQCYe2Bde3kHWuXREDxgSHnIABUwuJIUjHzepDxtWErM4C2M39+6Cj2SEYUCwtGAigtiPknG2PMAQYBQMGBIDQAeYXIh6gUqR91TYuhkGfIYROrOoSpYAOckYnnzUEPj+a5Rpc2cQKLKrSlM5gKHWlAa2roR8gNH3EX67YcnPuFdM906QoULjhwXMfQIYdYQgYRhBwuSXMOlw/RQqYKcPIN/TsGB3zqBGhBJGjTHBOrRGnmOyoF9P5F1cjkt3+VNBjSqoXw0dhBaIwg6G9IPkIBJGLIWMob0VMJn6ETAuYBhYsRCjrevKkwKuleDhefJdEs/g4UV86ux+3K8rzxaiKC0cMCRQDqOFk77w9zr9+xm0Ya4dxR0y5n6tu3jlKFHJ3i/gBttflKAET16wFwTA5AdMDsYa79YJblzCgBvH/oUn10GbiNb5V2MhPBD3A6pYHqJfYjh9hT3uQnz2CJzYBecPocZyww9D1u/dAZuWY9SvnesgMxYW/4z7IuEadwKYJg0xBCaGBibDU3fPIhrRhsnA7SBRW6M7TpJ9uXyWIsteOIxG/+kDEBGE2mDdmmQnbnb8jW5Vm07i1hoslE+FJ1fQpop/rh/j0mIVWjdHwGujMRj0i7tw5QSGDvXdChGB4LsZARn+BMcYXBzh8gl49girP3NSftlVgrj/PYrK4oOXEADDAQzp19f+D+Ogft4D+nZH5WTtErQigu6hCd62OapGl47ildB7OOT1eU/M1rsrajLYu2cRrsrB6Rq0mMnmAr26wI41RDqR6BZzZ6Dhrgv6mIwjCjMmkK0dMnBDogVz9DlTcNjqzD4ywpuOgaY6tYV2rVEBu3ueCKKi8EEyBsqZPoEjedLxnT/NwuEHdQQOUp/bh5jcvx06toZ2rbCCx/7Fu0warPsDh9dbuePeG1q6i0tRPloK8vBwwl4QAMMBDJ2OTCbSgIZXTSaGvn6GESGRRDiYBuxMIyYKm5O1HOjoMO34yS5r+Wb9UoklwM5I0kiTlMlS8w8S0HCbNKcaBRQWIE2vthWRL+n72bLR+VOqItJ4zdSOV2PVdBXMJApkPII/JwbtMdRFDWRXEb9eQrOx+OAlBMDkBwzl9Xgyec/+pa1Oox9xZz/YDDRhwBwsjxrcZa+z+dkrhedMIFzLZmYff2uC/wh7hU3QsTL+9A6NbMTN9tbPlYIMPJywFwTA8ABTCtpbqMIHUoDFBy8hAEYAjEABHgV4OGEvCIDhEesDOyfh8VJAARYfvIQAGAEwAgV4FODhhL0gAIZHrFLQQQpV+EAKsPjgJQTACIARKMCjAA8n7AUBMDxifWDnJDxeCijA4oOXEAAjAEagAI8CPJywFwTA8IhVCjpIoQofSAEWH7yEABgBMAIFeBTg4YS9IACGR6wP7JyEx0sBBVh88BICYATACBTgUYCHE/aCABgesUpBBylU4QMpwOKDlxAAIwBGoACPAjycsBcEwPCI9YGdk/B4KaAAiw9eQgCMABiBAjwK8HDCXhAAwyNWKegghSp8IAVYfPASAmAEwAgU4FGAhxP2ggAYHrE+sHMSHi8FFGDxwUsIgCl1gFGRKBlqEslJS+JXkK0HdCFkSwE3f4Iq8HDCXhAAU4oAk4bxn3Ji4flNOL0Xtq/BwGin90LAVbI7gJaEgCojsV4/EFQsPngJATD/b4DhxpT5wPYr/PFYEvwpG17cgXmzoGFdMDYG7iGVYNzK8aMQPEw8CdYswKZwkvJwwl4QAPNRARNPAotpCVOSWHi40Qr9yYYpK6Sp6N5giSScEv2rIvEyC4lyFItx0rTx8NNssLHmwqTgdNPGsMOHAIwGHyukMGX5FosPXkIAzEcCTDyJFqmBhOdw5B9Y+B2MHIwRlgf0hpmTYftqCHtAkJNGPke30Ushj2hJvMxsgjGy0VdODO4QlhuLQfRySexMjEOZQ7JRtYraJBRFaggPgA6t8uBRt6J0Rh/LLdNsTy+wOzXfbss022/7WbaubSyViNhMXdpDwE3yxbKMikLqzsMJe0EAzAcDJpZEo9TArTMwbgQ4KVm2zJewk8FX4yDkAQnvTcJYRjzEwOf7tsEf8zFa7DBPDDnbsQ00aYj7N+HZEJq54V4un/eAL4dhfP4NyzDic8A1Elo2HV8V8RS3i6GHq6Nk+9eytN1OzCkX5rgLc9SZOeaMiVMuWQec/ZcrZvSxtLUQ08z2cji+W8DMG1qfxQcvIQDmDSQrpPvh3opFuRH5HGMrS6V5CDGWisrZSxpXMapVXqq0FYv1nbujAn6cDWOGoqWhsMvL/04pU1OoUgl6dIYF32PgYwAQiWBoO7OkXU6Mn0vWfqeMPYanZp8Tc8SZOeUSsM6hX0tT+jlTEzh/hAguNm4tt2plOc3DCXtBAMwHACYWe+ib53C/O/boUN9k9QSbO8sVup7+sPPphXZtauc3w9ncJCECsDEXV1ZKGrkatahp3LmhSY8mJt3dTHo2MelQz6RZdeO6FY3K2UtMjPSwy/84AEjE8Otwq1eblLkHnZkTLjkHnfmYoVdQ7Bx1mTfYir6jYjmIeUFiSZdlePDrzuKDlxAA876AicVR2rsXwcFex79t6xif/sUOO/KL5Zjz5WJ3OG6ZZvtZM1MHW50WxPK5o0zSurbxxO4WS7+03jtHfnu5ImijMmaHY9puJy0VBcepNuXMHHJW73VK/tcpcpvy2TqHi4vst063/c7Tsm9z0ypOUqmEfSUmzIxFnRua+Ey2idimZE64MEecM3miJmOPU9Z+1Nm+6WtJH54yhhhXhYwr8Pmp1F/h4YS9IADmfQGTAkmhuIMSPab1tsg+6MxcKsccc77xP/spPS2c5fnYWW4p7trY5LeR1qd/sYvYqsw+4ITWxUkXNDMOO+cecs4+4Kzd76TZ55S51ylzD54Ze5zUe/GKdr9T9gEED6LxBHnqiHPSv47+SxU+k20HtTYrZ5/vW852kumfWdxfoaCw4Uub7IPOGXudGlQ2AgALc9yjE7evKfUwKHoFWXzwEgJg3pdRsmDOVB1aJnSzYC6VZ064nJxv16eZqYQjUeytxV+0Nds5Uxa8UckcdqYIyT6IcqPA7p/P3AVeydyLKNLh55hzzA7lwe/loz3MudLM1Fj0ZRfz+ysJbA4ZKmnMKZet021pBdb9T7D+87MBDyfs8r+rtgAAIABJREFUBQEw+SlVxE4oBbcUt5MhvzVyNWKOOV9bqujTTGdMUy5sUdN4zSSbkM1KlCEnXHIJSArk/g+8mLmHyJ/jODIWtlW5coJN0+p5JpOFiWhyT4vgzUrmpItmn1O6XknLOegcsVVpZ4XgHjZAv4tTEatf6rOx+OAlBMC8F2CycFNIABCL4acvrGb209kDeEUEA1qbnV5gl3XAiTmJOMncazhm9YEIedPjmXuccg6iENPud94/V96+ngmFLgC4yCWrJ9pkH3JijupEjWYfKnstaiC0WjSB3BQyQ1rqkVDECvJwwl4QAPNegMnG7WApPKzM8gav+rUwvbjYHkeijmN3/ibO/v++joPIJ3DuZd938ibV0FChR7fGJk/WODAnXVAh3IsaXf+WZgBQpxZkRRH3giLyU6nPxuKDlxAA8+6AUeG8e9cOejYk/1vXNj61wI45ikb8JxMphQOPwiZ9r9OysTZyonoBgJ2VeMfXMjr0nHvI+bOmqEbWqw3ZMQJgOJzAwwl7QQAMh0xv7TjpBpE5sG+rzoABAJmleLmXjXY/ShX1p9K+CocKezddP4gcsM6hl3ueiTWjj2XWYRxza1IV5U+b5sRZQRhZZhmAxQcvIQCmyIDRbw3706w82dKzienjtQ7MKRdtQfPrLON+rAQONxNtSrvPKeuAc85BPIvycuaoc+4R5+XjbMxMdApkn2amj1crnGRo9I/+QjD687MBDyfsBQEw+SnF9jEGiVhclaWOgxEDdWiRiGHhcOvcw86sGV0Uxi1Knkwy95K1H8GAA8fHyGD0CeIedgw/xxx2Tt/tFLfTMXSzMnyrkuENGRf4FdTQ/Mqd/82+iqPOh0dhIzaSIn5WLRKGlfOzAYsPXkIATH5KGeCE/oxFt+LkCOjaXocWpa342E/y/2vvS8CiOPO8K14Zr8QjKsds1mRmJ3PsZq7dZOdLNnPkmUlmZ/J8s5nd7EwmO7v5MslkQDB4IoKKNIcil+KBoiieiAiCgKLxzuGJERQBuamju6uqq4/q6rPq2/d9q6urD6DR6NBiP/XAW2+9XV311v9X//v/frmMBRA0DJSUjgIvjWF/ROe2OZ+ve+roihm7EqZlv/vE4jen/Perk9544SuvfGfC954Z//XIcRHTx0bPHLstbpr7aEh8xnoIGAO6dsx5WRWqM2Uy1nkFimRB7310dgbgROkYxYBhYFqIEf5VLybuRyIQLdoO7Ec/lNHy/NzxQAw7Hn0vnkc/JmA7HGkpj9weN23eryf/9v985UffnPC3s8ZOmzzGL/jFKwuqWv/wt+OdlVG2EI1y5cCyzJVFInUfw7CI2RjRDEWyRyGYyqNX8BHQGDWAQSkoZkgZDpheYsb4XoxuxUxd8P3qCOaIgJKYmcReekGm0Fe+M4HYHSHVRyOKR0qFrQK6DmtAbIsfEkLclY5Fa96RAyJVWAipufjNKeLRYZjm+PJIqSbKXhn179CmjGEglcDYDyfhEWYQZgJwonQ8vIBhMckEshEllJtlBSlZvTew80exbflY3Acgu+trc0GW4t9EYb9+DTtYAuOpTJikEI0OnMHJYr/8mUy4P3v+ccuhSOkkiGuUxScY4+iqiqJ2R9zYMMt4IMJVBRSMEHGiDJOOR7//2qSg+Jg2eczc2SBT4KfPT3jr5Yl/+eXk5P+cmvveEzvip5UtmX4qfaZQERkqe/G4+flDkWJ1lK0y6l//UTad/d/X4e1zIQioymv4IW4o+AhoPBSAoSFz4CA8UAKjAySv61qxa6ew0s3YikXYm7/GvvMcNgMGswSlSwzD3v4txlMQZggzLGBH778jD3/pWxP6ds5h9kfc3Dj7TMZT+xdPz/vTE4v+bcpbL0984Rvjn541dtLjj7387Qlk6Rxn1bAB46yKaiua/R8vT/z59x5/7+eTVvxu6tbYaUdXzLicO6utaDZVGmGDfkaYEwa1/+MwBBNmiQ0XLQil/CHAZwxlkS964miWfwQZ7yPjsh4LgIm3I2wBw0IRwgafsR3oIeZu7MZ5rKoUy0wBpP+jf8Kemgkyq4J+pkyZ8t3vfvf1119/9913f/WrX02ePBkN+91vMNHskc1ELC/N++2vR457/pnx06eMmQAtS94Dvi1gDKgPVQVXOAxfDqNaakDMssy76mEg81EQpOyqipKjmO8tZFP5ORkz5ZFSXXTHtjlKsHPV7kfmMshjvQDxb4UhYBiYv8FiXdewhkNYrgaL+X/Yv/wIezoaG++NAvGh4smTJz/zzDO/+MUvEhISNm3adP78+Z6eHqfTKUmSwWAgSbKhoeG5555D36ncCc/vxM7V+CRR+pxxgJ3vPzu+v2QOCJ73CD/DatigcPUl2hJC+XXpOAiyHg9NzZFzMKoVljV7iMWtUG7NHybe/bACDKonZAX6xr/8MzbR67n2od+xY8dGR0f/5Cc/effddwsKCo4dO9ba2mqz2bw3rWrZ7fb29na9Xl9XVzdpEtAi3ngdk0SQ6/K1uT6nVe9MGPfY7CfHfOfpca9+9/E//Hji8rem7Jg/7UTaTN3uCOBJHL4OMwhlA3PzUeB+CdFHOcipgh4SDoF8slW/l00Ov38T2kUGMRuGQnDhPkZFIX7NsAIMCxTTj/6sJl3QjoiI+P73v//OO+9oNJry8vKbN2+yLOt3n4PsEgTR0tJCEMSrr76KYdjcp4Gw95f/kX/lnZ9MTH176qJ/m5L5308UxTx5KHHGmYyZtzbN7t85hzsQIVbDjC4YWi/VRTmropT4+aDUOaxOvhyo5o7KyE/XPtWwemZfCcgUuB+Bao7KKFtV1EvfkpMCqkpHvWA2MLmEFWCc2LpUmY4nT5784Ycf7t279+LFi1qtduAbHPoIy7ItLS1arXbevHkYBlKOc1djY2EK4/eeHS8chmaxY6D2CkhgrIe+9mrwvndWgozIYWFgWINd1VE9O+b84vtylH7kDOCjlGqDJx4P68x+g4EBoC7qUs4sVDbgm3+HCSR0T4U7o7jr6x+YasIHMCYMb8aefBIAZtasWZ988snANzW8IxaLpaWlhaKonJwcDAN6CxLox43FzmY+pbhc/Ijsfu8C305N1JseVwl6Tzz2GHY+6ykxZL9+6BeJBLOFv5GNH/kaaE25a4IL9y8OTEHhAxgXtmmtzF5KSkoGvqNBj4hmydUu2Y9L7j5lnN1ub2tr6+3tPXz48GMqs9pffjk5qDsfZBojGazmLpX7UOjYVRVF7przpKeMmHznGLbgN1OkY7LbNJTzhD7GXR1Fls6JhKUIIudgdAe0sIc76d/d9SvEEdAIE8DQoHzW/A8A2cyYMUOn0wXcSNAOt+TukhxnJKFIMsdIxtcldq5EPw5ck+zXJLcefUcUxc7Ozo6OjkuXLs2YMQOR5qwnx/SXRLh94xrBa7g26lr+rLw/PVH44ZPNhbPvh4CESNxVBVKIp05U1QeAVxb7q0n3CTAg0qwhOvOPcsHZ3LRRzGSCUhPsDB/AOLD49wHJREdHGwyGYHckSm5Kcl6ShB0Sv1wyviGx35LoJwE81Bt65YACfA3KSfr6+lpbW+/cufPDH8oRY5l/nCo1+L/IpdqoXR9N+8oE2bnzxKTH9i6a/qVHKyPAgBTiqqgf/703Ox8huWzJdKnO/8JCZyODj3QdidLtjkBuma89gwnEaNVkFMoIaIQJYPTgbbc6EdDM448/3tzcLN+Iu0uyV0j8asn0lmT4J4meDmoF6TBJqwJJUKYMQio3KbOh1Wrb29ubmpqeffZZDMO++tRYei8IclGTl7s6qnu7/yt/6sTH7myd48eI1N+6l7Z4NOpq/qxnI7wllD54bZKzKuQ4y7vyBUkN0Ss8Juby7aPVXKZQRkAjfADjwCp2opcsVlVVBW7EdUtiInywoYSBBQWJuhNkg32ozIbBYMBxPD8/H/3Ait8FYy/10eVLg4TWlCZMu1+GARhZ3F8yZ+dH03Lfe7J2xQz3kbuP7wwRumJNVNuW2VO+ArjoL1+FTsxR6JNRKCOgET6A4bHmC3KoS0ZGBrgR+2HATNQwCL0NfKA/U2ZDEISenp6XXgJF8KdOHNNeNNsdoNBLdVHVybKGIwMX/oMykg8vCpE0QxwG0sg8Jf/uqxUbXQ8ojlEf/R8vAa/whAnYnYuj0vGvUEZAI3wAY8SMHVh0JCDSt99+G9yIq0nSj7t7wDBzJdGkTEhDQ8N4GFrzn/8yUaqPDvQPuqoidXsinp7lFZAwDJszbSy+C5SxDJH6w2KYdCy6Ypn8ashPH5Wqv0IWAY3wAQyDiRz2yo8AYF588UVRlCTJJjFfvXsmox8ruVqVCUlOTkZ8ozJpxkAillQbdTr9qeei5RTfr0eOq1818z4p/X9FaLmqopi9EV+dCV4NP3kZGpdHm1SmkEVAI3wAoweW5fdgsP3MmTNpGhrKuFfuHjCgmni1MiGvvPIKMMHNHKvf46/uq2lXqo1i9kWczXzqVPpM3Z6IIdHizcs/CgJn1KcasW0klf3hx6Bk2aSJWM81GBgeurj7EIxUyCKgEWaAyU9HbAC7cuUKuBfzB/cEGGsWmpCenh4UefnHn00aiL0o9O2shNExtSDqXun0a/DlsPZxPfClnM18qiZlxqWcWcy+CFRfz1YhB/NLR0GIzV+x5J/fZSu70rHoXQmyheNgMVxD5iGAQei3EIATpSOsAOPA6stkwOzZswfcgzXvngBj/h80EQcOHEDnLU0ARe4UuhluA0QW18A6LyeiXUeikt6aGjlD9jyOHYN9LXJc4r9PMZVFiDVRvTvmXMufdTUPLHQByoofixZ9naTD/ekvd7xYHXV78+zJ0FYW9z4EzKhKLFPwEdAIK8BYwILak4CkgCUnJ4N7cZy8J8AYXkQTMn/+fLS+ys2Ns8UA+9iQtMijcuDHgKmgsWBWZdKMkoRp//XT4CnH//zchFf+fsKcaWO+MuGxx8c/NuuJMS98Y3zq21O7isGiLg/ADjbk7VgPgbLL9orI7z0LEoxe/CEsijmqFl4OwInSEVaAMWB2HHvmaQCYN998E9yD2CHRE+/BUBYhSZwoScig/Pzc8dZDYEmjUEhKPUaqi2L3R+S898Q/fn28eq0LmRuG9i9i+pgd8dOkuui7SzlWX8+X0pbqo977OcD89GmY9tYoiytT8BHQCCvAMOCxvQ5LUnz72992udySZJfYr989k9GPlaRmmrFHRgJz9ds/nijVBTEoD05/0rHo82ue+oe5A2R7BkPL888//+c//zkDfmJjY5Vkz/9drTL17an3Kell8LsIPCodj17/AQwOx0DlEMl2ty6v0DWHkTMyACdKR1gBhgaRGiiBbNq0aX19OLgN42tDA4bBJBaGRRnhm5L3lIbRYZJU/0VT35j/XbYCwzTvTJWOD0eBgTnxH2tmKgX8586du2DBgoqKinPnzq1YsSIQLOPGjauqqnK5XMoDAIqY1bphwwZkdcAw7FDi9CEND4H0/aX3SHVR9avkdWtLNowyvV/9eHzbYQUYGFFWtE6mw/PnL4B7sSQEAQyIRwblKkGNJZP8amTbMX0b1ngaq9vv6QSAyak6cg6d8eDS6VLdgIavQIoE0WU75kROl12ZCxYsoGlaPb2vvfaaH2ZWrFihHqBu19bWPv44yBX75lfHGQ8CI1vgLz7IHrE6qmXT7AmQcSYvgHUORg4HuN9Xon4wvu1wA4wAalOgT3FxMbgXoVgGDA3FBjcEiRmz9GAfH8Z2bMD6bmDv/QF74zVQbOn3v8WWzccSPvTEFALAfFCwXo5R+3wdWNoldKKUjkXH/krOuAqKBIZh3njjDQUz77//vtvt9p1/n73ERBheimEHl/z1mYyzKkq/J+Jv4OqZf/jtI8DITyrcAGMGK5hOhQt+zZ8/H9yE4yxQ+mmQ7l93APvTO1jSRxjTh21cg73wA+yH38WWJ2BZK0BFi/Tl2H+9hT39Vax6j+fxA8D8PHHpYgzDnpj0WOuW2SEW9rZCsxhVOicCVr//wQ9+MAgSysvLMzIyampqfMARbKerqwsJZjH/OvlerNuhY36QkY5KsArnC98ALOanL0Pf5ejx9wd7OqgvZMC4cWlkbKIb12lxHMc98o9bchOSiAtW0Ik+LIsLPG5gcd6M63S4Xo9rtThnwJ12nCDAX0n03I5EGQwMjuMUibt4UhIoMbRNEiibiUQ/Z7FYBp7hYRwRRVGrBffG6AnJFuqVhHjBdzFMEihaR+A4mMMR8vQf0GUM/NDCDzCSiDM0IFStVgsjyiTJrZMk3GSU0QIIjsFdDpyicFoPgMRbcLMJdzpwuwB6RDXyRYJlKXA2Cndbh0Gjko2yGmXADFTDaeBpD35kxAHGRrF6ABitFhddowkzwZ8P6A1DwHiwQRCEbG4SGcmNu5zgRUgQAC1OB3i6WgogRJIgPxHBX5cDbF724gZtGsJPRxHifQOMKIqobuDADwIccblcBAEI1ECPDA5joww0uB6SxN1O33lTv3QevvbAzyksAWO1yMxEfrWLRsCpJcBMbApC3LjDFuy9qAhjnsdM68HZ9FoidHlMFChJoOxmmcOYzeaBZxgcYVkWx/Ehh/E8j26M58gRIZLZKCPzCDA+zzYMASMCJKCPrDyIVq9oq8aDuu2Bh3ekpwdxmLsAjNtKUhAyUDgE+QZBPw6HA10tSZKD8BmXy0VRQDgkieFpU3ehnIT4FekRYAKeaFgCxu0EQgIQXeRqGI5AGITegziMbpgcBjAZG2ViwQsYx3Gj0Rgwt6DD7XbrdDo0BuldQRUem82G1H3AiAwjQh5DN/iIw/g91jAEDOQMiAj1elQqyS25ydAR4jNSBDoPUvqHpcMgqcxtJbWAK4CPwWBQu/BFUbRarQoMEMLRSJqmjUYjDz8mk0mvh0IhPMbqiRBf/w9gmGSjuEc6jC9iwhMwIg6VApyiKBFZytw6Hxh4xC2l02HrPlK5ubyswH87WLB1a0FBQcHGwoKy0sLy3YUHQ99KC8v3FJbvLert6UZIIEmSYRiO4xiGUaACrHY6wmUlOagPoJFB/3IMQMuwVKn7ChvJRvV2tZWUlOzft9sudPsYSwJmWJnqh6HhCxL1XngCxmMow3Fc1gpEdvDn5LT3FOQt1ayO8d80MYsXxcTExMybF5OaNE+THJc2zK1gbZKV69NrZdnMDwkEgRsRDGwACTYTaaAJLYUrowlo0TbQhN0MFH2AluEY6+4rYEQruT4vOyYmZn58TNXhTYPP8EN1VA0R33Z4AkYEfkn0EQQB3JFoHvKB7duzzh8tq2M0mpilSwBgYmNjVi27G8Ds2Z6LqJznSEZPaEngA6VInNYRJpZwWnxgIEHNx20lnRbSATenhXRbPWNC85neX5CoruHzs9UfxcfGxMQkfBSjSYtp+uL4kJP8kAzwBYl6L1wB47TLgJFttaIw5KOqOVKEAJOfu6TmSJG81RSV7S9Cn4r922rKi6tD2/LXJCFeVF1ejChY4Q9uKylaQdCA3KMiQXkklLvAAM/2wDAQ+g/p+5qzUhfEzQNvk4ULAWBy1y0ycbeHnOeHYYAaIr7tcAWM2wUc+TiOe5aCcQ75nE42lCLA7NyR4R0s4jZPTI3VOAzvR8mWNQgwJ47uDZ0Kw2WkiydKt2avXAbhEgOYsCYNSLPlZQXeqXuI1RhfkKj3whMw0EOPbEuewuSwsPKgj/DiZ5UIMBsKlgl8h/zgRRBahj4mNlR7rtXQvT47GQHm87PV4QKDoNcZlMt9duaIJiUueQkAzNatW8sPbtVoZPXvi8b6hx8zaoj4tsMYMLC8K06SpBwp7NYP/iBbbn6MAJOVEc/SzQpg3E4Pswo55JEhWjJXJSDA3Go8E5QQR3inIjG6eNLFQz0KypCiQGl7m7JSF2hS4pYujE1MTOzu7uYt3esLEtHs5WQvNBpaBp/qsD/qCxL1XtgCRsItJpkzOBwOcEuiYfDn1N97CT1yzeoYEr/qHSyCcGYQk0uF6gMhuq4jtKQlx/XduTrCsRF4eZKNcvGkiSX0WoIigRcYWSmsRoCc0q3ZaclxmuS4hPmxZ86coSgQYdR2+4wyew+/YKaGiG87bAGj1j2sVggYixcDwWQzWncjMz0OPfU7bee8g0UQ+Y/jIHAzxAj/9uZPEGDSV8zX998MpMiR3CPZKJ6Tg3rkV47qX82RCmBeT4lLTZpXXLwVaImMHHZ5tHqrgpnGq7XeCQw22+F91Bck6r0wBozTAUgcx3GTCZZIFm2DPySLqU1xxVxTP28JV6I5hdD0/quf1iPA5K9JMtMdIxkeftemDucBWUAUYWC1nEHHMlqSIBobG+Pj4+fHx6Ylx+VkpXR0dOA4bjHDiG83LvAdGzcsR5hZt3YBx94afMLD+KgaIr7tsAWMG8gJyFDGMAy8KSfIJBv4bed29m0rSkXP+8ypfd6RQO+XHYkcE5Lef/pYGQJM0fo0Fx+qIOdHuw9+F/EWxE4IgjCb9G4nByuymyS30S4wOevWACtyTEzKso+aGj8HXBf3ybfr6fosKyMezWHZ/jzvHA487WE5xhck6r0wBow3lUVZwc+tHfzx7N61Bj7s2KPV2yWRlkSjJFpArSbRhUIkQ1Rjag5tR4DZtTX7wdP93f2iJAC9hSD6m+GH7L/D0N2MvovC7xD97Yyu6/THR9JWLo6DnpeNhQWtt281NTW13m5i9N6NY2+VlxUgwGhWx1z8rFJ9VGmzdLPo6h/8WYzoo2qI+LbDGTCSont4Msnc9ACPgZLctCQaDlfs1qSlaDSryssP+s6DxHEcevU6zEMnKpeVbkCAqdi3+e7I98F/S7JRRG/rmjVrYmNjkxITNJqlmrSlKcsXxsYCX37K8gWa1Us0q5csWhgfExMTHx+P+pctBcEQCkLS02IVDqN0BjbS02JLd60JY2OaH3GodsMbMLxZVlftdju4KZAYQ8JNJ4ksiJcRrZLklCS5VsupU6c08FNSUiJHbXrmwmaTk2yG9Ma4reSOzVkIMCdr9z140g/9F2XbsU2OObhw/gyMmotdmbxwZfLClOULED+JiYlZnpgAAJO2ZEECAAz6xMbGpK6UXZaBqBiyp7Xl9ADvrxGf7eyhisD/4QwYEWQgow/P8557cynw8PR4/1+5cgUBpqCgQDZGew9KKL54SKnMbuorWLscAebyhdrQyfeBjVR8LG4raTORFgOI+NRriaampvh4Lx48uAD/4+bFzo+fl/BRHGIs6NDiRZC9QB//kPDwG5CVEc/omx4BZiS9G2COPjKUDZS/pYIDaLa0tCDArFmzRratwRwvp9MpCIKS6WUzDRYjY9S1Z6UuQIAZaV5LFL3mtJAWGAmqTsJBb5aMjAwEhry8vEuXLl0c9PPF9YttbRe7uy729V7s64N/ey72Dbz1914q25+HkFOyPT1c0QLS3Qf8hDOHgZYZVHLJEyAz4H2iAz09PWlpaampqcnJye3t7QaDQa/Xo8RgmVXBf+ygLn+8s1GTEo8A09166YHxjUF+CLEU0QoK2TB6VEjDe0MEQZAUSekoHaMvrzy0YMnChYmLsvPXsWYD2mgjozfQWlpHain/L8MKGCwDwsNB4RhUUcTPJgYLjIBDEl5cvBpEnaXFnDq55xFgRhJ7Qc9Mwo2yru7xxgRAxuVy2e12nuc5jmtra0tISEBSx9mzZ700BVsE9F0iW6rDMqDqr3gtM1cljASvJSiXYQUsRUcpWTbgfgiS1LF6mmNoI2PgOYvbykvCza6WJE1ykiY5OWNFJ9XNS4KyWUSr2W01OSwGq5E2Mlq91g88FAVmW67qhuolQKg4HcCRZeTw2y3XEpfOS1oWs2plTGfHhTBOOAugIqUjzDmMCMr/oEoUsBwZIwgCgofJZEJpj6RKLuno6Fi8eDGSSWpra0kC12kJVg8SV6xG0smTSqmxQQodXfvsGGIvuZmJVkP3IC/++30IMBYBcBU1VAiC0DF6A8+ZXbyB55QUai2tM7t41sZl5GUtW7182erlpz8/a3Fb/TfRyosARRYRgKetu732WF1NTU1jYyN6vxAEzjK4ww74idsJqiUiqRjH8aqqKjS3S5cuocgOtytsKzMp+AhohDlgYNiy3SbXxPDjGH67BIFrSVyzOmXJwtikxfNO1Ja5eBKlBAPR32NKQrmTBI4D+3Kw8pNnjh9EgNmYuxKkvgSkuzyYHhQPhgrtyaRMEjTHmBxmiyhYJRsneILtPBOhN9AWUdhZVooAU3Jglz9afPHzSeNnq9dplqUlL125bGlyYsPJBs+ZAEg4g1yCVP51Al+/vgBx74KCAlC5Sg+luNBq94ws+S0AJ0pH+AMGYsZpB7UslFed8lwpEmQIWzhgLHLypGil9hTnaFLiNClxtRU7ArPnJRsleOpZMrrglcqOVuxAgNldnPNgsBH4K+A6Tap4MAJCxWmBnEEAMBCtWhpUqyEIgjUbKB0s4KSlzG7rucsXEGAy8rJonh0IMzhLpmSsRCOXpS1P0iSvWrO6h+pFp1VmGDB2mrLyjMVI5manrl65ODlpQX3dUTSAM4Qnk1HwEdB4KAADMSPBzBYrDwrD2gT55UeRuGJjRfCoPFCEyL2sdEMgISKGgwoK4zgup5T5JtkrXsvKA0VBz3C/OyUbZTZ41RWtXmu0m5EQJVO/aDU7eQLKooCreAqoafVai2jt1vYmp69ASLjR3jwQYBpvfyGjBcpvqN3Y+oVFFDirkVKK5eC42aiXRFPHneua1CWa1CUZ6csool2nBYWwQDyrX6lRP4PByNwNwInS8bAABs27CM040Fxj9sgjFt8qkidr9yHAFG/MCErZkkA5LCRiVkErlBdvzEBnePC5lkhpUVefYUwsLwEBzCICrQPxFl4UzApIaJ3CE1iLgZcEk9OSX7QeAaD6xNGBANPccSsQMM0dt5DxwOyy0hysTwVZCcfqjlSWzZ8/Ly4uNnttutvFWS3yUcEahkxGwUdA4+ECjPK6EkGpZaQYShmXAAAOdUlEQVTt+zkiPz9bjcg9W7P4ZO2+U/UHArfTxw5UH963F34qyvedVo05WbsvW7MYneGzM0eCQu7+dUoCpaCFIAnOauQlgTUbGCPLCSaT02J28WYXb3JYOJtJUfeRdKSldYpB7EhDDbKVbSzZYnbzQTHDClzOpjw1Zgq2bmAFYG2TYSkJBt5IkIDX9ff3p6enI41/166dksvoEEB1XMClLY8Ao9DlSG6oLM7qZP3mq6cQuQ/5FxVMiYmJSVwUq0kJUn6p6crH9w8bgWdWR+aTFGm0mfw0ewI4XOAWqMzhOKml9KyeNjKM2XCx8dKCxIUfLUpYuGRRN9UrsyZfjd/itvbq+3fs35mSsXJF5qqi0m3d2l4/aPGSYLSbSS3V3NyMYggWLoi/cf1zSTQJCofhHwFmJONEuTZVHICayXS3XhoSKmnLQb7hqmXz5oG4RPBJXgpyqvy++CC9lurVNQiSUJQWk8OCFHr0Ovf7S5BE0KNtbW0LFy5Et3b63Bmg/wSgRenpZwicJZVdvwaS8U58fBKdLWnZYrMRl0QTQwMzwyMdZuT5LhWEBDZUTEbRZGj8luKn31KwesfmrIG2ki1Zmwoy0+EnMyO9aENmyZasLQWrEWw0KfE0fiuQD9yPHkmgnBYSyj4gQ4UTgCQmE65oNbt4TjCxZgPwUXK0nqNpI8OaDZzVaHJaLG6r0WZCjkiSIhVfZE5OTuy82Lj58XvK9wH9Z2DADHmIF4X9VWVx80GU2rp161hGa+Lk4reMJ1tzZFmNA0nFrydAdVE6HlIdBt0/dGsiTYYicVAvT6DMdEdOxlJE9G1NFwanbx8piMQdFrK9+QL6bk7G0geWa6msBAZsuFDL9ydi6GrkJZtVsgFFBe16zQACD/uRI99oNxvt5mNnGpauWrZs9fK1hev8zzZ88KwtzElMTYqbH3fo0CGFy5GkJyzAjxxH/q6Cj4DGQw0YuGiMxZMCwMFVihzmfoVLhFIhCRTk9tREJkn8wqlqJJttKVjtMPcPjrcv5ahaGNPSugG5gWg18JzeQBvtZn+dRLQa7WbGxBptyPosWEShHe9clgb8/UlpyWXV5Ucaau56K6suT0pLTkpLXrpq2bXGawgwJInbbdBoOfLhEXiFAThROh52wMC50AMPHvigMORdsCpKWnJcfdUutxXUSRlkE2EZSwMNDEH9/f07S3YkLwH6zIPJtZQEym2VfR4EQZgcluCAgWEs6B71rN4rsHl4BbKYESRhdvEITpzd5GcEUxvE7q6duyWf4Q3IbkYQnsWtAslx5Pco+AhojALAwAWYkN0ILmRJHt63GYlVWakLCnNWDLltzFmxMWdFRlry8uXL58+fj+xmh/dtDgwU+FJYivokko2ycPI6Z7SRCUSCLE1BwCD9hDUDZ4uflCV7+ikSAMaDoos3LielJd8dNgK/lZSWfPHGZV4SDFZ5tVEgkoWj1/LhDu8PSZtUVfs30MSNyycQYEL/q0kG0TSJizxWs5iYM6eOg5pMwYLN1BR/720UWAmYg1NmDgrF+zWMNpPBagSdIghM9gpmEE5AJAuQ1m513T5w5ODmXUX3uJVVl9/quo2uh5cExiQ7YfQ6uARv2IWTBTAWpWMUcBgYOCO6cUUwM7N4XWVJ6GhRRmpS4pYvAbbm4uLivr4+isR5o1x0/N6BEXgGFDCGBC2aG5i9eDiGRQTqvkUUQFSyhfOR32QI+XMeP8h9abuioGNkQ5mRC0NNRsFHQGN0AMYToIksswSB281kf8fVxs+OX/20/sondZcv1KLtyid1gT3K0csXahs/P9Z1+7ISbIbjYFkL79IuX2rksmSjWLgAGE7gkDkMTO5yUIwclo+IldRSZicPWQ1AEcCSAq1gDZLTkpzWb0wn2W2wm/w6A3c5u6lb2+uV9yBoleBQmzXcMBOAE6Vj1AAGWsyUgn3eIDHfwMrA13xgDwroMrJ4b29Pf38/cM/BhcJBzhnMEQj8yl30QHXfs+gsDJoMJFO5RxQ4wYQSKpG/BTElsL6sljLwnNFu5qxGWVpTQcXktOw+tLeodFtR6bbyoxWl5XtqT9WzAnf04zqT01J/5vi1lusZeVmtve0Wt/VQ7eFte7Zv27N96+7ikgO7WIG7cvPalZvX0DW09d1Zsz7bYIMCIfwJXgJXha6EovAwy41R8BHQGE2AceOi2N9y6/K5c+e++OKL4/VHaytKDpZuoPtvdd2+2NZ0oaftMo3fKt6YQXRdFwXKZuw9f7Li8P4tJ2v3GXXtokBRPTduXD559dN6bW8TQ9wqWp/e3dmqUCeB46yesJlgjg1aS+weGI5kA8uVoZMH9714SJ+XBL2BVi5jkIaB59R8xuziu7W9eVsKsgrWkpy26nh1dmHO8XMncjbl3cE716zP/vjT02s3rOskuy1uK86S3drebm3v1VuNqWvTaJ7dfWjvvsoDCDDt/R3ZhTlqwKAYTdooh2CyrCdARhUgKyc8j0ANJwAnSsfoAozT3lO4ISl7bVpeXt7u3bvzc9ds35RJdl0/cXRvdXlxtmbxjcsn89ck6fqa3VZyd3FO5YGia58dO169u2h9msD11Bzavq0w/WTtPryz0UC15mYsNWrbBBOpltBAUXMtSOFESc5KXtpwmYzaZ2q0gZywgTmM1eQwa2kdCCSD6ft6FnhjaCOj+PURijirUX0es4v/oq0pM39NVsHaz65frKirLN6741rL9fTczOK9O1LXpl24+ml2Yc7OslLKqFN+vb2/Y836bM5u2l9VVn60AvV3EF2BgEFWByU2B4QtS8CVabXgZiNuMuJmE1icBzAfaYRFkCj4CGiMLsA4bN3btqa2tpzJzs5ISwOwyc3OMGrbJIEy6e5sWJfS33FtfXbyqfoDur7mbM1ilrwtCpTD3J+5KoHquVFzaPuFjw+LAtX4+fGDuwtzMxONunYACQGkczF6b44KIlA9RI7NBNaTkNNy4GAk1A0OIUmgGB04IelrC1YI16chAsuYyWkxOUDAMkAF3ECCPs+BShcWDqDOw5RQgxW4otJt11qu3+xs2Vd54GDNofNXPiE5bX7ResZqWL+t8MzFc9mFOWcvnT9x4eMNxRvXbyvM3Zy/bmNu2rr0mpO1ew/vP3DkIM2zOEteb72Ruzk/UNsB0Zk2r2AWPMmPAuARUVLTCHHRBOBE6Rh9gClKbWs9s704Q5O2Kj8/X6PR9PcAcetg6YZDezY5zP25mYllpRt4tutsQ/mOzVnV5cW7tmZXlxe7eOLw/i3nT1aIAtXbfuXM8YN5WcuQqAbSziASHGbSyIA1X/0+JFzykkO5n2awwCXKbUbIkbmQkibtSZZG54He/YDMe1/Sl5EAYeODCmgcQ1H9at6ijGEFruZk7b7KA2XV5cV7d7T3d/To+lBsckrGynOXL2QX5nRre/UWpovqudnZkp6beb31Bs6SJKetqKvMyMvasmvr5p1FNSdr128rDASMn2CmTAtB4J7YOLmPoUcSZhR8BDRGF2DQWsrbt6Xt2b224fievNzsrKysK1euFG1ev2FdioXusBv7cjMTqZ4b6PXf234lK3WBUnys8kDR5vxUxGeonhsb1qUogEHjERtB5fO4YMhB1AGqC1AEraNoHcnoSQNDcQxAmpEhDDQoysHSJKOnKBJ8GCNIEVNIHDV4t6BsfoeGtdtJdi9bvfzC1U9v97Rl5GVVHjticlpu97R90dbU0t3aq+9fmZXa0t2KzknzbFbB2j4aR7uUUddF9fQzhMFmbOu7k5GX5afDyFcCLXhKcg6tpwQr47QZXHaDw8ZaTDTlKXYDDNAjRJ8JwInSMboAI7r6W1tOX7lU3XnnwokTu7ZtTV+XndXQ0FBUVNTd2ebiSQvTka1ZTPXcuNV4pqps65GD27I1iyv2ba4uL/70dBXe2Xjlk7orn9R13b7Yd+dqbmYip20LlKwU6Uu0UnYzKDzJ6uFS4x6RDWgaqlo2QO4ivXHEfkcZswEkVKpYCu/2wY/frnrkkG2T03L+6id7D+8vLd9Tdbzaz6xssBl3HdytpMHQPFtWXe43Bv1Er76/rLqcG8AADS1msvuf1lNgvQARrBeAGi67QTvS8pkVfAQ0Rhdg1GEBzTcaTp4oLd2Z3emxdGkpnNN1bt2QRvXcoPFbbU0XOm591nfnamfL521NF/DORjU2qJ4b2wrT/TiMeoCa56B1yZ0WUIuD50gTCxwsjB6wEb0OFEkiAc8BQgpJ4HpQTw9X5DpQUkwE/ASRptJQgyFop3rAX73Ni4KOlV2ZnEHHGXQMTRkYrdPGSqLJapGtfNYRkm0WgBOlY/QCBoHHyt9xOftpr1W2X090OC39Q8aJuXiCZ7uGtTiMwnkkmw7qLTrRphMFrVvQguhP9Bc2RMFbvAb4T8IfMBYR1BJAcZmKJgOXN9NKoslpg0vAqRZvUr/a/gptBR8BjdEOGPAwoNyMVu1Dz9JAEyB5ZphxYkh3B4xlKGeoW9CCYTYIGBtoSwIpClqPDQDAiffEXHKC6WEADKy7qcSYEaCEIqnVkoKFAfnMvOyuecRhRph9fSCrJSx5ypu9lc20JC7AkuRDshpZDLMCrd1AE6g4oNypdlzCNAG5HzAWSkSwsbOiwwSSCNCuQLkFLQxSljUeow0AxuLyGMqUhkqr8R5Vd47ItpxoQBBAGINqjOjk9LoRVpMpgLEoHY84jArSEsh50nmSZ3AY8IJCkgeHDajMZJa98koutA9mUIFML2a0gL3AXckNl4B2WgFfkutoaiWbVilaC0rDiPdL6X/Auo06+J9ltG4nZ7OyCC1gtpVogIHeaw+sX8FHQOMRYFSA8cQ1KwXOof0KNxtkCW0g2KBSZkicC7IeE4SB5LZDTkIoqBAFyu0we9d1ctkAxqxggGTT2gUTtCqTSCTzo2zFpjzy1X2/K7eIglInTR2IoNONpHizAJwoHWN2dfx/2pi718VUa6sAAAAASUVORK5CYII=;" vertex="1" parent="1">
          <mxGeometry x="481" y="400" width="124.67" height="220" as="geometry" />
        </mxCell>
        <mxCell id="OR4K_Lvooa0aKepmsGJe-64" value="" style="shape=image;verticalLabelPosition=bottom;labelBackgroundColor=default;verticalAlign=top;aspect=fixed;imageAspect=0;image=data:image/png,iVBORw0KGgoAAAANSUhEUgAAARAAAAHgCAIAAADi+qVbAAAgAElEQVR4AeydB1gTy8Kwl2waHRSxUgRpAiJNRHrvUgRBsWChqdhAERBFVAQVsaACil1RrKgoih3rkSqIWOi9Q3rd/f+w13xcPeegHrzXXHcfHjKZTGZn3pl3Z2Z3kwCYk9XoH0oAJfCNBIBvTIcmQwmgBDAnq3nCwOiGEkAJfAMBVJhvgIQmQQl8JoAK85kE+ogS+AYCqDDfAAlNghL4TAAV5jMJ9BEl8A0EUGG+ARKaBCXwmQAqzGcS6CNK4BsIoMJ8AyQ0CUrgMwFUmM8k0EeUwDcQQIX5BkhoEpTAZwKoMJ9JoI8ogW8ggArzDZDQJCiBzwRQYT6TQB9RAt9AABXmGyChSVACnwmgwnwmgT6iBL6BACrMN0BCk6AEPhNAhflMAn1ECXwDAVSYb4CEJhE0AmQy+cLAVlhYOLxl/6fClAxsw1smNDeUwD8kUFlZCQxso0eP5nA4/zC3wW//R8KcOHECKdaJEycGZ4qGUQL/XQLICBMWFgYAgIWFhYeHh/tfb97e3vPmzSstLf2WMv+gMDQaLTAwEAAAOTm5CRMmAAAQFBREo9G+ZZdomu8i0NPTU1hYWF39r+9dqK6uTk9P//uZRnZ2dnp6ek9Pz3ft6H8vMZvNHjt2LAAAGAwGObJ//R8EQSTywIED30LgR4QpKyvT0dEBAMDFxaW7u7urq8vFxQUAAB0dnbKysm/Z62+SJigoSOnPNn19fYRAenq69J9tkZGRfESFhYXI8QiJyc/PBwCAn6Dw3zfEK1tbWwAA+I7xs/oNAzt27AAAID09va+vr+errbe398OHDxISEuPHj+/v7/8WPt8tTGZmJuJrQkLC4B0kJCQgKh87dmxw/O8cTk9PjxzY9PX1AQCQlpZGnvK7e3p6OgAAPj4+iZ+3oKAgvh6RkZG2trbIe5WUlGwHtsHC9PT0fHHIRHJGheH3ut7eXjExMW1tbX7MF4G1a9cCAHDu3Lkv4v/q6fcJs2XLFmQa9uDBg69zfPDggZycHAAAW7Zs+frV3zamurpaSUkJ6dn5+fmDOSDCpKen8yMHjyeIMIgn/P+DhYFhmD/AJCYmAgCQmJgIwzAqDJ8nDMNRUVEAAFy5cmVwJBL+8OGDkJAQf8D/OsHXMd8njIODAwAAtbW1X2eExNTW1gIA4ODg8FcJfqv4wsLCyMhIaWlppCsjgaCgoPz8fGSBgQjzxSjBH2FgGO7p6UlMTPTx8QkKCkKmWF8Iw+cZGRkJAEB2djYqDJ8JEmhraxMVFdXW1oYg6IuXPD09AQB48uTJF/F/8/T7hHF3dwcAgEKh/FWOFAoFAAB3d/e/SvD7xPf09CCG6OvrIwNLdXU1cuwHAABZtRcWFn6ei/3bI38g4s/HkBlddXU1IgzylL/07+npUVJSkpaWRvCiI8wX3Qw5QSUvLz9p0DZx4kQAADw9Pb9I/PdPf0QY5OjY2tqKXIRB/re2tiJHRFQYhHhPT09+fn5hYeEXS83q6urs7Oyenp4/nXHxp14+Pj6IG0FBQTAM8wcWJKCvrx8ZGclf1iPDC39phAozuNOTyWQ1NTUCgaCiojLIF15w5syZ7e3tgxMPGf5xYWJjYwfPJTZt2oQKMxg3fzAZTIkfRk4A8PVAEktLS/Nj+MIgGvDXNnxz+PtCbBk8EUeF4cOBYTg6Ovqv1jCDk31j+MeF2bhxIwAAKwY2AABQYb4gnp+fn/55Q859+fj4fI5IRxYbhYWF2dnZ1QMbcrpscCbIRAuJR2Z3+QMb/7Ryfn4+cjpBSUlp8FUXVJjBGNXV1YWEhGJiYjZ/tcXGxm7cuPHgwYOD0/99+J8K0z2wocL8PeXs7Gz+KazBKfkr9Z6enqCgoMGny5Bk1dXVPj4+yDllZGEzeIRBwkFBQYNtQRf9gwnDMHz48GFRUVH+2P51YPz48V+85W+e/ogwLBYLhuH4+HgAAD4ObAAAbNu27f8PfywWC13DfI3774VBVOEPPunp/xp/vs5n8GIGefULVZBIdIT5Al1FRUVJScnbt28Hr7qRp8+fP29oaPgi/d88/T5hPDw8AAB4/PhxSUkJcuaBL0xQUFBJScnjx48BAPDw8PibXf6GL/29MF8f82xtbf+K0uAR5q/SoMIMJnP+/Hk1NTULC4vOzs7B8e3t7dbW1hoaGjdu3Bgc//fh7xMGuQ4zuIGrBrbBMeh1mK+Jf3E/2NcJvj3mW7Kqrq7mn3H+9pz/V1NqaGgg/TM+Pn5wHZGr8P//4tXkyZMHx/99+PuEuXjxYlxc3KaBbfPmzXFxccgaJi4ubvPmzUh8XFzcxYsX/36v6Ksogf8YgZUrVyLC8K9uIbu+c+eOkJAQAACrV6/+9sJ8nzDfni+aEiXwixCAICgvL+/169dfl6eoqCgvL+/rOwC+TsmPQYXho0ADKIGhCaDCDM0ITYES4BNAheGjQAMogaEJoMIMzQhNgRLgE0CF4aNAAyiBoQmgwgzNCE2BEuATQIXho0ADKIGhCaDCDM0ITYES4BNAheGjQAMogaEJoMIMzQhNgRLgE0CF4aNAAyiBoQmgwgzNCE2BEuATQIXho0ADKIGhCaDCDM0ITYES4BNAheGjQAMogaEJoMIMzQhNgRLgE0CF4aNAAyiBoQmgwgzNCE2BEuATQIXho0ADKIGhCaDCDM0ITYES4BNAheGjQAMogaEJoMIMzQhNgRLgE0CF4aNAAyiBoQmgwgzNCE2BEuATQIXho0ADKIGhCaDCDM0ITYES4BNAheGjQAMogaEJoMIMzQhNgRLgE0CF4aNAAyiBoQmgwgzNCE2BEuATQIXho0ADKIGhCaDCDM0ITYES4BNAheGjQAMogaEJoMIMzQhNgRLgE0CF4aNAAyiBoQmgwgzNCE2BEuATQIXho0ADKIGhCaDCDM0ITYES4BNAheGjQAMogaEJoMIMzQhNgRLgE0CF4aNAAyiBoQmgwgzNCE2BEuATQIXho0ADKIGhCaDCDM0ITYES4BNAheGjQAMogaEJoMIMzQhNgRLgE0CF4aNAAyiBoQmgwgzNCE2BEuATQIXho0ADKIGhCaDCDM0ITYES4BNAheGjQAMogaEJoMIMzQhNgRLgE0CF4aNAAyiBoQmgwgzNCE2BEuATQIXho0ADKIGhCaDCDM0ITfE1gdLS0oKvttLS0q9T/o/F/Lgw1dXVSUlJBQUFXxApKChISkqqrq5G4pOSkrKysr5Ig7w3KyuLn7KgoOBn4/7TkiAFQ0ryRSH/4dOCgoLcge1rRP8w5+99+1+11PfmMzi9g4MD8NVmYGAAw3BpaanDV1t0dPTgtwtu+EeESRrYQkNDAQAwMDBAnhYUFCANg6D09fVFZEDSwDCMJOMnRuIBAMjNzYVhmJ9suFAObrKkpKTBuxj8koODQ3R0NFLmrq6uYdl7aWmptLQ0AADIjpB+hRwOCgoKvupmPIbDsl8kk6/7K7LTYe+ySUlJSPN9kT/y1MHBYXCLp6WlDWMd/4tZ/YgwSD8wMDAAAEBaWhp5mpaWhjSVsrIyAADKysoODg4IO6RD8CMRyj9bGKS1oqOjAQBA+grfSUR1BwcH5YEtLS1teIVB8uePq1lZWfwydHV1Ffz7xi/VcHWCr/trbm4uvwDDtRfkCPg3wgy7n8NY8n+S1Y8IA8NwV1eXr68vcrD8YsqB9NHQ0FDEH36HQAL8wxLydPAIIy0tPfiYhAwLP1a36urqgoEtLS2N31f4JeEfER0cHBCZh1cY/ghjYGCA5CwtLY1QQnb9xSAzvCMMsgtfX1+EAIKCD+HHeH79LqRef1qRLwqAFONnz7e/LuFPivluYaqrq0NDQ5EpR1paGjLOKCsrIzMrfl8BAABZGPC76WBhENDIe5E3fqEK8vSH50iIlvzm5Lcu0jV/qjB8VwfXKDc3d7AwoaGhSDfi/x/G1v3CyejoaH59h3Evf7roH1xHPnx+Ww/j3v+LWX23MDAMI+sT/jEjKysrNDQ0KysLGfqlpaWzsrKQiRkyG+FPyZAFz9dTssF964vwj6Gprq7u6uoqLS1FFhJI6/LV5XegnzHCfOHq4H7D77v8eSx/NfVj1fzTd/Frx3/16xj+Sz8W+Ps6/liegvKu7xYGWSLzW3pwoKCgIC0tDTk/1tXVlZWV1dXVxe+m/AXP18IgmfATDF4x/zBHZKzjz4X4i/6uri5knmZgYKCsrCwtLR0aGjq8UzLkPOEX5iNHX+S8CKIx0u2UlZWTkpJ+eCz9mg+ih6+vb25uLlKGwYuor9P/QAx/FEX2ZWBgUPANG/8I+wN7/HXe8t3C8MdipNsNnl0gqnzR+ZKSkpAzJIPVQsaiwVMyfoeGYfiLHH4AFn+sQ7opkgOi7hcnkUJDQ5OSkpCSDFevRUxAFjDIIIYsIfgrfgAAkDUGciJkeE+pFxQUfDGCDT7z8QMw//4t/AMikgxRaPC4yg8P71Lt70v18179bmH4RfmrgR7p7sisveDzxn8XEuAfmfiL/uEVBhlG+NeCkJ1+0bSDi/TPFR2cGyIMcpEKGXURYf5bnemvWmpwmX84/DdUfzjPX/mNwy/Mn87Zvjh4IzMT5DwbsugfXmH+lPjfNO3PEIZ/ZEUC/8XTrD9VmD9F/T8c+ePC/A9DQauGEvgrAqgwf0UGjUcJ/AkBVJg/gYJGoQT+igAqzF+RQeNRAn9CABXmT6CgUSiBvyKACvNXZNB4lMCfEECF+RMoaBRK4K8IoML8FRk0HiXwJwS+W5gvrsf97Kd/UmQ0CiXw3yOACvPfY4/uWQAJfLcwAlhHtMgogWEj8C9hGuvr0T+UAEpgSALoCDNsxx40o9+BACrM79DKaB2HjQAqzLChRDP6HQigwvwOrYzWcdgIoMIMG0o0o9+BACrM79DKaB2HjQAqzLChRDP6HQigwvwOrYzWcdgIoMIMG0o0o9+BACrM79DKaB2HjQAqzLChRDP6HQigwvwOrYzWcdgIoMIMG0o0o9+BACrM79DKaB2HjQAqzLChRDP6HQigwvwOrYzWcdgIoMIMG0o0o9+BACrM79DKaB2HjQAqzLChRDP6HQigwvwOrYzWcdgIoMIMG0o0o9+BACrM79DKaB2HjQAqzLChRDP6HQigwvwOrYzWcdgIoMIMG0o0o9+BACrM79DKaB2HjQAqzLChRDP6HQigwvwOrYzWcdgIoMIMG0o0o9+BwP+mMNVvy/MvXriTff5tcVFPV9fv0JBoHf8zBP7XhGHQaWd2bfKQk7AQAVzGS86erBBkrh81b/aZ/Xv6Gz+1N9TknMwof/WUxaRzoX8j3NNa11j+vK+9EYa5//YC+gQlMIiAwAvT39db/bak6Om94hcP37/54+qR5MQA53Nxy5Lm28a6T1tlNSV+rk3CQtu4ebZHQ13PRS5IXOh8JCak6O7ZsntZ3U3v+7pbqRRyU1Xh5e2Bh5bY30lZdfdIwoubF9tq3qHmDOonwxxksPpq254Mc6b/kewETBguDDe3tNVUvKp+lfPo0rGSgjvP72Qnr3aNmjNl82K9w9Ee97Mynl7OuLpv4/mEVfuXecd5mnqrykbPslnvbrHQQH7/UuviCzvu7l/7+ur+jk9P+lvKqaTW96/yrm5b8PT01isJodfiAk6Gz13vYRfr777Wx+XK0b2drY3/kYb4399JH7W5qv4RUk86q7fw40lBrLPACNPa2p134dzpPXHXD0W9OB9f9/JEU/GF3L1rnl/KqHxx7fRmywfHF5bkHm6oKiu6cfxxVurdzKS3D7M/Prt2bf/2RToTEv0Mi2+m1pU/4tB7YE5XS3lu/dunLBaZ3F1993DY/nnTjoU55CYteXpiy4NjCbt89GcpS6sRcXP1Ju4N9nz35Caps1UQW/eXKjOTTcl5tpPDYcMwTGf1vv547Jcq3jcW5lcXhgPBLV3ki4dTDoY4XN899+mpVS/Ori84tvrl2ahnx8IyljpsttEsupHeVJ5demtLTeHD2rLHr85sfXkpPS9je+m9C4U3Tz29mhVpo5az2bz62ZHyRyf6Gt9UPLna9P5lS+Xdvvb3ry5sK764Mf/Y5jMxcx+mb3h9IfHj8xsPk4OX6Y12VRrpZzTl1MblNQ/P1764xaJTv5Hp75yMA8OM9iYu/O8LxM9E7pcerWt9A8NwH7WutObs52hBevylhenqIxcVliQudU/0lLudZHtji/OJUJuLMbNfZG8tvBT3/sG+lpIL58K9D86f1vD6YkNJTl3hnZaqJxV56Q8ydxRkHXxyatfTrAN3zmQm+k1/kmJ678Ccwpup13ZusMQADuPGPbp6rqow/1qcT1/FQUZrDqXhFrWtiNL5qb/+zrubq67tXnjtwPri26erS583lz9vLX9aWfSSw+EIUtv+Z8vKpVO7cs5XLZn10WhS14ZA8ttX/RXP+qtLmP0d/IJUNt5/9f4qDMM17Y/eNtxA4plschfpAxcSDLa/rjD9JHJrZ8+L2xdzM3e8vrIx0wMfpwhslgEueJu9ykzMiXJ/lb6sqTTn0aHwPc4TDs3RrH51i0ru7vzwpDR7y6MjUYW3zxZkZ/xx40zhvetJAY7bvPW2eOgl+Zv6ygCWBMBJDJ/o77gtYNYap+nPToZSKuN6K1P7a673v09ruqxfuE2uMNW26nLwu9u7qwqy3716Ulv8+EV+Tm31J37b/7YBCIY5MMxmsxkMBoPLpdOolPKi+sPJhV425foTq2dotc927FvkTju+j3X2IOXC/o5H5+sq8jkMGsyFW/reP3pxAO7tu1e26FXFzm5G65MPe28WhZdUn2ayyAKB9NcVprm5paqqktRR0/LxdXfV/QueMinqQLoysEMWiJ9A2KcGpOkDFVfmf3y8ff9MxVMr7Dre3aa0lXx4cuLevsV5ewOfnN7xPDu5ueQGqbF0t7euNRHwUJJaqi23Z6HXyU1rriSsTA+2jtfH+4/GeyiPuZMW2FWW8angUM312YWbxr8Mk3oVIfF4p9W9fYEvzm358Dir4/3TvCtZLwoE8sTOsHRENgwzYIhMp3W1t3TU1rR3drR3drQ9e1CbGPPBz/mtqWalpe47B+MGJ5OO2XadfnaUzWHQqYPwtnWUs3uOHPallDzurnjytv7h9V12tFSvM09kL+b5Pbwzv7hsx/u2m/XkF7X9r1gc+rAU9adm8usKQyZTnj9/+ab4eV3xzeayuy/TVp/z0zmkK75LTTxKXuSIt9HpxebF2UEdhWsvrTN5ezf99d3jBRd3lVxKvLtr8ZX1HteXWd0Pnfx4rc7TWL84XZE4V819K+fmHd5eee/knX3hO1w0jrqI7zUQDpcVmi2OWaSpcPlAbFvphaq8vaU5KSXXkiuuxFXlJb+/f6jp9dmWorOX03Yc2r2jtbnppzbGr5Y5BMNsGKYxGX2tDV2vn3fcuNx273b/5SxazNreUxm9Lx537dvaEujT5m3T5mPX6mnVZ29MdppBcZ7OtNLn2OlzMpLgPfGc+HWpqVPrr64rvBb77HJY8omR1/MU9mUov0pbBCeGwXFr4cz9lKunqK+fwJAAXAH7dYWBYbi/r6+wuLysrLTm7cu2msKm8rymoqs9nx73fHrIobyDoSZKy6u8jA0bZ093mqxsiMPtmmv9eKdfzc34vk+Pax4er36QeSd57bkQt3uHt9S9fdDXWPq+ICc1wHH1NJWVhioxOqOCx+GDx4DekkJLRoutVJPZ6GNWfHNv3atzVQ8zXmYn3kwJe3xy891TOzJ2x6dsj6v59PFX69A/qzwQzOSwKf093fnXW3fFdUSG9AR5dwT6tG+LpO9Yzw30YS7yYq5aTIsP64xaTIsL65/vzLI15DqZcVxMIRtDjrs5x9mEaz+NNc+Blb4L3rH54E6V51keD/fOqUqx23kd2LFFhLFuKbw3Ht6xpinBPyve5Nh6m+71/txnt//8XMHPqueP5PtLCwPDcMnTgrKiso5eUlNjfcXLe2/unXl+LvHeoYjK26nVL7LiAlwNhIWMhMGFkyX22BBWjQeCVSecjA5sKr7UX3Ojv/oate1Rb+NTmNtM7al79+h67p5tT8+dvpwQt8NCb9kY4YUSQJiCeKAMZokYcMReOnWJ3dEta4py9uXsj9q7dum+6DVH9+xI3bZ59yK3Ryf2/AhdAXwPl8OhMmik5vqupLgOlxk0D2NugANzU2DP/k2MvTFQzGJ2gBPb24q1bB5trhM1YQ0jcyc9YT0UEchZ6MK0N+aY6bGtDFgzNDk2BmwvS2bsUs62tXsilE8e0crd5VtyfsrBi5jz6yYUJprnpbkezbSN2z3leYABvHwufHgj60Iqnc3gcn/p1f+vLsyjK5eSQ5c/zr5QV1nRTyLTOVBPV0dDVUnbp6J72ZnRS+YtcbYJM9a5FWeXt23KWT/sJg1g0QTJF1k7PuXH39u/4O6+eeVX1naWpFGannRUPW57/4LU+vFt/rUj89x22k/bbWe408E4e/2y+xnb75/a/urGiWc3Tl9I3Xbu0K7zh1JOxq46EuR+eKZ2tCr24bF9Atj5v7vIEAT19XR11Vf3n0jlbguHtq6Cd6xi7N/YuSeGvH0VffNyWpA3x9YAsjPkeFlynYxZm1b2n9rLfHCd+/g2JzKQY6jB1VfnTNdkz3djL/MjrQ4gH9tNjgvetHTMlqQRD08HPshXOpU44dhy9eD1cieijSqWTX28zejWbqPXEXrUZS6cA7GMTxXUvh7uL3w28lcX5lV+/oaZbnsXzDu5MvBa/Lo/rp798PpFb3d3b1cPlUxms1ksNqOvu6264kXpk6tPslMen08peXj5Q1Fu0Z2jL28cL7qX/fb59U+FN2rL8qrL8t88vvDmyeXyF7cLH+b+cf968ZPcl3nZD3Kyzh/cs2/d8u1Bc6N9XWJcZyTaqidMl02YKpagI7FJU3rxGNzzq1nf3fsE8A0MGrWzo63lWHq3lxVn1QLm7mh6xo6OpA09x5P75ruRLQ3ZlgaQqS7Xxw5auxgK8ubOtqetXMAuego9usXZsZ7jMI0TOAu6eZ51YDtrsWfbYpvG5Q5d5w8cjbGPC5VOCdcMWS4aFzHu8HLV3HCj3uRlsJMFrDWJ5KFfGqHXMUcXWuXPSE8kf/zAYvy6l7x+dWGaamqivL13+PmmLwk4EbL41IolZ9evOBcdcTom6uKObXkZh+8cTcs9tPfG4b2PLp15dPX83XNHLqRsu5iy7U7m/scXMp+cO/LgTPqDCyfyzxy+e2LfnZMHbmXuzkndcn3/xpPRS7f72KyaruGvJOMySthBGmsnBrhLAYvkcGGTxUM1Ry6ZJLNUQSpgnEig+tiOxjoB7P/fXWQqqb+nq6vnanbHfNd2Yy3K7ijm7bM9GQnMNfMgu2mwgzHkbMqdbc/dEcU9sRdaM4/rZgKZadPC5jI2hnJjQ9jRS7lFj2l5F8mbQ2izLJs3mT1aKV8yd0r9HJ2jc0dH+OPiZ0s9maMF74uB98fBscHcIG/IcDKsOxk2nApbGnJcjUhbI0nNzUwG7buL/p96w68uDJ1G3bp4cbSb604/78zlIRe3br+eciA3Nf1q8v7T0bHHVq7aP9t7q6VJlJHusimqS7SUgqcqL1SUClOWiJ0kmqwjlTltxGmzkVmOE674KF6fp5yzQPWir8LF2WPOuUhuVwUWiQGziICrCGAjDFiIYGwkCC4y4u5jR7iPl5k5XsZljJSnrJjXCOwqs6kcFvM/1SL/zf1w2Oz2puauD9VtUasaTDQoh7Ywn95ind/PdTaGTHQhJxPI35m7fQPnRR5nx1qulyVkNx0y12e7zaAtcGbdv8a+fY6xbXVXbBgp2Ifha1613eJlhMlTF4UKC7lC+wkFSyY+tFKqN1LlBHtxo4Oh6BA4xBfytGI7TmfYGVAstCjhS0lvy0ndXeiU7B91gp2rV4fZ2Wx0c0rwdk9bFpqTvO9R1uXn124VZF15mJp+Oyb21Px5iRYWG6ZoLlNW9Bs3xnvsyOUKErs0xM9MH3HRatQ1W6kb9iI5DsSbboQrDrgsK3yGMTFenRCnitswETtHGuMoImRMBI2F8WbiwnbSYq4yEu4y4o7SIhbiRAcpYWthYI2j5T+qgEC9mU6httU2thdXtJ462rdnE+PeNe7Fg9xQb8jaEHa1gAI8uIcTOc9uQ+EBsN002FgDstWHZppzvCxZs2xZ89zoPrZ0N3O2q2n3Que3gXYfQpyeu+kUGoxvtJ9ct9DipfOkChfllmCb/k0Lu3aGtK5y7fYz7bPUJM2y6Nu2rre4uL+lhc34pa/G/OojDAzDB2M3LbGwiHB13eThmuQ7a++igMy1EVe2J97bf6Bg356H8Ruzgxbvd3bYOs1gs7ZGhLLCgvGjgxVk4tVHpOtInDIUPWtMOGeKyzLHnbPAnjYHT5jhDuhht6iCkYpg4ATsgnFYjxGgEQFjRARnCGOtRLBOYqCHBHamJN5egmgqIaKHAWL9ZwtUn/+nhWVWvem8nNVRUdXzuoT25An73g32uYOclf5cLzvuPFdOoC87PIS5YCZ5kRdliQ/NejrdRI9kod9vqcdwMabZGvRa6ZOCZvevX1Q71/bdEreO2dZ1UxTarLSbQ1xLbLVLpyu/nqbyylKrxGDSOzPNhjmOncnxPQ9u95UWUa6e5pQ8/ael/8nvFwBhTqXsXWBissrJKdbLc2/g0mORUdlbt93cFp+3NfZu1Mrby+Zn+bkesjNNNtLZqa2coDY+UkE2eMKIKBXpZA2xk/oip6YRzhjjzplgz5pgM43AA1PBBHXMdnUwWgkTIgcGKhLcR2KNcEJGOIwpAbQTw3pIE/xkhefICs8aKWwvKTwFAHatWfmTW+HXyp5bWcRc4UeLW0O9eIZaWEj5WNP/7j3p0T3ygeT+iGWk5Qtoi7xpCzwpS3yp21ZRls+mBLpTVs2mrvRhxCykRgd0zLHuCHCp9bJ9Y6BRZ2PYZz+jUluuzEi5e7Z1hZfJK1vtN352Jcvmle2Mq798rmhAp+wAACAASURBVP1BXn/edVpqEnvdIo73dO7DnF+LxVelEQBhck6cWGJuHu7mtmHWrG0BizLWb7iTevDlyeOlWUfLT6YUJq/PXzXvlIdNmtnUA7pKezXG7lQeGT5OMlxBIkVT9MRUQtY03PkZ2GxT7Mlp4P4p4O7J4OZJ4EoFMEQODBiHnTkCO4OIMcRhZhBBa1GcsxR+lgzRb7Tw7NFEbxmimxRBDwCOJSV8xe1/OYLT20WLDWOGzGGtmM+OXc06vJt5+zKzsoTR8IHe8In6qYr2soB56yrz4knGjQvM04cY147RzqXSLmVS712iv7rdlZZQsz6kerFv2QLvYj+30mX+xcvnvEmIKty18UHCymeJaysPJzYfTuzaGUPZtIId5sv1NuO6GHCdp7JmGXHrf/WrwwIgzOMbN4MsLcPdXNd5esUFLE4NX38rJeWPM0fLLx0tz9pXcnjji81LL85zOWJjcMhQZbfmuB1KUpsniIWOEl42XnjlWHysAjZhEm6LIhijAEbLg+ETwICRoKcExl0StBPFGGGFDLFCRniMKRG0F8O5DggzaxRxlgzRYwTRWQo/DQPkHD/6v+zHV3WDYJi6fwslwJ0WOoe1PgTaFgnv2wqd3su9dgS6eoRz+xz33hV2bjbndAbrcCojeRd1a3xv/OaO5F2te1MaD6U2Hk79lJxUs3P7p72JlXsS3m+P+rglrGL1worFHvVzHXtn2zI8ZnAdtbm2GpCLNuSgzjWfyLVS4TpqsdfNhX75e5YFQJjiZ88CraxWOTlGzJy5ed6CvWvWXdi56/mpI6XZR0rP7Cs6GPs8LvjyQtcj9tMOGqsnaI2PUZJeO0F88ShRb2mi30hCwEhcyChssAwYNAobKgvOkwI9RTHOIhgbImY6TmgaKDQdizHGY6yEQUcJ3ExpvOdIgsdIovsIops0wUkKb0wUeno796tO9T8eQTmW0jffmRTsQ40IZG3fAB8/AN27CpU+g0r/gB7cgi4eg1I2Q6sXQX6usJsVbKnP1VFhq05gKI2jKI8jq4wnT1akGmlSbQxJNoYke4N2S63GGaptxip905UZM5Q5ZsocC2WmuTLTfCLLRJ5tpsC1V+O66nDiQ9FbY4ahY1VXVi53dAxzcFjl7Bzl67crbM2x7Um309JenEwrPrn/5b64B1FB5xe4HXaYvnOa2kbN8eETRwaNlZgjI+IsTnSQEJktiVsoiZsthvUSx7qLga4ioCUenI7FTAOFjEChGViMCQ5jTgDtRUFXSZz7CIKbNMGVN7YQHaXw1uI4EynhdyVFw1ANgcqCfO1053yX3hBfSkQgfUsEdDgZvnYeevYAflMMVb6FysugF/ehU/ug9cHQQi/I0wY20eFqTWSqyVEnTaAoj6eoyPVpKnfqqDbrTGoyUm+cMrFZW7FVT7lbd2L/VAWyrjxp6rge7TGUKaMZ+mM5ZhMhD12uhx53b9SvD0kARpiOlpZwL8/Vjo6rnJ0ifWYnhoalxW3PPnDobkbGk8N7nyTH3VoXcmbezIN203ZPU9s0efzaiTJLxop7jRRxECfOFCO6iuJ9RHEeIlhbYawpHmuIxUzBgtoYjA5GyGBAGEs8xkkE9JTAzpLCeUgTXKWITlJEW0mitSTRWARrOX5UW9Nv97F+8v3r7QGuPcvn0DaEspI2Qhn7oDNHoYtnoGvnoRsXoZsXoaunocM7oYggaI4r5GgKT9NkaUzs11DqUVXoVpbvUprQqjyhceL4WsWxteoKNcryDSryLery7WoTOlXH9aiM7VKR7VGToWrLsgzHcW1VIS8jjpsO96wA3LAnAMLQqNTNC+evdrBb7eS4zstre1DowU1bT6UcvHjg8I09e24nxF2PWHZmnvtBW6PdhuoxGhNWKI6cM1rCXVp0qRQxYgQhUBI3SwTnQMSaE7CGeKwWCKqDoBoGMxmDmQJi9LEYMzzGVRScI42dMwLnNSCMoxTRindOWViXIOSoqkwlC8Znm4bx8Ewretq22L0vbB49ZgV37zbo7FEoJxvKvQLdvARdPQtlZUDHU7g7o6CVC6A5zrzLlwbqHA1Fipp8r/KEnokTOhTGtsiPaZKTrZcfUys/rl5uTIPc6CaF0a2KY1onjmlWHtOuPrpXczRFR5ZlLMd11GC76bKcNLk5x4exCj8pKwEQBoKgpOXLVtvbrHFyiPDwiF8SlBqz5URy6sk9B8/t2nNxy5YLq5cfmeO5w8o4Sk9jpbr8IjmZObKSK2VFdk0gbh9HWD2S4C+GdxIhWBBwejisJharjsGoghg1jJA6iNEEQR0sZgYBdBTDeknh3KUIjlIEG0lhU3GikRhRXQiYY2r8k9D/ytkyPpa3BXv3rV7E3LQK2r8NPpcJ37gE59+AH96GH9yC7lzjjTBHdkExy6FAX8jHETLXhfVUuRpyNAXZ/vEyZDlZyoRRXRNGNSuNa5o4tkFepk7uX3818jINSjLtaqN6NGUpU2VZpgosWzWarQbDQYN77+KvzAQpmwAIA8Nw9sEDy63Nwl0c17m7xy1aciBmy/HdB44np2Ym7T0Su+XQsuVJ3l6RZjNW6GgsniTnP37UYlmJqHGiEWNElo4UnitJmC2O9xAlOBNx5jjsVCxWgzfI8JxRwQipYjDqIKiFBQ0IWAsxvIMkwUaSaCYubCRG1BMlKgLAvk2xv34rDnsJWW2N3WsW9K1cwIxdCe/bBp07Al3Phu5ehx/egh/kQnlXoKun4MxkeFs4tHIhNH8m5GgCmU2BZmhy9SYxJ42jy42ijB/ZKz+qZdK4RpVxjUqja5THfFIc/XGcdPU4iSYFyU6VEX2ao6i6YxkmijRzJZKFCslejfPH/WGvyLBnKBjCVL5+tcrReq2z/dqZbpsWLtq3YdPxXftPphw6tnPfwdj4xNCwmFneYSYzlmppzJsoN3+8bOAYyUBZsUUjReZJEf0lCX7i+FliBC8RnCcRZ4vD6oOgFgajAWImYTDKGKFJIEYNC2ricTpEwjRRopmEiLG4sL4YUVuEoI7FFP6WH0vmUPr6Y5fRwxez49bAKfHQ2Qzo+gWIN8LwhIHzrkJXTvKESdoARyyFF3tBs20hTwvIwwxyMYb0VDlKY6nysp0Tx7aqyDVpyDeoy9Wqyn1UHv9JbmTNOIkmeYmuSVIkrVE0/fHU6Qq9xoo95pP6XKZw3xcPe/8e9gwFQ5iW+rooH/dwZ7uVjvaRvn57IqKO7z5w5sCRk3sOpsZu3bFs1Tqv2YEmpgs0NedNVFg0QTZ4QJjFI0QWSBH9JQh+4gRvUbyfGMFPFOdFxDrgQGMQo4PBqGIwyiBGCRRSxmJU8Th1Al5ThDhVTERPlKAjjNMk4HTERT++rRh26L9+hlwOq3f7Otq6QPbWSChlK3w6Dbp+HrqTwxPm4S34zjX46mnoeAq8OwaOCoGDZ0PzHCE/G8jHEpplBZnpsFUm9CuO7VSZ0KGu0Kap0KYhVz9pfK3yhDrFMTVyI+vlpdqVpfomy1L0JnTry7cZKXZaTSbNMeM2CcB3jAiGMH3d3VFzfMMc7VY52q1ycoz0mZ20cu2huB0ZCckHYuITlq+O8PZbYmo+X0trsbJikLzs8nGSIWPEl4wUmT9CdI6ksK840UecMFccP0ccP1sMN1ME60zATAcxmhiMOgajAmImYTHKOFAZh52Ew6rhsRp4rAYRr4oFjceO6Wj7Hb/CD4Jh0sEEWsRSzo4Y6OBO6HQ6dOUcdPsqdP8m9PAWdPcadO0MfHIfvCcW3hACL/GC5jtC850gHxvIxZQzfQpTRZ41cQxTZRxt8gSq+jiyyphOpTFNimMbFMfWKoyuURxVryzTrCrbOWV8u558s7Fyq+3U/iBXiNT96x9KBEMYJoOxJXBpkK1NqIPDWq9ZGxcEbAtalrBs5bag5ZsXLF3n5bvM3nn+NOO5WlqBKorLFUaHjZdaPlZ8yUjifGnhuVLCs8UJvhKEORJ4f0m8nyTOQwx0F8bMADG6GCEtEKMGYiYhf1isCh6nSiSoCRPVhQnKGMBOXY1O+3U/m/FTuxc19xIjMpizMxZO2w2dyoAun4XycqB7ufD9XN6iP+csdOoA7/JlTCgU6A3Nc4Hmu0EeVhxjHfZUdY6GHEdhJEdhBEtFhqogSZWXpk2U7VAc06w4tnHihNpJ8rWq8tVq4xo1JzTqKzVZaDVa6HRuDIP/4uv/fmo1vzdzwRAGhuEdq1cvsrAMsrNf6eEVF7w8NS7hePKBozv27F0fu2ne4jBH1wVGxj6aWotUldcrj4uSH7luvPgKWeHAkcJLRhAWSeLnS+IXSeOWjsAFjMTNFQc9CBhzEGOKxRhjMdNxGEM8qIPHaRMJmsJEDRGimjBBXZigCAC+ZibfC/R/Jj3j07uuID/65nAofS909hh0OYt3WvnOdTj/JjwgDHwqFd4XB29aAS2fCwX6Qf5ekJ0Z10iHa6jG1ZnImjSaPkmWriZLl5egTxCny4/oUZBtkB/TOFGhXk2lVlOtTntSnY5y/fTJNeY6NWZT6DcuCAQ6gREmdUv8AnOLpXYOoTM9YhYH7tu4JXPX/pN7DqZv3bl7dWT03IXBVna+U3VdlCfNVRi7XlE6fLx4sIzIwhEi80YIe0sSPCQIPiOIc2XwASOws8SwdjjQDgc64EEHImhLxFgKgzOEcbrCRG1hYS1hYQ0iQUOYKA8AoZ4eAtGKP6OQ3N4uUmQIZf0y7sFknjBXL0C516D8XPj+bfhODnTtHHTqILR/K7Q1HNoQAgX7w36esIMVZKTN1VXm6kzkTp5A05Yn6ypSlUeRJ/AGmU4FmVq50Q3KE1unaDRM1fqkp12lr/VJX/PTDJ0OL1tO8bOfUYthz1NghDm5b/9cc8uFNrbBru4bFi5Jid6cuWv/id0HMuJ3pKyJ3Dw3YKW1nb+OrtskFdtx47zGjVw2TnzpKNE50sKzpIkuEkQXSd49L15S+JmiWDsC1goH2uBAuwFhHIVBB1HQQRxrIYYzFCVMFSZqE4lawkQ5AIgNCR524oKSIZdGZads5Wxdxz2wG9q/GzqWDl2/Ct25DT3Ih+7c5F3HPJMO798Ob4mA1i+DFs6GPJwhGxNIT4OjIc9WncBSHkNXHUPVkiOrjiZNHNklP6JRcVTDpLGNWkqNBlof9aeW6019a6BbP8Ow2dasdb438+M7gSAjMMJcOXnK19TC39p2ibPbuvkBu9ZvzNy170zygZPbElPXbtgxf9E6W/sluvreKqqO48ZZyIx0lpH0kxHzlBJ2lhJ2khR2kSS4SOAdRHA2eKwVAWuBx1rgQJ42BNBeGHQS491I5iKNt5MimIgTdEUIiDD7t2wWiFb8GYWEOBx2Zhq0Mw7OSIVOZEInj0Pns6DLl+Cca1DOFejSeejoQShxExy1ElqxCJo9E7a1gIx0WZOV6UrjyYpjeyfI9iiO6lUa1TFxVKeybIPiqGqlMVXK496qKVZqq5frTq0wMnpvaf7JybHaZ3bT+nBGW8vPqMWw5ykwwtzLue5rbjnH2m6hk8sa//mJ4RuOJSRfSdl/YXtSRkTU7gWLY+zslxvo+6tMchs/zk5WxkRaylJK3FFS2E6C6Cgp7CRBsBfB2RBxZgScBQFrisOaYEEzHGhGAC2FQTtRrIMEzmUEwWUkwX4k3lAMP1mYIA8AFzLSh524AGXIvnWTm3YQOn4EOncGunwFunYdunYDunINupDNUyhlFxQTAS1bPDAZs+ZON6RP1epTV+pRluucOL5VfmyL4pgWpbENyrwTyh8nyVepKJSrKJZqqBRPnVJsYFBqYlpm71TuH/BhzfrG1FSWgNx/JDDCFD57NsfKZo613QJ7p5W+c3euWZe1Y9fNlH3XdiSeXr/h0KLFWx0d1xgaBqipek0Yby8z0kRC3EhMZLqYiIUY0U6MYC9CsCbiTQkEEzzWDA/OwIEzsKAJDjQngDbCvA9aOkjgXEfg3UYRnEYRdEQJakT8RAB4cOO6APXvYS8qs7yScS2XdSOPeSOPfj2PfvMu48ZdRs4t1sWrnFOnuakHuFs2cZeHcOb4clwcmWYmFD3dHm3NtskqLZNVm9RU6yar1WpP/jBFq0pXp9JQr3yaXom+bqGBwTNDo6emli/tXYv9FpavjvywM6X+Zq6g/DKCwAjz6d27AHunuVa2C+wdw3zm7Fu99vrOpLv79t7emXQlKurE0iV7XJyjpxksn6wxZ9zYmbIyfpM1rGRkdAgEXSJ+mjDBjIifQcDPwGHN8VhLPGiO5c3HbPEYRyLGRRTjJgF6jMDOksV7jSHYyBA0iARVAk4dhy3749Ww90IBypDe2d33Rzn5j3Lq6wrK8xJSQWH//eek24+oOXn0C1cYR48xdu5iRG6gBQbT/PwpbjP7La27Tc1bjIwb9Q1rdfU/Gk6rMjKumm5aaWZZbm1TbG1baGnzh6XdUzvnl97+hYuXlYbHVCTsrjp9tv6P17/+J2GQhhMYYdpbWkI8ZvGEsbUP956duWbVrV07HqamPEjZmbc56tKypRkezokmhus0VddP0wsz0Ftjbbl0hvFMDXUTWVk9IkEXxBhihEyxoDUe60gAHXGgCx4zk4hxF8F4imO8pEBvGay3LN5zLN5QkqBGIEzCYXSlJBtqqgWofw97UVkMRm9zR8/Hpr5PLaRPzaSqhr7SD32vyvsfvSblPSZfziUfPU3euY8cE09aEd4fENrvF9Dh5t1k51pnbl9jYltt7fTRzvW9/cxKt1lvPGaXe88r9pzzcqbvy9kLXi9fUxy7tWxXSsXx4+9u3myueDvshf9JGQqMMBQSKdx/vr+lzWJb+80+s06tWZG3c9uTg3ufpiY/3L7x5sqlp2c5HjA32KarkWRvud3FMcLSLNhkeoDJDP/pRrOmaLsqKliNkDYlEkyxGCssYI/DuOIxbkSMB08Y0FMKnCWD9R6Nc5IlTBbmzceUhAALBbn+3t6fxF0gsmUzmZTefkoPidTZ39fS09fc3VfX0Vfd2ldZ11dY2fekqP9OQe+5612pJzt2HmqPSuhcu6ktOLzRP6Teb2mD39KGBcE180M+zA2q8g+qnB9SuXRF2ZLlhUHLi1avKdkcW5a8qzwzo/LKxff373V8EpgDk8AIw2GzNwaFzDW3Craz2+rjeXxl6O2krU8PpTxPTSpI3HhnbWC2n/NR22m79VS2Tp20Yar6aiO9UHOTAJMZc42mzTM0WGxkuNhQf4GOtr+WuuvYUcYAYP15SuYmhvGQAr1ksF6jcdMl8aoEghqBt4Bx09EWlIn1T9KPy+bQyWQGmcog0+hkGq2fSumhkLtIfc09vTVtPRU13X+87Xpa2n7nWfersu5HL5qPn6/fdag2Jql2fXz9uri6dZtrwjd+WB1VtSqycu2GiqjYktjNxfGb3iTGvU1JqEjf8zYr8+PtnNqCxz2N9T+pCsOercAIA8NwYsS6eeaWoXa2MR4eh0ODr2+Le3Rg97PUpGdJMQ/WB11f6HbKyWi/gfJ+K/0Ea+NF6sruinKzNNQDDA2WTJ8WZKQfZKAbqD81yEh/oa6mhYiwsZCQKRZjisNYEUFbUdBREmsjhZtMxKsS8OpEvAIABNhaDztuwcoQ4nIZFAqTSmPR6J//GAwqnU6hU/up5G5SX3MnuaOHQaKQO7pJLR19tQ2dxW+a7z6qvXC15viZmrSj1amHq/YfeJuS8mZvcvG+3UUpCeXJsRUpmysOJVaeTv1w9VT93Wv1zx+TOgTmhj1BEubg1m3+ZuZBNjbhbjMPBC+9vn3zg327C/bvLEja+HBDSO5it/OuRqnTJu2eoZ3gZr/G1jJAf6qduIiNuKjzGFmfifL+apOWaE8O0tMOMda3lZQwBIDpA/fFzCCAxkTQRASrK4xXIeDUCDgNAl4eAMLn+AlW/x720kIQxKBQEWHYdAabzuAwmGwGg0VnMOlMBo1Op9DoJAqdNwRRaH0kalcPpaOjv6Wlu6ams+Jt2+s/mh7d/3A56+2Zo2UnD5UdTni3e03lnvUVh7dXntjz4WJadU5m462TDX88o/Z2DXvhf1KGgiTMmdRUf1PzxdY24S4umSsW5+2OfXJ419ODSQ93ROevD85Z5JblZnxguupmfbUoR5sVlmZrrczmKsmbYTEmoJC1CHGW3Hiv0bLeo0d5jpI2x4LGQkKGoJABVsgAJ2SAx0wlYFXxOL4wcgCwMyL8J0EXoGwZVNq/nBkQhs0Thska+GPSGUwqjU4iM8hkSnc3ub2d2tlB7eokt7f1NTf1NtT11tX0VL9vfP7g/Y0zlRfTKzO2Vu2PrEiLLz+x+33W/prLhxov72y+nVFfXEgn9wkKE0ES5saZs/6m5ousbTa4OaUFLby+PfpJ2q6X6UnPdsfc3RB8dZHbabfpSUbqK6eorrO3XmNltsFyRqjhVDsRghmI8Z2osGrGtDAD3dXTps4eJWUJAFYgxnTgi2N0sUI6OIwWHqeCx6oQcOoE3GQCTgEAju3eJSit+PPKyeQLQ6OzPg8y/xKGQecJ09fPolIZFDKtu6u/sb63vqavoba3oaa34VNv/Ye+2vcdlUWf7mV/uJ5ZdWZPxYmd5Sd3VZ5N+XjxUF3O8aYbhxofXW0oK2TSKD+vCsObsyAJU3A7b765xVIb6whnx32L/C/FRj44kPQiI+nV/piCuJCcQPcMZ+NofY2gyUrrbC2jbcwjLYwiLKbPGjvKhoAL0Z0SZqi7Ul8nfLqur4yEAwA4Y4UccYANTsgUJ2SAAyfjsf8SBs/76JgSANw4c3p4WQtibjxhyP9axjDpvMkYh8FgMRgcJovFYDCpVEZ/H5NKZlJJTFIftb25t6aq5+Pb7o9vu2srOz+UdLz9o6nwfs3Di59unaq6nPb2/P6KrL2V2akfrmbW3jrXeO9S/YtHTRVFHBZDUOAIkjDlr14tsbEJsbFe42Cf6O93NjL8bvKORwcSC5Jjnm0NvRnqccDRZK3e5MUqClFWpnF25hvNDWItjcK0Ji2aMGrdDP1V+tprDaasmzbFR1LYWQhwxQm54IVcCEKOwhgDAsizBY/lXa/E4ybjcaoA8PzuHUFpxZ9XTiadQR8QhkmjDyxj6Gwmnc1ksGhkJqmHRaMwyX0sSj9PmP5eRk9Hf8PHvupKUlM1pa2+v+ljT/Wbxle36x5drs47U5VzpOLyoYqLBysup1fdOFFz53zDo5sNfxS0vCvhctg/rwrDm7MgCVNb9W6Fi9NKe9twB9tts31OrFl9K3Hbg5Qdj5OiH20KyQnySLKdsVpXc7mK/CYLo2RXyzhD1XgTnXgzvU3Tp8QY6y5VUVhvqL3eQNNHFOcGAm44ni1OBCFTAkaV93FLcBLPGZ4wGlhwKgH3vrRkeFkLYm4sBoNOIjOpVCaNxqbTWHQai0lnsxgsUjezr4NFpyLCsGgkFqmX2d9Jba3rr3tHbWsgt9aSWj72Vpc1/3GrruDKp/xz724ee3Mto+zK4TfXjrzLPfUp/1JdwZ36oqetH95AkKBc6IcFSZiOluYNszzWOdlGOdsl+s46ujLs2tb4O0nb726NuhUZfHyeR4K1yQbdybGTxx+2n3rKz26rvtJGHcUdNtO2mOmv19XwGzNynYn+Gl11dyLGGcsbXhzwQvYEjB4eVMaCk3C8QUaNNx/Da2KEzEZKtjcIzMWBn6cii8mgk/qZVAqLRmXRaUwGIgydTe1l0yksOpVF7mOR+9g0Equ/i9nXQetsorVU09obSc2fSC0fuz8VN/2RW/f0yvv7597eOl52/UjptbSy60crbp16f+9yzfP8uqKC9urKn1f+Yc9ZkIShkkjbA+ZG2ltudLZOnO2eGbbsctzm69u2XomJPLs8OG22x35b060GmvFTxh+1UT0/23SfqfJ6BdEEK/3t1tOWK8j6jJAI1Z/iP3G8DU7ICouxxmFs8UK2BIwmFlTBgqq8T/PjNAg4bTxOCwDcleVpZNKw4xa4DDlsJp3cy6SSWDQKm05lMehsJo3DonMYVDaTyqZT2OQ+NqmPQyOz+joY3c307lZ6VyOlra6vvpLU+qnzwx+Nr2/WPbv8/v7ZirzjpTcySnIOld7IKL99+t2DK59e3K0tfNJZ916AsAiSMGw2K2VFYKSdeayjeaK3a+aK4CubN97YtvVK9IasZcFHfT322ZntmKYVrSG33Ugp3VnvgOWkrVNkoyaPXS4/MmSM1BK50QHqyt5jR1phhSxxoCXvzkuh6TghVRBUxYLqOOxkHE4bh9PFY6cCwFKjKbDgzBN+Xofjcth0ct+AMGQWncJh0DhMGpdF5zAZbCaNN8iQ+1ikHt4I09dJa6+nd7fSuptJTR/76srJrdUdVc8bXt+ofX75/cOzb/KOldxML75xqORmRnne6cqHVz++uFNb+Ki7qebnlX/YcxYkYWAYPrQhPNzGNMbBImmWy9FlSy9vis7ZGndtY9SF5UHH/DwOO5jtm6G1TXP8ZkP1ZHebRKcZCU4zIoynLJ00LtpUL8pEb4W+lqespA1OyIb3WUuMPVFIGyOkAWImY0EtHHYKDquHB42I4DQAiJ5pO+ysBTFDLpdDJ/cyqP0sGpnNE4bKYVK5zEHCUPqZfZ3M/k5mTxut+RO1rY7aVttbU9FdXdJdW95S8aih6Gbdi0sfHp2tuHusJDej6Obh4twjpXdOVTy68uHFnZrCh33tgvTV1QImzNFtW8IsTSJszeM9nDKCF2Vv3HAtPu5KTOSFFYGn53qecDVNt9BK0pGL01OKtbPwkh8zc/woF9kRARpKq2foe8hIORBAOwJoTwTtCeAsMYwpTkgLIzQFxEzBYqbiQIOBS/6WIhhTANgTPE8Q+/ewlxmCIDqll0HpY9HIHAaFy7OFxmXSuUwGh0llD5wlY/R1sMg9rL5ORlcLtb2eVP+BN8I0f+hpqGypeNBYfLP+5eVPT85X5p8su32k+NbhklsZJXdPlj+6/J4nzANyt8DcFwPDArXoh2H4Y5bQnQAAIABJREFUfOqBILMZq23MNrrYH1g8/3zUuqvxmy5HR55fHnhuvuc5T7NUC+34qfIrNOVXWZu7KcrNN9D111JfqKmyzGiqnTDOBidkL4K1JYAuwqCTMO9rlnRBIV2skD4OY0TgffrSShjjIIYxB4BjmyKGvfMJaIYMSh+T3MOikznMwcLQeMsYOoVJ6RsQppfR3Uprqyc3lZIaSklt9Z01Ze2Vz1tK7zQX5bS8zGp8evLTw2PldzJKchFheCPMgDAPaX0Cc1+M4Alz+9zZpaYmYVZmkQ42yQvmZkWG58THXo1ZfylsaXaA5zF3s2SzKRHaiksnjQu3sfCepOihrLjAUN9vslqgvo6rlJi/0gRXCaI9AeNEBKdjhPQHfvHCECtkjOf9RIyNMMZRDOMqibEUAq4dTBbQ/j3sxWbSSAxyD4vWz2HxhhdkDTOwjBlYw1BJPGFIPfTOJlpbPamxor+2oK/5Y0vF85ayh80leS2vs9ueH2l5mlb98GhF3pGS3LSSW0dK754uf3z1w4u7tUVPmFRB+nEEAZuSvci7HWJhGmZpus7OKmmO3/G1qy9vjsnZuO5meGD2Is/MmWbbTHQipigtUxq1YtrUtbaWvHuT9XV8J6stNdIPMTYIMdByFgEdiRhbHMYYgzEGhUywQmY4ISsixk4Y4ySKmSmJ8RwhZIsDHmefGfaeJ6AZMukUBrWPTSdxmLwFDE8YJoPLYnBYA4MM75JlJ4vUw+SNMHXUzhZSS3Vv0/v2qlft7142l+Q1/3Gx6emxusfH3t/LLLvNG2FKbx19k3/27ZOcjy/z60uf/uK/M/5FqwmYMBUvn6+1s1hrbbrOznKHr/fJ1WGXN0VfiY7IWbP0WqDnEXfzaOMpW/UnrlaTXSI3cpm2StgMgyV62j6Kcov0dLwnTbQSFTbDYmzxoA2IsQExdliMHU7ImSjkIjrwQWVxjKc0xmukkL0IUPb43hekftunLDqVQellMf41JUOE4bAYvACDyqaRmCTeFRg2qYfR3UrtbCa11Pbzrlq+7/r0urH4dtMfV+uenfvw6HTFnWMlt9KLeSNM5pt7594V3Pj4Kr+x4pUAXeYXvClZ/ft3cR52sfYm0Xbm2709M1csuxK74damiBdbgu6smrXT2XybyZSd05RitMasmSi1ZBRx3kiij7SomwjeWRhvjRWywGIscaATDjMLL+QnjPEVE/IRx3iIYdzEMV6SmFlSGF8ZcNZIwFEarC4v/W0N+aLiLAaN3tfJopGQNcyAMLyL/Rwmjc2gsmhkFrmH0dPK7G5l9LRSOxv7G2v6mj52VRe3ll5uKbnR9Dqn7vmFD4/OlN/JLLmVVnzzcPHtY2X3z797evPjq/z294Vf7O4XfypgI0xnS/OOuTO3Os/YbG+aMGtmRmjwhaj1+dsjCpNDji/xSnSyOGI35bCp8ladsfHqI6IURVePxYeOxC2Rws4TAz1FcB6i2IUSYIA0JlAGs2osuGIcuGgM79ctbUQxzpKgqyTGexToIgk4jJXsahakc50/tZOxWQxabzuD1PUvYRi8KRmHRWcPXL7kCUPpYfa2M9obaa11pJpHPe+fdLwvaql83lp2u7Xocusf2S3PT9Y/Of4u/2jprbTi3LQBYS5UP7/eWpRX967sQxfrVQOtqInW0MeEfvmvVxYwYSik/uRAvzjnGZscTBK8nDNClp6LjMjeuPZ0+NJkX4+D7uZXvXVSTJW3Th0bP3nkBiXRcDn8mrG4NWOwK0dhQ0fhVo8HI8aD4fLgOmXMOhUwUA60EsXo4zFmIqC5CGgthnGSBo3xgJvyBDp6mf+zhRw2i07uYZC62AOzMg6DOiAMg82ifx5hehm97fSOJmpLbX9dadf7h63vC1sqnrWU3W8tyml7ebzt+eHGJ0eq7h0tvc0Tpiwv89PjM/fu34u5/NbzZJ1lRv2MQ7Umh2ttj9YHZDefLOolMzmfd/7LPQqYMGw2++DqxTEO0zfYzoj3cDy4NODc+jWnI1anBQUcmu1+KcDqgp/eRn2lTTpjo9RHREwUXTmesGwMNmQ0GCoLLhuHjVHBxqqAMWrgtingGiXQSpz3s0o6eMw0IjiNiDEWxpiKYjQAwH/aVIH4Jvn/TG/icti8NQyNxBeGw7twybtHhnelnzcl62X2tNM7GuktNf31Hzo+lre+e9n69llz2YPWopzWF6danmbWPz5eefdoye20N7cOVd49knTpmeWRxulpTZYZDbZH6u2O1tserbc5Um96uE5/f433mcY/Gn/RH00QMGFgGD4SsyrCxnCNpXG0i13ywvmZa1aeCV95PGhhxhz33OU2+5ynbtBV2jRlzHpVqTWKIivGEYNG4wJlcUGjsItHYhfKgoHjwbUq2Ch10FkKVMTwfhlmMh6jRQC18BgdAjiVACoAQJCT/X+mLwrEXiAuhycM/f+E4d1OxqQh95Kx6GQWqZcxIAytuaavrqr9Q2nru5cdxcfaii+2FOW2vLzQ9PRs9aOT5Xczym4frLyduv7cS/20NquMBvuj9XxbbI/8X9jkcJ3J4bqH1b/ip8oET5gTOzaHmumHmk5fZWcdP3fOgeXL01euSF20MG2e++kFljEmOhE6EyM1R4dPkl4mJ7J0NCFgFG7hSOzCEbhFI7DzpUEPCd6XKjlK8GxRRH57DMf7NSUlHKiKA9Xx4FgAiJjvLxBd+T9TSAjiMil9TGo/i3dmmcJhUtgMGm94YdBYvBuWSSxSz2dhqntr37W9L26pfN1aeKLrUVhL4eWml5frnp57/+D4mzvpH/P27Dyfr3mgzfFYg/WRerO0Osv0OvP0OruB4cUqo84hkzfOWGbUGR+stTlSX939y32wTPCEyUrdu9BId9GM6YGWFpE+sxODQ1JCl+9asDBpllu8g1mY4ZQVWhOXq40OVJReMEbEX4YwZwSO95PiEti5kqC/JDhbDHQSBpUxmHFCQgoYoYkYjBKIUcBiJmJ5N/krYzEjACB+9cr/TF8UiL1AMMSk9rIQYRg8YXi3YPL+qDxheJ+E6WH0tNE7GqjN1b01lW1VRc1vn7eUP2l7faqt+GLjq8s1BWerHmRW3UnNzzk+/VDdzsfd1d3Mt+200Kst9z6SAy83r7/VnveBnPOW5Hay8Wkdxf98U8ar7u0POgMvN/9qiARPmAc3crz1dX2nG803M1/lMStuSfD2oNBN/gvWubqGmZsu1dVerKG4WGWs73hpTxnRmVIEVwm8uzjWUxTnKYqZJYrxEganYTFjhYTGYoTkMBgFDGYCiBkHgnIgOBELKmJBaQDIPn7sV2un/255mLR+Ju92MhJ74AYZ3k0xDOr/CUPuHhCmkcYT5l0b7xTZs9byh+1l91tLcxtfXawpOPvuXmZ13t4Npx55ne/qoDAXXmje+bizqoPeTma3kZininrLWumV7QyL9P/H3nmAR1WsjX+TADYsARW7EBsgAhKQJkiJAl68FImgICJiVETsxl5BIwrSQ+hVINTQEtJ73Wzvu2dP7237bjZl/8/mePefi+Xzfh/kZmHPc559zp4yM+ed+c37zsw7c6AdDYKR8RsZ//O/YiM22rVk12rMRB8wMADMe/zxGcNHzB0z7rXpMz9etOTzV157b96C15+e/vLYsfMGD3r2waRn771txm2JUxOvS7n+qknXdZ98TbeUq7unXJUw5arwNJh74uP7xMfdGh93R3z8HfHxtyUk3Nat2+3dEu7u1u3OuPi74+MNqtggzL8R2tzka/eOcbX4wy6YHYEJe/6Hx2HCjf4IMKShktQVU6p8XHEWrj8CVOw3Fe5Qns18ZqvhtZMM7mwatt6+KBsnXUEV4SuwukKhtkrIqyL8T26Hx2ZC7qbmfQph+Ab7iI1gZm3X+vBl9AHDcdyCp6ZOTx4xc9SYRdOeee+lVz5a/PryufOXTJ0+b8zY6Y8MTklKmnzn7ZNu7TXuxutG97x65LVXjbwq4bEe3R/r0W1k94QHEuJviY+/NT7+lrj4Pgnxt8Yn3JqQ0Kdbtz4J3W5PSOgjkz104w0EGhuE+TdgwtPIXFzQ6wwD4/f85ucfNsncTT5nsF3DBNgwMA7QRFuUlKmK0heT6nxMcQaqz7ZU7DMXbi08tStlGzQuC863uHSUHxIDG6o4OeabvQ8tsrmrYS8oBFSEP7NWKLZ5vsxnRm8GR28GPzxL/1tS/tt/og8Yn8+3aPacKcOGPzNi1NwnJr8+5/l3Fy5Z9tyLi6ZOTx39+JODHhnbL2nEbbc92rvXozdcP/iaqx+5qsfDPboP6N5tQLdu9yck9GkH5pb4+Jvj42+JT7g5IeHm+PibExJuSUjoEx+2x4b1vdfn9f6386Vrxd/es8w3eR3NPmdzZGJMexumHZj2gUsWC3crQ2bGpqJN1bShhNTko8ozYO0Rc/l+S9GWUycPTNqGTtwKT9wKfXCOfv0EOXIjOGc/Omsv+tR2+B+7kMVHiHdOUYuPEM8fxGbsQaVe5teOd60PLUUfMG1tbcteWjxpyLCpI0bNHjdx0dMzX50xZ9HUZ+Y9MXnG8FEpAx8Z27dfcp/bHu7Vu/8NNzx4zdX3X31VUo/u/bp3u7dbtzu7hcEIExIf3/tfv73i4xPb/96SkNBTJps8LLlrldYukJq2tpaARwh6neGZle0tmWZ/eD5Zs98d/E3D0AEW9ZOgE7Hwdg1rrqWNZYTmPNx42lZzxFCyR5e7LufItsnbkMnbkMczoWKb55dK7okt4b7jYGsr5Q4uyyFfOUpYuSbUEcSdzZKGGZsJLsvpWrNlog+YUCj06bsfjBs0NCV55MxxkxbPnPf63IUvPzMndfzkaY8On/jQw6Pv7jvslj4Db+p133U9+1511b09etzbrdtd3brdlhDmpJe0x8Ulxsff1I5KYkJCYkJCr/j4WxISrpXJUqdM6QJFtKslQeooCy928S97LExLs98V9otxMH4O91J2J2xgrQ2UsZLUFuOqXER+Eqg5ZCrdrc7b1Hjqp5Jj66bvACZuQ8dlgoQzuF/hOK5zOgMtH5ylThlchKtpdTkfCrVurOZXl/MLD+MTsqCRG8EVxWyXkkVUApPx9XdjBw6e9OiIZ8Y+sfCfc16d99Ki2fOeS3l62ogx4/oPGn5338E393nwpl79ru1599VX39m9x+3duvXp1u3mdipuiIvrGSe7Tia7Li68h5n5FzA3JyT0kMmWLVrUpXKoiySmyScGw07+YcXS2t5FFu4oa/IEfY6gi2viST8DuzETb5NTxnJSW4CrclHFaajuiK1yv6F4lypvi+bMmrQ9jWO3EuMyQTvflK1x4s6mTTVC0o+2xzaC/9iFrCxmW9vacGcQdQQXZuPjt0AjNtjPmrrWUiRRCUzW+o2jBwyaMHTElDHjX3h61iupC1+aNW9OyrRpj40Z23/QsLv7DrqlzwM39ep3/Q13XX3N7Vdf3adHj97duvdKSLgpPr5nXJyESgSYmxISbgxjE987PqG7TPZN+sddpIx2qWQ0+Z1N4aWVXOGJyhIwTd7WoFdSMkGRbuIwPwW6EB0PNFKmMkKXj6nyoIaTtupfjSV7VOe3Gs6u2ZZ9fNRWalwmCAlN+xSOejTcM/ZEFvz5eUZN+DZW8/7m1oxS7utC9tn96NhMaMYexBnoWn5lUQnMwT17R/V/eMLQ4U+Oejx1yjMvz5q/cMbcZydPe3LE6DH9Bz16V9+Bt/S5PzHx3ut63nnV1bf3uKpP9+69uneTwGgHJu7auPB+XVzcjfHxN8THtwMTtsp6yGSZa9Z0qZLaRRIT9LuaPHwYGEnDtE8maw27k7mbPWLQQQd5vB0YPQ800qZyUleIqfLAMDCHDCV7Vee3NZ7dqDy7/qXd6kc34Zij6YDSMe9X1BVoCba0hkJt+xXix7nhDjHO28x5m38u5+5fBRzRdLlFyqMSmJyjR4fd33/C0BGTR4yZnfL0SzNeWPBM6uxJ01JGjBkz8JFH7+4XBuamXvdc2/POHlff1r3HLd26JXbvfmNCwvXx8deFUYm/RhZ3TTszN8THXx8BJi7+WpnsyP7YXMs/gDQY8AS8QtDf3rPcrmHaJ8ZEgGHCwNCQGzHy9kbGVEHoi8MaRn7SWn1YX7pfdX67/Oxmzbl1+af3TdkOzs+m5x/CRm0CZ+9Dvy5g3zxJjt4MztiDLDtJvn2aeuc0NXkb/HEu1QVdYKMSmKLz+YPu6Tv24SGTh4/956SpC56Z+8L01FmTpj05YsyYhwcPvTdpwC19+t2UeM91199+VVi93NwtrF7CbCTEXxsfd3Vc3FVxcdfEx18dF3d9QljD3CQ1Y+LibpLJzp8+/Qfl5Yo/1dzkDXjFCDDta8f4Wpt8wbCGcQQdTJAnwsCgRt6uoC01EjCg/JSt5rCh7IC6YEdjbmbD2c3G/C15eaenbrcP3YBM3hb2JRu9GXw8M+xONmkbPDYTHL7BPmA18Eku3a55upzcoxKYhtrah++5d2jfpCcefWzm5GkLnpn7/D+enTFxSsrw0aMHDBpyT7+Bt96W1Kv33df1vO2qq27p3r13t4QbE8KaJAxMOy094mRXy8LkXBc2yeIkYHrHxd3eo7tWpehyudQFEtTS3BTuWQ6bZO7w6mThaWThPdy57JWAaW/3oyYOVIaB0RXDyjx7Q4615oih7FdVwQ55bqY8d0tj/h6g8khjRe6XOeanduIjNthHbgwPUI7eBI7YCEojM8d1Xauh31H8UQmMwyH+Y/wT/W+7fdyjI+ZOm7lo9oIFzzw3Y8KUScmjRvV/eOhd9/a/uU9Sr973XH/DbT2uurV7uLl/Q0J8z/i4nvHhpstVcWFUrmkHpmd8nKRhesWH7bGpo0cHm5o6Cih2/JsE2kI+BxPwCtJgf/s0srA7WbgN4xWDTlbqKPNgFh5U0uZqQlsCKs5aa4+ZKg/ry35VFe6U522V521X5O9RFB0ylB1vFnDc1XJE4/y+hPvoHP1pHrOuki+2eXzBrtXKv6AARCUwoVDoyN7dD/bqNWrAkH9OnPrS7PmLZr0we9K0ycmjRj84cOid9/QPm2S9JJMsrGESurW3VcLAXCPZY+1tmJ7xcdf/yx67USa745oetWVFFwgo9jciAb+L9zuZJnf7ZDJ/WMlIS5O1A8MFeDLAIB7MwoEqylSNaYvtjWdM1dmG8kOa4n2NBdvrz2XVnt5cdTpTUXQQ1NQ2B4ORkKPoIFqBqc479dR994y+996JQ5KfGTfpuSn/nPnEk08Oe2xEvwce7nP7fYm977625+1XXX1L9+7hzjGpASNpmHZmrg63+GU948O9ZOERzLi4m7vFTx98n1fsWp5LXaokSXOVm7yiND2mObw8uSfsKeMSAw42wFN+GnHjNg7SUKZaRFNibTijLT+oLNxddzaz8vgvZdk/VRz/pf78DmPtOWf0fAX2giyIVmA4mnht2vgnel0/4aGHZz4+4R+jx08YNDT53qT+vW99MLHXPddc1yehe69u3W5q7wTrGR9/fVzc9eEhy7hr4mRXx8muDZtksutlcb3bB/hvTejWSyb7+NWXouhDJRdkZOf8bWkONnmdzV53S3gl//CSMQEX7xMYF4WIiJmza2mzHNVVAg15+orsxoKdNafXVh5fVXF0VeWxn6pPra/N3aYszsZtus5J7aWIJVqBCYVCRpX8uTFDx/fr+8nCV75fuvzjZ597eXjylDv6DLvhhgHXXH1f9+63xyf0lsX3lMXfGBd/Y1zcTXHxvePib5HF3RMX308W3zc+7oFu8Q90j79TJrtBJnt63DiS6Fp+fpciv//vYba1toa/rOTzNjf5WwK+Jo+j2eP0cbQTBzhAwwIaxqq2yXN1FYe0JXsb87fV5W6tPbet6szW2rx9JnmJg+1avmH/qUCiGJjwIBdDr/v2i+VzZ69Y8vKBt5cefHH21pH3zekhW3Zn/Lr+CT/0S/jg7oTld8bPujFuyjVxz10Tl54Yv/KWuBW9ZR8nyqZ3kw2Xyfp3lz0zavC+rA1Nsbb+f1J22traWluaW5oCAa+ryePyi7yXpV0E5iYxL4XjhkZzfbGhOlddfkpTlWtRVuJ2o9fV5UYh/5M3/u3e6AZGegmaJErPnTy2fuV3Lz+3bFT/mb1lC2+WvXeb7NNbZe/0ki28VvZ0D9k/eshmxMsWXCdbfofs1ft6vJx81+szn1r3/dcN1RWtra3/C8HFHolIIAxPa2tLczAY8Ie/Uub1uAXWJTAepxDw+y4zK/dyACaSc4GmJooijRpFRUHemcMHjmzbeHhDxr7V3x745duD61ae2bG69OTe+opCq83q8HTFFUkiLxI76LISuKyA6bJSjiXsspFADJjLJitjL9IZEogB0xlSjsVx2UggBsxlk5WxF+kMCcSA6Qwpx+K4bCQQA+ayycrYi3SGBGLAdIaUY3FcNhKIAXPZZGXsRTpDAjFgOkPKsTguGwnEgLlssjL2Ip0hgSgARhAE4F+bXC5PTEzMyMiQyWShUKjjJQAABEGQyWTZ2dnSpYIOWygUSktLS0lJkS7JO2wdnwqFQtnZ2XJ5lH2p9KKUlKysrIKCAkk+ETECANBBigUXyEqKt6CgIPvft4gA/+wSAADp6emCIERSnpaWlpwcBWuORgEw6enpsn9tBQUFMpksAkxWVta/rsiSkpI6ZmdBQUFy+5aYmCjRFQGmoKAgsX2TyS58KhQKJSUlpaenRzLyyjlITk5OTU29ABhJ1EntW2pqakcJRySTmpoqiToicCmcUCj0Z5ekfAQAQKqhMjIypGcjYXbZg+gAJiUlRRLxBcBExJqampqSkvKH2RmhKwJM5CmpVrvgqSsTGEEQEhMTk5KSIsCkpqYWFBREpCcJ7QJZRSQpPSUp/OTk5LS0tL++1BGYjIyM1NTUpKSkmIbpKLT//XF6enoEmKSkpI4aRgpUyuyMjAwpO5OTk7OzswsKCqR68fcaJi0tLSkpSTovGQYymUx6StIwqampHUw2uVQR/u9fIBqeTEtLk7RuR4FkZWVJwEjVf1paWkTCWVlZEeFHlLxMJotINQJe5GrHSxIwkh2XkZFRUFAQM8kuWjHpCIyUfxdUe1JmC+2bTCaTqsZIlkgmeMc2jFwuLygokCw9uVwuFQLpqVAolJycHDHYpIOMjIyL9jJdMqDU1NTExESpvRFpIkpNQUnUkgx/LyvpbeTycJ2SnZ0t1SyJiYkRnP7skmQVS1olJSUlOzs7BsxFKxrp6emSmSSTyS4wyQRBSEtLi7RQOxoM0p1ZWVnZ2dkZGRlZWVkdTbLs7OzExESprdLxqUiipdZR5O/lfSB1qUhN8Ei90xEYqYqRukMi0r5AJhJpgiCkpKREGv3SPX9xSarIpPpL6pK5INiu9jcK2jBZWVkp/9rkcnlHk0yqGqWsjdgA0t+ISZaUlJSSkpKenh4BRtItkZZ9R2D+1RsHSDWrVEFK/W9dLecubnrS09MTExMjYaanp0uFPisrS2rbJCcnp6SkSPVIROChUAgAAMl8lSqgiCkrtWf+7FIkIqleiwpUpDRHATAR4YZCoQuAuaAodyz6HZ+SjiPASLkYuaHjUykpKRGbu+NBxMaIPHWZHUjAdOwcvkBLSO/bUVbSmb+Q2F9ckrJSilRqUkqGWceO5q4p4SgDRuq/l6q93wtUav13rP863hMBpuNJSS8lJib+2VMX3Hy5/s3KyurYNZycnBzRwB1f+a8l3PHO//E4KysrNTVVEruUrVGhZ6IMmP8xG2I3xCRwSSUQA+aSijcW+OUmgRgwl1uOxt7nkkogBswlFW/UBC6Xy6XmhDRCkp2dHfHWu6BtE2neCIJwgZvZBWMpHf3QImM4f9hWjAwbdP0x4hgwUVOmL11CAQCQhuGlVrg00iIBEwqFpJ7ftLQ0qadecoOQfMAkZzzJo+L3o/XZ2dkSbImJiRc4LqWmpkpDzDKZTOork/r6Y8BculyOhXzRJJCenp6cnBwZ6r0AGKl3WBrOksZkJNcHSQt17Ai+QMNE0vd7T7/U9i0jI0NymZXGcGQyWQyYiNCi5kAqB384ChE17/AfJjQ1NTXiJybV9BIkknpJ+92WkZEh+cJIPnjSmKY0Zt/RgTI7OzvizhfRMMnJyVKHclpamuSkLGmbmIb5DzPt790OAICUl5K3xQUPSeMzHX2Z/uYZyaczOTk5Ug6uWGAkFwepEEcY+H0zRhrilHRRR2+9jsBIbgF/6IcmISoBI2m2GDAXFOaL8xcAAMnOlrDpqMEBAJDJZFJtKCn3v3MmFAolJiZK9WtSUlJaWtoVqGEk0ygy2H+BSXbBnJaIW7ckKIkHyT38ApMsAozk9SyBITX6JSNN8hKUuhliwFwcQv4wFEEQpCqwowEtVY0R38GM9k0mk/31mVAoJGWV5PAveezKZLIrSsMIghCZNyFhIP1Kwk9PT5eaHNKvTCaTHIUiHseS07HkrddRw0gmmWSwdexOkGQuTZuR+txibZg/LOcX56SkNyLZFglUKvfSX6nv5e+ckbpTMzIyJJM6PT094nYZCfkKOZBqn98DI/HQsSEjzWT+vVgu0DAX3PB7P7TIDTFgIqK4JAcFBQWShumoB/4OHr+/RzKjpfpVcmq+YoGRskoul6enp0vTH6QzKSkpUts98nvBhMpIHv+Zt550w18Ak56eLrU2O9rYkWC71EH0jcNIFaHkttzRiViymCMGWFb71tEk+8MzUmZI5rX0Kzkpd0SxS2VYLDH/XQlEGTCSQpBmyEjzyQAAkMaJ/04T//f3RNow0gxnye08NTW161d1/91yc8XGHmXAyOXy5ORkae64pF6kUWpp9Ya/2YksTTyOaCfJTpP0T+Q3pmGuWCT++sWjDJg/fBlJ4fzhpb9zUgKm43QxaVLn33k2ds+VJoGoB0bq3IwphCgtuFKnXBRlX9QD09q+RWlx6eLJ/mu/CmmxnqSkpEgv8980iaParyLqgeniZS6qk/cXfhVSn6QhaY+DAAAgAElEQVTkFZaYmCgtefE/elpcBn4VMWCiukh3RuL/0K9CUi/SqjGSK83f8bSI9ElGr19FDJjOKHPRG8df+1VEfFUzMjJ+Pyj8+zOXgV9FDJjoLcydlPI/9KuQhr8k936pU/H3ePz+zGXgVxEDppOKXZRG82d+FdLrSKv4SSbZ3/G0kJ6Kar+KGDBRWpI7I9l/4VchNWyk1cykWZO/96L4/ZlIGyZ6/SpiwHRGyYvSOP7CrwIAAMnlIjk5OTKK8ne6lSU7LeJRIR1EQuj6gooB0/XzqGul8Ar3q4gB07WKYxdPTcyvIgZMFy+iXSt50uyJrpWmzk1NDJjOlXcstiiXQAyYKM/AWPI7VwIxYDpX3rHYolwCMWCiPANjye9cCcSA6Vx5x2KLcgnEgInyDIwlv3MlEAOmc+Udiy3KJRADJsozMJb8zpVADJjOlXcstiiXQAyYKM/AWPI7VwIxYDpX3rHYolwCMWCiPANjye9cCcSA6Vx5x2KLcgnEgInyDOwyyXc5nU2BQFMg0GVSdEkSEgPmkoj1Cgx00y9rcs/kVJYWeL2ey/j1Y8BcxpnbSa/W0tISbGoicXTHxjXnzx0/uH+X2WjopLg7PZoYMJ0u8ssuQr/Pt/KTDyuLcndsXFVw9uDB3ds2rf3p288/yztz9rJ711AMmMsvT/8Lb/Tdh2+fP320/PzRhf988pGkfmkL590kk90gk23buNHv97e1tf0X0nRpoowBc2nkesWEisOQWasqyDliNigXTJ808PZb7r6p5+Qxo9578409O7d/89lHry9cIArCZSOPGDCXTVb+F15ErWgc3f/+N+fPKc075fO7C84c27nuh4lDBixdsmjh3NRjB3et+WHF7KkpVrPxslEyMWD+C+Xs8ohy06qMZ5+a9Mrzqet/+Cr/6N6VH7518uBORW35ptU/7t+Vea1Mtih1Ru6ZU9s2/vLCnFm11dWXx1vHgLk88rGz30KnUq76Mv3nrz9btnCeWl517tiBIwd26fUqO2iBIVND5dkv3n/z/TdeA2zmk8cOLZz77KEDBzo7iZcmvhgwl0aul2+ozc3N9TXV2zesfnvRCy/NmJZ75jiC2AHAQFEwhlgI1IJBpobqMjtorSg6m/FV+lcfLr2vzy0P3Xm7Ut7g9XqjXTAxYKI9Bzs7/fWVFfOnP7V7w0+Dbut94vBei1mjaSxnSXsoFAr4XW4nm3tk/xfL03754Rt5Tel7ryyY9lj/7z798P03Xn17yYLSwoLOTu7Fju+yAqa1tTUQaPJ6PF6PO9jUdLFldaWHFwwGjRr1kjkz7r+11xsL5oA2A03ZYat67VfvahqqK/JyDIrK4/u2b/rxuyN7tv383efLX5rz9svzTx/LBmwWmsZLC88cPbh3z7asU8eOQXYgSqV5+QDj9nisVltFQZ5e2cCTOIMhPE15Pe4/zJgmvz/gcQY8ruaALxjwB3x+n9fb2tLyhzfHTkoS0KqUpUXnd2xY/W36uxyNtwV9+Sezd21YPXPMoz988OaejT/lnzuhUdfXVZx/c8GstHmzNq3+EUHAbz9JX/H5p6KDRRD7/m3r5j3z1JB77zp1LDtKpRqtwLS2tjY1BdpaWyW5t7a22W3WqoLc4lNHzZoGzG5lcJQAraDZQBOoyyG6HA6vyx3w+vxer8flIlCMRFAHS/tcDp/L4XUIkM1mM+oFlm5r+y3MKM3RS5dsn8/r8bkYAqkrK/z8rdcXPj1p/IB+r6dOV8vrGsryV378/rpV32b+/E19Zf63H7w1d8pEs0Fj0Cvmz5y6PXOjXqdc8cUnLzzz5MdvL13xeXpddVkwGJUmQJQB4/d5BJZiSJSlMBIFIZtBYCnCboUsJkVNVWVBrqq2HDarQKPKblBYtQ1WXSNgVOOQlSUwjsBIyMZicMDr5Rhep9bpNRoMtIsc6+RZAoFtBoNR2UiiUFPAf+mKXTSGTOF4Xs6JHRt+WffNZ1+//cZjfe+YOKT/hEEPTh817OkxwxY8O/31WVNu6x539w09xw99eM6UycMfTHpy7ChRZCgC1KhqlQ1VaQuek8lkIx68r7GmYsWnHxzZvwtFIbvNFnXSiBpgmoNNJALANj1o0REIIHK02ylYDUrApOJJmMZgrVJRV1mhqa+ErDrQorXpGyGzBocsDIm6RN4p8gRqA4xy0KrhaMztdCIwplUqlZVldYV5Zo0CMusgqwGy2QCzGbHbHYIYdXl56RJcVV768euLN//w9Zov0udNGvP8U+NnPDFq6shHD27d8PMXHw665YY3Xnhu5cfv7dy4VqVu1GqVJ4/9unfb5oKzJw7s3PLDZx9MevSRJ0cMWb7k5bUZKwWespk1+bmnPn932buvv7J7exZNUZcu5Rc95KgBhkRBHLbRBEyiIEdhPI17XA4UBCDAKLCEQ2ANWrWyrtpu0gAmrUmrRACTz+1gKZwhUaeDF3nSpi9HbI0YaLAZFRZ9PUNiytrawuPZZaePq6oqik/nlOeepXFU4EUMxVF7WPM0B4MXXeJRF6DIcw21lQxD5B07cPrQPo9LLD1zzKpVLp0z/ZUZT+Vn79u+dtWOTWse63vnt+nvWS3aioKcA5lrvvvonW2b1tVUl6378bt30xafO3lkw6ofvvvkw60bVqeMGTF68MCP3kyb/8yUV+Y9q6ivjyKZRAcwIi+goM0lcByJUyjKkBhH4U6BpTAUR2CWJFwiy5IQgdgx0AZbzQhgdou0yFEIaETsOhoHKRymEAMBaxgChAG9QVUJGOUkDMoryo1KOYMjiNVoN2pBqwk0axG71aDTKRoaAJNJ5LiWK74zQFVfU5aXU1lwblX6cn1Dza+b16a/lPrh4vmnD+7L3rUZQW15pw+v/PjtnZt+OpW9W91YrVLUF50/o1GUH9yxPnPtT/t2ZL6x4NmRA+697cYbJowYGieTLV04j6QwVWPFwjnTf/jyyxgwF1MCTkFE7ABLYiJDYqCdQGCeJl0i53KJGGSHAICmSJ4lOdJEoxrY1kgiJgcL8zRKoACB2mjcxpAQAoEu0eF2ck6RxhELaFHyNNra2izwnMBSToH1OEWexhBAb9XXGZSlRnU1aNXQuB2xWzAYuWJVzeofvv/+i89e/MeTyX2unzN68Pj+/Z4c0v+VZ6db9cpQKOQQaK2ywmqQE6gtFGqlKaSmosgO2Qy6+sqCQ/KKw+dz9laUFmxYtWLFJ+9vXv39u2mLXl8w95Plb+zdlukP+GxWrcGgEgT+YhaXSxxWV9cwAb8fBgCaQHmKIGAoTIjNwFGY28F7XAIOAyhkZynC5WA9Ll5gQQKSo0A1Zq/H7HIS1lKoiadAt5P3uJ2CwHu9nqaAP+D3+bxOr1sMNvk9Lp5ArBQGMDjAkSBPIzyNchTKM7hTZP0+D4lBkNVKE9FkZ1/EMlN47vTX7y7dl7leVV9dXXDu2/feXDzr6S+WLbHpFQxmAc0NTh4OtTV/uOiFo/u2eX3O6rL8g1kZVvU5eVV+4dkcvVZVXpI3YejAKWNHvv7cjIWTR5tN2mBrkGEoBLKeOrzrxME9gM3wTfoHDB0dEu7qwPj9frvVRqAoR5EUhqCgxaKtJxCbg6edPI1BFtCixWGLSyQcHMxTAEeaaVRNIioCUlCwisE0AmP3ex1tLU3BgNfj4j0uMeD3NzX5PR6HxyXQuA0FdYCp3qKttGjL7cYaxKagMQtPozyNCCxGoHaepjAQbmluvogFMSqCCgQCFoPmxP5tXq8zkuBtP379YM9uY++/67kJo7Tyyi0/fKOuq4YBi0pZb7UadTqVTl2fs2+7Qa+priqT15UfP7h99befnTi422zUFOWeYjma5SiHkydxe96Zoz9//YnZ0DB36sTp48dC9rC7QBffujowoVAIgWCryULghMjTNAEBRgUOmx0c7RQ4hkQhm55CjSyuZTA9R1pFFnYKuIPDOAomEDMO60UW9XkEj5PxeUSRQVkSZEnQ5WD8PrfX4xBYUuQZB88IHMmSIIkYSVjP4BYGN9OYkUQtJI7iMEIg6GXjoP43S+SZo4cXz5pq0StCoZBFJd/05Xs4YDy0afWr0554c+4/t6/7+dcdW1Z/9sHRPVtV8lqLWa9U1JQVnj59dNeabz56oHfP77/8SKOqRmBLMBjw+NzF50+XF+b6mjwgaIIRW2VZobymwhdwu0T7qSO7N65aMevJcZlr1/zNtP0Xb4sCYFpaWuw2QC5XGg0mAoN5BucZrL2jjHDwjJOneMrKkyYXDwuUjSMsHGkTGEjkcZZGaRLFURtDwSKHOQXKKdAOnhI5QmQJl8j4PA63yIgc6RQ5r9vpcQoOnhE5qv2SSOM2EDDrtQajTt8UiMpRtv91wRIdjqLz507s2wKbtW8/P3v5/NkkbPU6hcIj+wb2jP/64/ekkH/dtqGi+AwKG0y6WquxEbRpN/34zYwJo5cvWbhny+qDuzbWlRXSFGa3m/SqmtLcY4WnDtdX5uk0Dft2bFg6P1XgCJZBfAGf28X9+NVHn777TmuXn5sZBcCEQqHWlhaL0aRR65RKjdVsJXEs3FLn6TAAHMqRJicLuDiIxQ0sbuQIE0dYeBpw8pjX4/B6nS6n4HJyfq/D7WA4GmQIC0vaRBZxibTPzXtdnMiiPA05eVLkcJ5BGYqAYUSt1tXXyTUqdfAK61x2udzlFVVWi/H0of0YaD24ZV1VwZn64sIjOzeHQi3bflpxdF8WQ5jOHNgsLzvB4honD/u8Yltbi1Wv+umLDw/s3Jy1emVNWYHo4CgSwXB7/smDR7at3Zu5ZsE/p3357pvK+nIcs5cW5KoV9XqNMjfnqFpZ+8X7b32wfLlWb/pfQ945D0YHMKFQSGRZjqZwDANsgB0AcRTjGMbl4L1uwcnjDhYSaRuFqBlMy+J6gTSLNODg4KaAS5JjwO9qDfrDLRm/2+tknTwq0ABHAQIDO3hC5EgKh1DYDoGgyWjWaA0qlc5oNIOAzeP6/+Z752TJfz0Wux3S6A2Ht66/Rib74u1XMZtJIOClM596Z950yCItB9Pq8/BV+WfKzue4nAzP0TSFMQxeU3r+5MHdFIPRDE4Q8JFdmdUluSJP6ZW1R/duB0ELyzMQCIhOsaW1uS3UqlXW5RzYeezg3uryYreTLi0rKauo+q+//l8nIGqAcTtFjiJ9XrfP63aIPM+xosC5naLX4/K4nW6nIPI0gYGw3QjZtIhdj0EmArGyNCYILM8xHEPwDMlSBI4iIGBHEcRqsei0Gq1arVIqFXKFXmewWGwwhHKc4PX62h2fAxRB+H2+v5bg5XfV5/Pp9LqVHyy7JUF2aMfm9+Y/u+3nlRhgsumULIm3tbV5PC6Hg3e6RRi2Wi16k0Ehrykx6eR2izb3+K8EavN5nR63eOrwXqNOSZEYTmIogVptZoJAeJ5iGays8JzVrBMF2mrS1ZQV/vTFh+dOHCwsKmRZtovLM2qA8XlcToHzelw+rycYdjH2+rxOt4N18LjIEU6RcQgMzxI0ARGoHQKMdosOMGvtVgNgNZoMGrNeq1Wr9Bq1vL6+oa5W1dioUanMJhNkBwkcF3je7/dHBijbPTubRFEkUORKa71I5dXhEOtrKvZuWesQSJ5C3nsxNfOHL754bb5FVwOY1ThqJXGQIhGWRp0i09LSVFN8nkDtwWCTyaDBcQRFIQi24SSi06sbG2vraisaG2t0eqXRpEExkGbwD5e+qmqsDzT5BJ7K3r8j59ihUznHTSZjF6clFIqeZZZ8bqfXyTc3N/k84SGUpqbwcIrbKTpF1iWyHrfo9Tg9bsdvu5P3OBi3k/G5BZ9bEDiCowmRY1wi73U7Az5PU8DX0twUcUxuaW1tCgS8HrfH3b65nF6Py+lwkBh2xQ5ZsgyJoWHPI6eTa2n28zSia6ygEe2q9179YPHzDvE3VdDaGqQJGMfs+7I2FJzPUSiq6+vKFPIqjbrOYFBYzFqbVWe3ac+ePFBceA5G7DiBoCiIYRBBwBaTVimvVauVKrWyurqcY5kYMBdNAn6vy+NggwEvgxlozOh1CwG/zxMu1oJDDI9Lejwut8vR7skvukTBJXJelxjwOb0u0e10+LzegM8n7X6v1+/1+jxuj8vpcogOkRcFTuAZUWDaNVjY6vP7PC6XkyapK3aSjMspcizp9TgpEmVpjGNwEreTGKhXNeSeOipwlM/rCvg9fr/32O4txXknsvft2JW5ZvXKrzSqhsriPKtFRxAwAgMwZLMD5oK8M0UFuXqdSq2SKxvrNapGrVqhVisNBp0dtBFhXaTyRYP1GzUmWcDn8Qis18mRiI6jAJeD9fvcwbCeCU9w8bTvbqfDKXAiRwsMxdMER+E8TTAESqIQiYIUClKYtEM0DjEEwpIoL2kep+By8D6Po6nJ7/d5fG6H1+1wOkWOYa+04ZdIDdcSDGIWg8/nCrU1B5t8fp+To1Ecs6OIjSJAioBgwGjS1Gvq8hrKz9SWnlHXlxSdO5a9d1tpfk5x7vHSglNV5YUlRedKS/LKywoqK4prairkDdWNYZWiMJsNIAhgOMKwFMsxRqNW3lATiborH0QNME3hHKNcIu3gyXZXF9HncQT83oDfGy7i4c4AV9gqc4oukXNwjMhSPENyFE4TSLtTpgUDzRhkwWEbhdoZAmQpJEwLTzsdgtsVNuekHgWvS/Q4eI+DD+uuy2gFuv+0FLaFQrxeLTC408F5w8JxBgIer8fhEBmWwWkKgexGvbJCUbJHX3vM2HhO31gory6sKTtXWXK6tCCnIPdEceG54uK8svLCmrqKBnmtWqM0GHU2mwVFYZLEKYrAcAiEAKvFpNEoLOboWI45aoBpbgrwFOrgKa9b/K1ke5x+jzPgdfnbWzVhtxcn7xZZJx/2UxYYIqxkSIzGIQK14rAJh43tvxYSAWg8zAxHYzxHigLnau9t83rdHpfoFrn2nXXynFOMJr/A/xSJv76/LRRy67WtHBNsbnI7eYEjBY7kGJxlCI4lGJqgSIwgURxHERiwWXQ6dYOivrKuurSqsriivKisrLCioqi6pryuvrqxsV6tVup0WoNBbzIZzGaT2Ww0mXQ2uxWFQYahUNhOWLr6CIwkrqgBpqW5mUZtDp5qp+U3leJ3O/xu0esW2mnh3CLj4imRxQUG40iEJSAKB8IOMpAet+swuw4FdThswBETiQEsYmBQA88QosBIwHjcjrATtMhIu9Burf11qbq8r4oGXYvVFGoLL3XQ2toc8HucDpYmEQwBQMBk0iuNBqVBp9SoGlSK2saGqrqa0oqygpLi88VF5wuL8oqKzxcXF5SUFpWXl1ZVVdTV1SgUcp1OY7VaEAymGIq3mp0Wk6jTIGoFpddFhTCjBpi2tjYGhxw87fO6JA0T/pV0i1vwuniPg3WFh+oxnoE5CmQJgMGsJGwiQEOYFkCLAVoU1GKQDoeNJGZnED1hyOMws8gzLpfo8TidDs4pMk6h3YFAoGkccgpcVOTiJUqkoNO2wGDIJba1Nre2tbS2trS0NAWbvF6PQxQYkkQwzA4CJoNOqVLUKerK66qKq8oLSovOFefnlhSdrygrqq4qq6muqK8sV9XVmE0GCAYJAmMonKcIUdnAHz7gzM9z1FQjhfm0SnWJ3uLiBhs1wIRCIY/LIbKU3+1oX/DFGWg3yXzusNOxx8V5HIyDxwUW5ik7jwMsZqUREwn9f1owQIcCOjQ8pmnAUSuN20lzCWUuFWnU4xLcLsEpsu20UA6eEjiSRMErfHI/dT6X3bIphMJtHndbc6C1tbmlNRjwuz1hPcyKIsPyFEVhCGK3GTVmTaNa1dBQVlyXd662pEBeV6lSNWi1Sl1tja6q0qJWghoVolGRWjVjMgpGnUOtcFotTq1GsFjRk8epmlij/+KiHQoFmwIsgXidQsAjMeMIeBw+t+iRTLL2QUyBgXjCzmI2GjWTsAEH240xQIvaNKgtDAxi12GQHkfMFGZnURNpKuJgjZOnXI4ILaTIUwyJ0Bh8sd8gysLjNGrb7Gea9u1uMxlCAt/iFINO0cdSHp7xtg9/sSRCglYMBgCLQa+obzz0a/X+fdXnztaVFysb6zSKek1dlUkht6hVsMWMFuTTp07RJ06Qu3aKRoODokSLRTAaHY2Ntq1ZaHl5VEgnmjRMS0szS8ACg7tExuvifR7B5wk3YML2mJNzi+FRf4GGeCKsXqiwMdaRFi1q0yI2LfxbS8ZIoDaGgBlIydiqecIqcriDJ0We5FmCIVEcsvI0ERVZeOkS6eRY545M94pvmgoKmi3mFpJogiE/AvpEzseSbo5i7VZCJceNWlCvMRQXNOzaWXs6p768pL6yRCWv0dVVa6sr7CqlNfuI+qfV4LHjxq+/Fg7sF/fsIjdtZM6e5RrkAoKwR49WLX4Zbmy8dC9yEUOOJmDa2lodLNHuok+KHOHgSZdAuR2sx8mFGzACLXIoT4McDjCohYSMUtMFtbWjYtUi1nZgwlaZLmyVIWYKt7OEnQHlLKLnSCisVXCIwkCWhCkMvMIbMOGlX4NBd2kBv+JbbOX3jkOHfbU1QZMxCNqa7FYfaHPBdt5mZSwmymKE1ApTVZmqpFBZWaaorVDWVOjldaaaavnmrFMz5hSOfeLIgMHGrB3E1q3C5o2e0yfZ776iP/+Mzj7iQBBy1+7K114PRMOoZTS5xkiVhJMj3WLY4cXr4lwi5eBwkUF5BuFpmKMglrQzuI1GzO206MONFpsWtmhgixqyqMO/Vg1k00KADrbrYcCAgiYctuKgngB1JGKhMDtHIQJHiHy4AeNxxlZaColKuTtzo+PTj/w7twYrK5pNxmazIQiYfXq1W60QtSoOsJCACTFpLcp6fV2lvqHG0FhnKC8xnDxV9clXhROnZPXpu6H33Yfv7Kd8cZHqhRdt819wb9vs25bp2ZYl7tnFHs+pmPuCav26i6gELmlQ0aRhQqFQeOySJ8MeYh7B7xb9bsHjoF08JrIwRwI0aiYgAwZoYYvSbpQD+garrs6irTNrak3qapO6xqSuNWvrLLoGm6HRblLCVg1q15OwhSVAnsHCE8v48GiDwBIkYvf9yTKzlzQ/ulrgLAw5Nq51rF3dlnOkTatusZiaYXsTS/lAq9usF2GAsVsJsx41qEGdwqqotaka7WUl5m27apanF42ZUDhi9KGHhqy/PaloyGNVI8ef7veQfNQoz9bNLXlnvEezmV274W07datW207ldLUX/7P0RBkwLoF2sJjXyYeZcfFeJ+d10B4HGZ7Tz6PhFj8JMJiFhI2YXYtYVbBFCZmVoLHRpm8ADA12oxw0KxGrGgN0BGQiw31lIEeiPIXxDC6whLTzDE4i9uDl/sn5PysTHc9zOOY/tI9/5y3/vh3BhhpvTaVXrfDYLR4SdWGwaDNxViOpUWKNdYhOARs1dp3alHNS/fl3h+56IOfu+8sfTykdm5IzMLlq5BOmp2cUDRhSNWKUc98ef6NcPH8eWpHB1NQZNmXaoufzsVEGjMfBiTTicbBeJ+8NO7CwHgfhCk/iR0QGEiiQJwAOszGohYLN4T5lQIvbDRigR6waxKpFrTrUpsMAPW43EqCRhIwUamMJOAwMjUeY4drXob0CV73oiIp07CAJT22Vf+3Pvh1ZIRRsKi/2VJQI1RWYUQPUVNqKC+2VZbaqMlN+nrmi1Fhepjh48Py77xVMnXHg7vvO3v9wxSPDt/fs/YXs6gO971ROeKp0wGD7a683NcpbTAbnrt3Y3gNsZbVq2VtwRcXvo+6aZ6IMGK9LFEgoDIwY3j0i7RYJJ4+JHCoysECGgWnvUw4DgwMqHNDgdkOYFnP7bgk3/TFAhwM6AtAToIFGrCwOceS/AcOSKIXBV6zbZceS6nE4XIC1WdmIf/h+06njrYW5vgO7/SWFLtBOatRwoxysrbJVlxvKSmp27d2dMi1nwuRzk6aeeXTU1htuyR8xxpy2rHDA4NJHhuUPGnauX//6R4Z6V64M2aytJlPw2HH32XPBg/s1S98gtdExzB99jX6/18XhdhrRiwzsFii3QLkEwingIoeJDCrQcHgQBgcYzEYAKszaiNv1qFULmzWwSY2YfmMGtWgxq4YA9CRkolFAAqbdtTmsZHgGp3GYIdCO5eaKPQ74/S6tOiRwXOZmT8aKprISx8nj3vxcLwo7QJAz6HibmbKYgJoaxb6DOa+8mb9w8aGHh2zvfeuxAYPBXzawew6xK1eBCxadvrNv9t0PyCdORZ9/obnwfFtpseebr1v27wkd3l/9+lIHGjXSjjIN0xTw8SQMKM4TNrmLJ9wC4eKJ9jn9mMBgAo0IFMyTMGlXYaZaHNCiFq2kW2CTun1XIWYNalGjFhUO6CRgGBzmwmvPYly7VcYzOIWBsUEYqY4IBoMOBGpDIO/BXz1nTnvtdhfDuBlaBO2sXs8Y9LTJQBp0uNmoP322+pdN5oJC0969mjW/4Dmn8YPZ8NrNjc8tKB009EzyGP2SZdqnZ9lenOE+uMa14qvAhh89mRvYVT/WLFrkdzqipUqKMmCam5pECsNMdbCu3MmiLgF3CXg7MLjAhHeRISi7EtEW0JCJwUDcpodNasiogk3Srv4XMGo8rGEsFAq0A4N2BIZA7A4+Cmb/dUIha25uFmmi1SEEbRYvArsgyAlDHpp0oAhjsRBKJdHYQBq1uFELqRpBhdyu19j1GkSjRk/lIOs2wGs26J9NVUyeqpo5F1n6DvLKa9aXnncfXB3c/jP96VsH+9139KGHqxYtikwO74Q3+j9GEWXAtLa0CBTCYVZEXy1SoIvDnQLu4jEni4nhfmGSJ0DMUCIQNidHCzTBEQiFWMPYmMPYtJOjRi0a3KYnQCMBW6mwSQazBMq2L3DOMzhH4zgMuB3C/1Gyl8fjra2tIom1el2tTb6AQ/AxdEDkfBzjZkgeAkllI11bRRu1mF4N69SgVmlTym2K+jA5mzdZlr2Jfv2t4tl5xcNGE+lfOtdsoj75qbYAACAASURBVF95HXtuPv3hx8h77+ien39ywODDDwzMT3s9imQVZcC0tbXxJOxgUMqm5jCri0VdHOZiw7uTwZwsLlKQQEAujnayZHhKDIlyBMQSEI0BFGzBASNm06MWHSYBA1koBGBwKAIMR+EshWGQzev+bX2mKMrLS5HUtrYQj6PNTrHF4wy6xIBT8POMl6FdJC4iIGc1IWdOw8ePG06ewrRazGSwqRotigZLba3+x59U857Xv/O+8cvvwVeXUelfYgsW0wsWW/4xOyfx9vJJ090/rbPOnntiwOCaTz69FCm/RGFGGTChUEggEQeDcJiFgY0OGnYyqJNBHDTsoGCRghw06qBxB43zJEIjAIMAHA6y/9oZHGRwGAdMqEWLWjWYTUeClvAEzPZWPktiLIkxBIJBtoD/iltd6c9KmEASTQLX4nI0OYSAg/PxlJshnCQqwABnsxi3ZJnXrrcXlsOllbxOzwI2W1GRevuu6sWvmtLSqh9/ovKJp6DFbyCLXrNPn131eMqp+wZBM+YIH35GvfKaddoz5SnTrDt3/lnUXfB89AHjYAiRgh00zEBGgbA7wseQSIICYRdwO4/beQzgSUSgcRYDsfY2DAYYCNBMhg2wMBsUAiBmDaithrTVmEVDQma6vSVDE0j4g00YhEG25uj8AuOlKGE8iftZurUdGL/I+QTKTeMiDvOInbdbSYVcvmJF3dcr5Nv3Ko7mqE+cMReWNmzOKvr0i4qPPildsDj7wSHrrrlxS5+7D/ftf/C2pMP3PHik34C8AUPrH3608YnJ5VOnoydPXopkX6Iwow8Yt8CKJOzmMQYycIhFIMAwLRInGMChNga2MIiNJ2GegGjUBhoUgE4OGhSozYDYDChgRK0G2KwBFMXGyuOwtgazaiVmaAykwvOZ7TgEtLbGvqj8W5ETGdpDES1OMeDkfSLn4Uk3gzkpVEDtvN3CWs2YqhErLFDu2pu/6peidZu1pZWa2sb6oorz2/aUr8tc99i4OTLZ+9fd/P1Nd6697ubjt9x96I5+2Tff1ThpWvW0mQeTRyO5eZeocF+KYKMPGF94vTDU42AoQIkZqjnMKuDtugUDeAxgURsNmSnQzBMQh9sZzI5YtIBWjtqMFAaRiJ2ArJBRA5u1sK5OW7RPX3oQ0tWGbTPITCE2CgUJ1E4iUKjLr4p9KUrDH4bpEngXgTU7hHBznyc9LOqmESeFCATIQRbWZqJtJrfIe3gWa2hQHz3aeCi7JGvnyRU/nfkls2Db3vULliyUXfWp7Jqvetz0yzW9zG+8Q3+XkfvQ4JrnXir453Pb7+tvyy/4w3i75skoBEYQBRD0OTkONaH6Kh6ziiQkkrBIQDxuZ2AbZTcTdhOLgQxmp1A7ZjcDukYctBKInUTsOGiBjGrEokMtOmt9fs3Rn3QlBxGjXOplprHwd/8o9EqfOtaxsLpEQcTgZqfo51kvR7pZzBUGpn2MGLHSdjOqUzA2i4DALpYG62tVpcWa0pLGQ4cLV689+fX3e5am/zhi8vd3PLBj2BNlS94BvvlR+9YHv46edPSxcTmDh20eOARTRsfkZEkm0QdMQHTyRotPYNw83t45hjoZzEGhIgFzKEDaLQRgIu1mDoMZBCQhGwkBqNVIQAAOWkkkzA9k1CAWHWTUAlqluvhozdGfrQ35eLidY0NBq0mjRO1AxxJzhR973U4eAVtcYsDBeXnKzREeFgsDgwEMZKZsRkjdgOk0jN3OYyjaKFfn54J6rcDSIseiOn3lxqzTs1/ITX3p9LRn697+5MTEp/dMfHrHmMmbEm8rmJl68rkXxGj4jlKkDEQfME0uD1Wn9lGUm8XcHNaODe6gUQGzs5CZtpsowELZrDyGcBiCWUy4xYpbbbjdClsNFAYhNiOgV5mVjaqa2vqSKkVFVUP+EWN9CWQ2WjQaVXVd0YmzoDn6vh8fydGLfuDzuGm7tdnJB5ycT2TDbRgadRAgjwKMzUiYNLBeQdjMNASSNhthMeurylGjgbBZKTuA6HXWykrg5AnkfIFtRYbm2ed+vTPp1LCR+hXfN65Zr/rx59KPPnFT5EVP86ULMPqAafYHoNwKh8bkFzknhThp1NFuT/OQmQMMHGzjERg3WlGDjQYQW53KLtcBDWqrXGlRKFDAZpTLVZXV5SfPn9yw/9dPfslc8Hb+rkOqGnldYUXVmZJjq3dkfbDCromCVbEvXZm4IOSA34db9EGeDTh5r8B4OczNtMscszM2E2HWwXoFbtEzEAQoFJjZDOt1iEplUzSSNisobzDnnwfKSjGzkTycrR73uHL0SOXox/BTp4JOEck5+eucec1N0fSxqugDprW5Gc6v4quUQZb30qSTRAQMEBCbiNgcOCwSuJNicSOkK6iHlVZLpUpxokR+KK8hO1d1qlB1Mrfy11OFWQePr9jy45iZnyWN/HHy3OOrdxUcPJu75+T5vafWL/n4u2lzsZiG6QBNS0sLDdv9JBZgKa9Ae1ncw+IuBhMImLVbSLMO1ilQk5bHMUtNjU0uJ41GsFFuqKigINDcUK/Pz7fXVONmI1FbjWVtpvPOMlUVImh3ozBSVnJy+bttra0dYuvqh9EHTFsoZD2Rjx067VMavCDmJigPTboJzEMQnAmk9IitUGE8W2ssbFQfPoOrLNqj+eU/76rffbJy/Y7ijI0la/ceWfLhlwOfWN67/7I7B61MfWPrsi/2frL65MbDh77f9t2Tc1bPXcJRMUeyfyu4HI54MNSHIX6BC3C0nyU9DBEeigHMlEmLGJSQppGymoG6Gn1xkSU3T3PkiLa8zK5Vawrz1WfPWOT1kFaDmU00DHEkLjAUazZxJiNYU13wy9p/i6nL/4k+YEKhkGrNZsXbnziOnnXXaPwwGyB4P8p6AFzxxY+az743Zh4+P/e1vNc+Kv9mlelYUclna4o/XFn788aDs+b/+lzamWWf7Jw8841r703r9cDSe4cuuWPgD1Pn7Xp/1cYln26Y+9qaZ+ZkpC50O664r479dUENA0PgfpoM8Kyfwv0UHgYGBQWbiTXrcJ0S0yp4BKLt4TaMLifHWlyMWS2gVq0pKdKczzPV1dqUClCjhlVKwqjHjQbaYqb1OrCutu70mb+OuqtdjUpg9KvXVr+w2JOTB/6wGtt52FulFvIqvEYM3Lxb9fxc1aKXy1MXHB75+Lkly87Mf7Xs7Y+Klrxe9u7yQ+PHF7+x/Oxzz3/d95El3W//8NYBH9z7SPqDyTsWvrv5+aUZKbM2T5+5ceqUtQsWt7REk5HQCUWKw1EfQwVFvh0Y0k/iHopwoJBgt/I2M6lVYio5B9khdSPQUAfU11EQaKypqs85WbNjd8PefdqSUk1RibGi0lpVDatV9gY5odVxgA1WNppqajsh/RcxiqgExrx5Y/m0p8kfVxc/MfH8+CfVacv1y95njhd6agzGL1YoUp8teHrmnsHDy977qGjBopxn552eMzdvSVrxW8vrvv727LwFG8dNe+uGez69vf/nfR/+on/y2kn/3PX84mPvfrx75ox1o4bvfGPZRZTv5RGUQIQJafW6m0Q+wDB+ivRShIvERAziABtp0eMaBQtYQWUDYTbCWjVhszbs2Vv6zfdln3yl3Lqj/kRO9bEcU2k5olaTNgtUWYnW1vJWK3g0m6iuji4RRSUw6MljtbP+YX7pefnEMYUjx+SPHFsx5en6+S+bvl2re/+L0omP5wwbsvPepEPjJuW/8sbp+UtOTvvn+ZdfO/PCi/sef+LQrOcrf966dtCINffct/7BgT8/9MjGCU8eeGFBzvvpWydP+nHgwLPfrIyuLOyE1DoYxk3iLU6xmWeaWNpnMXptFjdLO+xmTqWglA24WcshIGHSE2YDbjJQNqutsEixIqNmRYa5shKQNyh37dWfOUdaLazFQmnUrMnIFuar31yKlJZ1QvovYhRRCQxdW1U7f1bjC88qZ0ytGD8+b8SogvETzySPrBg3tmH6tPyxIw4P7L+z7/1Zfe7OTLx7b9Kgo/0HZD80YN+9SVseGrR39os5r72b9cCD58cNq3hqZNnTEw6OG/3zo8kbxk1Y8cijX93Xvypz20WU7+URlMfpcHFMi8XQAliaBS4AWH0GvZelnTazYNDSOhWmbsAVDRxk51AY1Wvp8AJ/FtOp0/pTZ2wNDVB5xamZc2o3ZAJVNerNW4jz+bxGy6/7pWjWLKg6OpZUjuRjVALDqVVlqTMa580peDKleurkyskTcoaPPDFyZN6Y0bkjh+eMGF7wjyfPTByXPXjIrpvvyuyeePiuO088eO/B++795tren9x45+p77z8+7jH5rCcap4+uTHls76CHV94/cOXDj655ZNjWR4Yos49GpBM7kCTgczkdDNVi1AbOnGzBYOfOLOPy5YJC7vO4HTjKgTZwyybbxvX20iKwqtxaVmw9nWNet85y+rS1rh4qL9f+8GNd+qfazVmGLdvzFy5eN3L86VeXNb6+tGbxYgG0R5eQoxIYNwQV/mNK/eynyyZNzB89tuqpSXljxxx8dMShYSN/Hfxo7lMp6A/p0JdLTWmzGp4ecfDWW7ck3n7w/qStt9zxQ49bM66/bfuD9xVMHFY75bHSCcP3PdR/Y98Htw98ePUDA/c/mnx01GhLUUl0ZWEnpDbgdIoI1AIB5Jeftx7e3/LLD+rJE2xvL/drNS4E5iCArK0GN6yDz5wCCvMtVZXarVvqX16o+PYrY9YmxTdfHXtqqvXXbMP6DaqVGZZNWcefmZ330hLVd9/XrfzB54yyDsmoBCYoCopX5qtmTzHPmlw5fnzZxEm5j489Ovyx/UNHbOk/ZOfg5MbXX2R+/gD7cK51/oh9tyd+163PT9fd/n18r3VX9866s+/xYQOKRw069FD/jUn91/Xrf2DQoKNDh657YMCJUWOOT5wEyqNjVexO4CQSRbPP6zJoWkrysW+/1S1+BVq2tOmH77CXX7IvnO9SygWWYkAb0ViHV5aDNZWQQn7mrbdXXXVt9gP3l00ct/aBgblLlyu+z9D+sh4przBlbm1Ie0OZ/nHxCy8eXbCopaU5EktUHEQlMC3BILrhO3Hl+8GVy3QzphSMfLxw/IRzo8ceHjZ868NDMx8YtHfwo9pXZlnSplc9ft8vV93w43V3r4jrvapb71233XGw/wPb+j6w7tb7V9350Oq+/Xf2H3h48OC9jwz56f6HTz4+/vBTU0hbzJHswqLb0tzsMOpaTdrWojzs62+M818klyzm333HPGGcJ3O9W17Ha5R0VSVRXwdV19gyNx96+ul3ZbJTg4ccuP++VSPG6lesLFr0StUnXxCVVUxjo/7jT4Afvoe2bW347rvmaFteNCqBaQuF0E0r3Gs/dq/6yDBrYuGIEfljHi+Y+MSJ0WN2DBm+c9DQrH4DDg8ZnP/YI+t73vhtQq8NvfpuvSMpb9JY89JU1Stztg5KXnXXQ5seGLTl/oHbHxywa+DgH/v1/+reB/ckP7b9ySlO9rcv0F9Yaq7g/22hkGi3NTsdLS5HSK/xfPMVNHOW+OJ8z7LXmr76xPXuMsfPP0KvLNK+/U7D8vcKR43ePWDQEln3X0c9XvjiwqJlb5cvXaZYkWHcsNm2YzeUe541GJiCAkGp0O/dHV2OZNG3kF+k0EKZPzm+XGhfNL3xqXGNUyZVT5p4bvTYo4+NPDB8xKFhyVlJA9ff9dD62+9b0a3X13E37brznrKpj2tff0731oKa+bP2DH50Y9LADUkD1vbr/3Pfh37o23/DwKE/3T/gpwf67549pyUYjMQSO4hIQEThIMc0uxzBYKA1P9c2YWLhwKFQSkrbm2n+775yffz/2jsPuCaS/nEvTVQQjNgoCWSXEjohQOgQCL2X0FWKRsVyKiiignC2oKKgghQFBAWlinQigh0QsKEcaKRXNXp33nlFyf/v7XuRU/H0fe8nt2b3wwc2k83uzPOdZ2d2dyaEjwYGdC1ZUqqmlaZjvBFSXSQ+v2pxUFNY+NXwzde2xd5NTO44ntl9Mrc7I2uwpna0qHj0wvmO4mLu/pGygsgWhsPhdB5L6Q6xHQ11vWRMbrWzYvm5Nxjr1xjqF5J0T6prHYFUDsgoHpJS3CUosY1PPElcskJTudqQWGNCqjYzOKVF2imttBdHOIAnHFJQPaWjd8Ha5gRRJ0GBUBochJTIfeF8Ph8Z+mVs5Pexkd9+eMZhdf4cEV4sr3ZIWPx52AZOdfnvVeXPdu64RqGGCAq5zZgVPVcqXU2r1tGpLnjptfDNN2J2fXc0vftE9mBh0XB1zVBR8Vgtc+TC+UcXEfYQBsEtzEB9fTlJvcnSiKmvX0UiPttKH4v55raHba0B6aSqxjGCZqIs4cBChV2CC3YJzo8RmH9wxoJEEYmkuVIZCurJChqbJRUy1TSLdQ0qTUwrjY2qjE2PaWofgeSv74z5whURKYf7fmzkp7Hh149Hf2c/Hm+/zdm3+7oGMQwQOKNKfBm68peIjd2BgRuniRjyC4TOnFVkYl5qbZuvb1AXFNIQuqZ5V1xX0dme6tqeMwUDp/OHzteNtt3srqhAyn8dmxgjpLYwr379tcbT85yqxnl9cq02sW+5x+uMnS/2R/SE+jLNjdLkVRJwSnvny8cIzt3OL/6tsOS3QpLhwMz1wIxtYvhvJKCDCmrlhvoXqJYluqQCkvY5M7NEJbUcMvnZd/cm0kHXuQRefP9s5HbL6yej498/fX2+hhMV2WVktBeYsRyYtkZgesQM0WXisyUBwB0zd/886RoPz5sHDl0MCqlycGCGrr2ZnM66fKX/8tW+wmJWVs69zOyBy1cvREUPtSOPNlKF4XA418LDG8jaV82Ma7WI9WSddi/r4TUeI2s82lzMUuQUD8goMOZB2/nFdglgdovidghJRvHPiRKaw1ioFC2ptANLKDW3qDI3z1BRPa6melxNPQ5UOmlvP45+WQxXkb+uvBof77na8PtgH2eo/3XC3td7dvRRKSemz14JCDsBgA0AOANAMJ/QZrH5y2fOKjY0urk99pKPTxFJpzwgsDUt47uaWlZF9cOi0s6c3M6wsNZduxv2x79+hbyv5kGwMO1741psLG4721wxMTynolamrtlgRLpB1b1iRspWUEnDE1JwCvHCc+IEMQxRqW+nzd3KP2frtPmM+Up7ZQgJyupZujqFhnpFhqRzJjrHtIkxOPlCP7+/VhL01V8IjD7q+ul266vaCk5W+ovDB29oqtfLyCYKim0ABG0BPluAL4B/uj3fNE/B6SfUNa/6eF22ta4wMavfHHWvpOzGxojWLdHtp4tZcXE1NM/MkKU3c/P+sneEvECwMHcYe+95unYvprXZUirVVEuVlM4qq5aqqRaraJRq6eQqKmfjcBnz5ieJSsRNw0QJzt7EPytSeO7uBUoH8IRcYzLTg3rJ3eyik3GhPmkPqHRQXvn8KiR9ye+Xr2C9g/2jFWW/7Nz+bNP6ga0Rd7w976sRbioqxQjMcOITsBOYpsfHpwUAdgBQTvNsMDG87OrSujnydnzCzajotm3bq7bvbsvJa4uIWEnS3bEk6Fxa2pcvwv9+RAQLcy/xcJOt1eja4LE1wZ2edjco+rVE1TMKihlS+IwF2BxJbKa0dAZ24UGxOTEC4jFCc2IE52ydLhEtKpUgJVdqb9YWSmv0odZQDQ7LKyeCSnm6unVhG/53oF/xHmoqKnasC3u2I3rMy63J1e2UDL5GWuY8Hh/BJxgkIOwhON0c4CMDQMRCyRp723NW1jfS0tvKyi8y4mo3bj618pskM2rz/vjM3XudLGz0tHT2MuKQyArBwrAyMi8ZkbsD3R+vp/cv9elZ5NbhTGXqkLJwCukL8WkL8AnzcHtnL4gTX3BgvszBubKMmVKxotIHpKFcEqkp2L0lwLbaTC9TVW2/rEKulnq9rVklor4V+8vXtuOJCXqauhf27X29ZtkDb6/DWIU0Jc0CslHUnIXeALAI4FsMABtwsvVrVl0MXdGYlt5YUdlUy6zPyM5Zs/GEs+cNL6/mY1k29m4GZBNlRdXU5OQvX4T//YgIFqavoKjJzLjN2ujRIpdHAe6dXq7XLczPahJLNbRzCerH8CqJc+XiBMUOiMw+ukA6bQHu8CzJA3Nkj0AqZ3R1qi3JJXqaKfKEvViFY4qEajP9AgNSxe59/zvQr3gPJbknbQ2NVywKavJyv6+lckVd9ftN37C3RxZ70jbMl9w3E1NmYHgnbvfdPd/mujhn+/pX7YsvS0q5cuzE9YSjdw8k1u5i7ArfSiQZk4hkojoxPy8XiawQLAzrTGGTuWmjiU4TxeCBt1uzjWU5SesciVirb1CgTjwqrXBQVDJx+uz9gqL7BUT3CmKSxKSPLAD3zAeT5QnZGhpHlVSPKqicUFHO19Y8a0hOVCRcPZ6FxBB+sTy3NjbRrB0CvPzXevsl2dpVaWo36WjfpTl3+XpedXY6Kj6v2ti0mR583sz4iJy8zwwxEwBYJYNf6eWXf/BI+IrVxpYOOnqm+mQTbaIemahbW1X5xXL+Dx4IwcI8Kq+s1NJqNDeu1ibWGRrUGerfcjbvoFldp5iWEklpUvJJEjKHxOedlMNWkBQPi4p9yy8SLyF7AKd0SF7tCEHjgKJKOkG1wlCrwIicrKrxLajUwTz/D5L9+nb1qKtrKc17zeLgxX5LFgUt2xoUkk9fedTZrcDIoMLa6oCaBnXu/BQHpzRL6j4Lq3M0v1hJbKIZVUuNqEUka2nrGxlSyOQ3wmhp6uiT9JquI2zqGBxQBAvz89MnldbWdTo6Fw0NS4mkZnvKPXfK4DKHhz6WVyh6mTLQ0QXYOBFMmalux1rfBop61kLx/WILD+JVk1SJe0GV/W/GxSiVmJDT9Qy2SoG7tMjPh0e+vlr+D5ZoaKB/qafHmsCQpf5LghcF0nwCvHwCAtxoNmQDC3UtvJSM9ByJo/5LpDEYCdFZXoZGLlo6tmpaBEU1dXWSnp6xkaG5iTFFn2yspaGjo6nN6ur6B/P2xXaFYGE4HM7thIQieQWmjl6Fvl5HgH2Xl+0jP9tb9saXzHSPgwoMUakt/DMKDbQeRa+8s9z5ghkhGyfDmAvtlFKMlVKIBwl78QqJKur7FFXCZi/Mood+MegIPdCrV79HrVu7yNWVHhiyZFGgj5efm7O7nY09xcxSU4tEgBQWikvIzcbw8/EBfywzRcTnS+KUCRpELT0dkqGenomBgamejqGKogrNyemXnxH5L6uQLUx3ZUWBslKppsY5Dc1iRcJVY937rpRmK9MKbdIxBcJBCdntgmKpeGy9u1U51fg4Tm6P6MKdEvjt8/BRC8AdMgo7sPJRUvgYnPw6CcmrOacQWo+/ZLZvNF73c7QL9PXfumbNyuAQP5q3s52jDcVSS0MbJy0nKjwdAAB+ABDg4xMWFJIQn4OVxqsoa5J1jYiaumQ9Y11dIw11bXMD/a6O+18y2//gsZAtzEs2u8bTrYSk3UC1YOrr5cgrFamrXzAyOi6ncEwWOiolv1tkfpTQ9D2z5sQIiUcC07cJztomOjcaI7V9Pj56IX7LPGz4fFw0SDhoTHk+OPgPYv1ad/Xip5+X+fnam5tuWE5f4uPn6ODqZOdobW5hQjYggPKzposIAAA/Hx8fwDdNQGDubAlITl5ZWVNDXVtVWV1TnUjWNdBU03QwNeJwxhGKCNnCvPmXl52d5708m0OCboWuqDKnnFTVylHRSJFTTMRIHZktGc0/MxIQigWEtgtO38AvtEloZriwaPiM2ZvFFkZgpGLxSjsVVRPNLLsuXkJo/L5wtsfHx09nZXk4ubi6epobm/l6+9ODQmzMKRSyvoIsNFdUTIiPj5+PT5CPT4ifX1xkFk5aTglSIigoa2kQSdpkDQ0dfUOLtJQ0xM1M5nJGvDAcDuflk8ffJR2+vWnj3VUrz5sZpc8RS5KRTScZHNM22i4yZyMgsJFPaB2/wFIBwQABIT+Af6PI/P3K2tmOHjke3uVbtj3p6eHiQFc+hcCN5pbgRYEkTZI11daeSrWzsjPSM1SSV5YQwwgLCE4TFBJ883vafIkFChBBVVlDh0g2IJs6OtG8vRfV1CD7VuTXIAwc4+ed3z3MyLjs5VFAkDulQ6oKWVa5fHWCnMI2ANgMAGsAIAgAFgMAHeCL19AqpK9qzjw5dLf9U+oHus37BJ6xn95quVF5riwlKTnQP0BbQ1sJUhR4c/3ydpk1Q1yZoGZr47SCvior6+Sj3r4XL358f1fISvl6hIG5//rjjy9GRn8cHBprv3c3v6hy1dqTds6Z1k7Zbl7ZAUGFm7ZcTEt/2Nj4w1M2suL0b85tV2dnVXlZXk7WjujotcuXLwtcsmzp0i2bNifGH2huanz+/Pm/OfOfm7evTZjPLT+6PUrgswigwnwWLnRjXieACsPrNQAt/2cRQIX5LFzoxrxOABWG12sAWv7PIoAK81m40I15nQAqDK/XALT8n0UAFeazcKEb8zoBVBherwFo+T+LACrMZ+FCN+Z1AggThslkMhiM1D8WBoPBZDJBEKTT6XAY2RMWDodDp9NJJBKHw2GxWMw/l5aWFjabDQBAfn7++8EHQTAiIgIAABaL9f67X03Kf4eRw+EwGIyIvy5MJhPG0jJhmQifzWb/yf7t35aWlk+PC5vNBkGQwWAAAMBmT/GYJoQJQ6fTYXakP5b8/HwQBKlUKqzE23F/f5DlCpOfnw9vj8FgqFTqRGFoNBoAAPDviIgIDAbDC8L8dxhhYegTFhgXXPUxfy5wtebCZ7FYIAgCAIDBYLgrNBqNw+F8JC5UKpUbTVgVOC6oMJ931qbT6VQqlcPhkEikiIgIDocDgiAGg0lNTeXuiMFgYDCYiSc57ls0Gu19YWg0GoPBAEGQzWbzjjD/BUY2m834Y4HbGDqdjsFgGAwGFy/sAAAA78MHAADekhu4iZ96Py5MJhP+CBwXAABQYSYS+9R1Op0OAAAIgiQStVhgfgAAF5pJREFUCQAAEok0sUsG74VKpcInMO5JDm6IYLW4wpBIpNTUVBqNRqfTGQwGiUTitjNffZfsv8PI4XBgtnQ6HXYGAAD4VAWfcTAYDAAAsIpc+HBQPijMR+LS0tLCFWZiXNAW5lNVgbfjXo3k/7EwmUw6nT6xecnPzwcAAO5Yc2OWmpoKJzKZTO41DI1GYzKZE4WBz2q80CX77zAymUwYO/wbphoREcFisVpaWvLz8+EUOBxc+Gw2G/aTSqXCjRJ8quJwOB+Jy0RhuAdCr2E+zxZ4a7j/Df65AADAvejnkuVuCV/0cwOTmpoK3yrgXvTDnYGIiAgQBJlMJo90yeAu058I3/z9FIywA3CrDjfv3CtJDofT0tKCwWDgtn1il4zNZv/1NsGbV7BUH4kLfOKDBZt4IkNbmM92hsFg0CYsGAwGFgZuGSZ2qbknObjpJ5FIcI8CDgZ8lywiIoJEIsFb8s5FP3z5PoEi7VMwckMFV3TuS25bQaPRuBWaCx9ufybcQvvPKpvN/khcqFQqfJOASqWiF/0TUX/2Oo1Gg2/+cs9b8OmKzWa/cy+YG7N3jjHxLtk7b/FOC/O/YHxfGBaL9c5tei58uOr/eQvt7d+JHWk4CpPFBU5HL/rfqauf+hLuPk3sTsBXme9/nntL7Z23JgvM//8+Dbi3gMFg3nHvnT18BS//F4ypqanwfciPcJgM/kc+8ilx4bZgH9nP/+lbCHsO83/KAt05SuBvCaDC/C0idAOUwFsCqDBvWaBrKIG/JYAK87eI0A1QAm8JoMK8ZYGuoQT+lgAqzN8iQjdACbwlgArzlgW8Bj/WhMefv/se+vqfJoA42ggThsViwQO/3x8nCz8P5o4Jh8cyw08MJg5n/mAKPDaERCLBD+AAAECFgQftT0YbHvwCP4znTon5IFv4USX3MWVqaiqiaSNPGBqNlp+fDwdy4uPFlpYWeGIZPLi1paWFxWLBQ6TgwX+sP5Z3UjgcDjwqBJ6lRKfTEXfO+6dP+m/3x2KxJqMNP+yHh3tjMBh4mMU7bN/n/xXQRpgwcDDZbDZsxQef+3IH/HPn6MGPkOG5HPCIV24K/HQfnjKAwWDgAbloC/NWGg7ng7ThYZFwKwSPZOUR2sgTBj5vcWdiTAwtdwIT3PLAo4/gDeAZSO+nwOPSGQwGPCsmIiICDjzaJYO5TUYbJsntwcJTl+GpYxwO5yumjTxhOBwOPI/lg+0AjUaDh/Rzm46PCwNPHYN71VQqFRXmnRPQZLS5E4/hmXyfKMxXQBt5wsDdMHiCEfdSkhvmiVMy4H42/MUYcIv0fgr8QXjGBfwbvm2AtjAwmY/Thofuw12y99m+n/IV0EaYMPApKjU1Fb7oZzKZ8KkOvicGX5nA69zuNfydDfCs4w9ehsK9CwaDwa0cNBpt4u0Ero28tvIR2vCFTWpqKjyf7NMv+pFOG2HCtLS0wH0A7p1iFosF39zkGjJxDtmn3OiEQwjfYeP+RlsYeBLlZLRZLBb3axW4rHiBNsKE+eA5Hm5wPvjWpyTCwnAf4MArE637lJ3wzjY8ThvxwsAT8bknOd6puFNSUpQ24oV5/ccyJbWHBw+K0ka8MDxYa9EiTyEBVJgphI8eGnkEUGGQFzM0x1NIABVmCuGjh0YeAVQY5MUMzfEUEkCFmUL46KGRRwAVBnkxQ3M8hQRQYaYQPnpo5BFAhUFezNAcTyEBVJgphI8eGnkEUGGQFzM0x1NIABVmCuGjh0YeAVQY5MUMzfEUEkCFmUL46KGRRwAVBnkxQ3M8hQRQYaYQPnpo5BFAhUFezNAcTyEBVJgphI8eGnkEUGGQFzM0x1NIABVmCuGjh0YeAVQY5MUMzfEUEkCFmUL46KGRRwAVBnkxQ3M8hQRQYaYQPnpo5BFAhUFezNAcTyEBVJgphI8eGnkEUGGQFzM0x1NIABVmCuGjh0YeAVQY5MUMzfEUEkCFmUL46KGRRwAVBnkxQ3M8hQS+BmFG+7vvNja8YI/8/vIHzqvfPkrzNfzunesNH90MfRMl8GECiBfm7sVSC1mM6jSApiW7L9Qtb+/a81n72L33Jha34cyxTc5G3y522OlMObZy8YlNS+1lpsWGuD0Z7pu4GbqOEvhbAsgW5vm9sh1uilTcLHv5uQbiAjozgOXWpMgAizBbwqXjW179+hOHwxnrf+gJiurPAGxBUVe52Y4ifCFyswPUF1LmAitMCfeuX/hbRugGKAEuAQQL8/xRS0WY3jYXrQ0uBmtsiR7KC3WF+Y1m8vuTlVa5mq4xk2w84jV0/1rqt2GmGMBaWtRZeZ6FjAhVapb1PFF/oowLOMdOctpi4sL7zW+6Z69++fGXZ90/DLS9fD7IpYOuoATeIYBIYX54MnIg1OsbE3k/OZFQE8X17sYrrbR8ibIm82bqTRcwEhP0UMPSrbT3u0jX79BZRNXSmytkA4qbYUXNsbMcFOYqTeOj6cgtIsnaSM50wM4M1JdvKk0bu1PS3xA30nT4cUfRT2y0q/ZOPUFf/ocAIoW5Vn7aR0nEUlJEVgAww2FWO+qH2pCWmqp4EGWNJabriwiazZ0RqIsLNVXMXiYfHySvLSlqIiNKFBe0ADHOqgsUZk1TWyC62k7bSkqEihenYkWCTJTuMw+3Zq89F+Xckbem99L+J6zL42glQQm8RwB5wrxkD6au91xjR1xmogwKAnIzBBeZqgWaa6yyIq601rbFzzGcJWgoJmSNnWUPzvFSkji7QWuDm4aSqKC6qKDO3OkW8vOM8RISQoC9BtYRmqc7f7qlgoSxlEjiKuuWdP+icPO6WMrNY+695zf90NswPv7qPWJoAk8TQJQw4+P3yjNyFxO3WIHLKBrrHXX154pgAMBMUZJurbPaRnu9qwGdoq4nJqg/S8hYQtgKK+qiMGevi1z6Oh1IVFhFTEhdfBpZRtxaab6cmDB2lrCDOpYsKWosJ24qI+qjp3AxLeROtl933daeuu1DV3eONO3/7cUwT9cOtPDvEUCMMD8/7WtLXZFsjy0MwEfZQsHGquEuBt5EvAQfoCghssxGh25NCnM3ig6woshgtIT5qJKznJQkffXk1xjhyjZrkaTFVCRmqs+Zrr1gpgFWnCQtLibIR1HHexqqaC+caYgVs1NamL1n+Q8d6cOtST8N1v7IymbfPfjq1xfvEUMTeJoAMoT57eXz7lpGbrD2CV/lzn2asQ7yQYbKIeYa3ziQ1cSEZ/MBThpyKx31lzvo71ru4qMrr8IHUKXEQ6mk5fYGNF1C4TptPyO8hpyk1DR+Vcx00tyZ+gtFZcSEpUSEHUkE7Xkz9KVEzWUw4U5aY7cSBhsTG6KsH2Ra9pe4/DrEHH/9C3oxw9OK/LXw/3ZhxsfHf3zS+2N3Mfvm3ppYl5Ykn8GSkJRAbQ8NnL+B8jYfC09V7GwAIMyeQbfQ9KFoxa3zCnMzVQQAi4ViCas8Dq73D3YwTvQnrbFUJEmLkebPkBUWIGKESXOmq0jMmC0AGMpLW6nKmciIm0qJLjZSvpbm1pZoepy68JARNskMV7XK4PG1pF+/7x1//Z8hAn+lh77iOQL/dmF+fj709EH12JWI729F9dWG91yIfnYrsS7O001Fapk1KdxBZzVFQ266gCg/QDdWiPSz2BvmGxviIg8AltKzc3eGNuTFFyZH7aORd9vI7rFTqt+ou9ZSZgE/n5KokPbcmVKiwlix6T4UHTPsbEOJaQHmpKIYq5sMQsVquSOO+D2m0jmequ3Jvj8+KPj58QPOONrS8Jwe7xf43y7M875b7Pac4Ytb+5lhd5KdLnyjdzfB++Zuk0BdKU+y8ioLtc0uBtaKUiIAQMHP3e5rdmjb0viIEAI/H0VKPNKXevzbFWdTovcHGB/xVt7vonx9h03lVisz/DwxACCICithZooAgLkS1lxunqYIXwBVP32tyeUY7Xy6WlGoanmYYfOR5X1Vsc9vxj/rqn796vf38aEpvEbg3y7Mi7EHj9vSB6tDO08tv7DJrNRd+god27Edl+aD89TA+uorBplrBOrLywrxz+EDPEjypxI2J8euU+bnC9QBMzZ776Hbm2tA6yxwSUG65fuWVG2xrNtmkb2O4qoquc8Bn0BTpiotcCPMW6QtS10ovI6KT/GSaztkfedkUFcRvffcMlbxN0/ajj5tTflp+O442sLwmhwfKu+/XZjXv/862Fbafz6GleXavNvh2m6nGzEGzetx11dLprjLbbSCVtuo7FtsaCqNkQAA0hzhwsSIuPVBBABwhiRCqFqhjrpBlsoxNtjqjZq9BQGtmaGX41yHyiPPb7FJWqyy3VqqONLhkK/BUQ/Z6p3mTWnejYddb6V79lctH70eOda4baA6uJ8Z8bAi7oe+mx+ih6bxHIF/uzAcDueXH58+qonvLtvSnevVGGNYGUwo9sTnOeAq/WXLluBzF4G5S1VjbUHyrGl+8nOS3eXjnFV9ZTBWC0R2BVHqkoITvYkHzaTv7iT35vi0Z4Q8yl/5qq/04j6fZNv5kWSJDRTZsk2Uc+s1mXuoF/bb9jZ8O9Z6cPRK2MjF9QP10f2Xjw61FH/fc2P8NfoEk+fc+GCBESAMh8P5viWhN8+9t+yb/iJfVrbrpU36x6ywh/Slkg1kcqxxBe6yp73lI7Sxhyn4trULhlL0G1ZoMHRlkh2Ucn1UCt2kszwXptE0z63UvZxI7yyL6zqz4btjDsythg/zNgzer+pqKiyL9a6NIj0qDx26EjNQH91dFdVTlzjSVvzkRtbjizHjv6NPYz5YeXgxERnCvOg4PZCuOJxNHsizH64MHTkf1VP4TftRv7pNlgW+GqfdFLKssEcNJVMNJDONper9FtT7S1e4yxU5yl5YLHVpifTF0AXla6GyTeTTy4lXj9I7CiNYJWHf5a18mL9qpGRJ35mV7Um0tpQld89E3snd3FG4vfvcjsHyyIE8v55UsyfnN/JivUDLPAkBZAjzsv/yQA55IF1jIFVlIF1lIEt/uMBjpGL1WF3M44a4scuHBqoZrKKou5kbmuIXN8c5NsZa1m+lXIqi3NxreTue2pni0J9t+yjN4t4hsxt79L7LcLhz0Px2gu3tvWa39xi3xppej7a4Gm11LcqsOcbkRrRu8yblW9FqDw6Z9GdRnzXGT4IOTeZFAsgQ5tXL58NnPYZOkfuPE3tTNXtT1LoPKz6Kxz2Kx/cc0uw/Zj6c5z5atGi0OHggb9HDY7R7h+wvbTOqCyPXbzKpizS/HGvbsNWqYoVu+VJS2TId5hrDihBS6WJisZdKgROU7yBX4IordMOeccXme+Kqlym0xJC7T7gO5rkMnrR58bCWF+sFWuZJCCBDmPHx10PlId2Z+kO5RsP55gM5Rj2pxIcJ6p37VDt2E+7GyN+MBJvW46+sxF0IwjaE4OqDZGr9ZUpcZU/ayh23kEs3l00xkT1qjD9ujj9hg0+3lD1mJ5fjJHfCGjxmCaVZQem2ULYLVLJE6VK4Znu8aXemY99J1+7j1N6THr88eTgJOjSZFwkgQ5g3M40vrOtM1enJ0BvMNR86YzmYazSYazZwktKbYfbwiEF7HOl6mHJ9KKEySKkiUL4sACykgaecwUw7KJUKJVGgw2ZQCgXKsIcYVHymP3gmBH8uRK7AE8xxhHLdoGI/fPUy8GqEamuM9p04g/Z4w/b9+g9SzHtOOrwcuc2L9QIt8yQEECPM08Y9fXn6/XmGfSf0ezPIPenafVn6fSeMejMM+06Y9mUZ96bpPTio2rWf0LFPpX03oXUr/so66doQbKkPPt8dOuUI5TlBeTTouBdYFoyvDpE964s/4wHmuUOnaVCRH3guCKxeoXB+jeLlTYTWndodR8weZdn0nnH97XnvJOjQZF4kgBhhnt/JGDhjOlxqO1RgOphv1p9t0Juh8yiF+PCIZmc8oYOheG+XQusmmeb1Ujejobt7CLdi5Rs3Sl9cLVW1RPacL77AAzrjBhV6gmf9wDw3KNtRPsMeSrWF0uyhdCco0xXK9YJKg6GGcJU2BrkjybwrncrKovYVL3718jkv1gu0zJMQQIwwP3adHSykjJa7jJylDp+1Gj5rM1RkOZBnMpBH6T1h+jBZ5/5e1ZZIhWvr8NfW4a5tkL24GlsTjC1fJJfvAeW6QJkOUKoNlGoNHbeDUqygwxZQogV00BJKsoMy3KEzAWDlSqghXLEpVutWvFFHMqUz3eLBcbPBqrXoOOVJag6PJiNGmJ8Hrw4VW41WuIxWOo9WOI6csxvMNx0sMB8qtBoqsR8sthvIt+7PNevJ1PsuQfV2LNQSDV6PkL2wSqYsULbQG8z1gLKcoVQ7KN0BSraGUmygVHso2R7KfGMLVBKEr14FXtxIaI7VvpNg3HHUouuYxcNMs+H6bTxaL9BiT0IAMcL8+uT+cKnDaKXLWI37aKXjSLn9UInFYLHF8Fnb4VKnwRKHwQKbgTPUgdPmXcma9/Yptu9VvrlTsTFStm6VTHmwXJE/mOsJZTpDaXZQkvUbW9Kc5FOcoGwalL8IOhuCr14NXo5UaWXotR82+S7N8mGWFSub8uRm5iTc0GQeJYAYYX77oX+k0nO0wnGs2m200mm43G64zK4zx6q30Gaw1GGgyLb/jFXfaYvWBP3rezQ7jmjdP6h2e49iczR0ab30+VCZ8qVyhf5gLg3KcoWOu8hnerzpiWXRoFw/qDAQX7Ycf36DwvUYrZvxBveTKZ3HqQ9zrFk5ls86zvFovUCLPQkBxAgz/urXxw2ho+V2Y1VOY5V2I2U2I+V2/SX2fSUO/SW2fUXWPQVWNxIMw8xlD/oSbiVqdxzWvLtP5UY0eDUC27BOumo57mwg/ow/mEODsj2hE7Q3Pzk+UJ4/VBQElq3C10UQmndq3040+e6YVVcm9VGefU+e/Yveq5NwQ5N5lABihOFwOM/aEkfKbcfOe47VuIxW2IyW2YxWOY9Wug6dcxwosesvsmGdsmhN1LtxQOd+Mul+glr7QY3Grfhrm3EN62Qq6bjiJfhTftAJXyjH6w9bvKFc/zctTHEwvmg1eCFSuZWh055s3nHcuuuE9YNsi96y0Fe/veTReoEWexICSBLm+66CoTKHsTqvx/U+Y7WuY9VOb1qbavfRSrehUoeBQuuBAupQvkX/KZOuZGJHovrdAxqNW2Wvb5Vt2CBTtRJXGowvWAKeXgKd8oGyvaBTftBJHyjXG8oPxh8LUbgaq34z3uBesnlnlu394xbtRw0HLh6cBBqazLsEkCTMTz1VozW00WraSLXr43rfx/W+Y7XuYzXuY9Uew+VOQ+ccBksdBwpte3JMOg+pte9TuhOv2hIL3tipcDkSV7dOpnKFbPESsHAJeDoAOuUL5XhDJ72hM/5gMR1ftkGpaZf27UPG7UlG7clGd5ONuk5YD11FheFdMSYrOZKEeTnWNtYQ9PRK8OMLPmPnvUeqXEcqXUar3EZrPEZrPMfO+49U0wbOOvTmmnVnG9xP1rqbRLwZp9S6h9C4Hbq0Cctciz0bhC9YDBYsAc8sgvL83txQLlgMVq8FG7YQru0gXttDvhZncD/F+NFp595ij9GW1Mmooek8SwBJwvz67MHjK6vZjavZ15axr9OfXA4arXEfLncaPGvXX2Q9UOLYV2Tfk0th5ZjeSiG3HSHeTtRsi1Nu3A5e3SJXtw5bswZXEoQ/vQg65Q9l+0AZtDc/2T5QyXKQGU5oitO/ftCi8Yh1d55Dd6F7b4kXu/0kz1YLtOCTEUCSML///PhJYwS7KZzdvI7dtJrdtPLplaAnl4Ie1weN1voNlXv2Fdo+yjHtTCefCVOrjiI0xoIXN8nWrsZVheJKQ+SKgvB5AWCmD3TcG8r0efOT4wcWLcXXhite26Vz65D57WSLjlPuj047dxd59JbQfnhYPhk1NJ1nCSBJmNe//fT0Riy7KexZy+bnrZHPboSzr618ejn4ycXgx/WBY3VLhqu9hspd+ort2lKNb6UZtB/RbGMoNcUqXIuSv7gZz1yHq/5GtixUrnAZWLwMX7wUPEvHV67B129Rbo4zaI03upNm8SCf9ui0S0+xd3/Z4p+Gmni2WqAFn4wA/wnW/wNLfScYx34TCgAAAABJRU5ErkJggg==;" vertex="1" parent="1">
          <mxGeometry x="641" y="400" width="124.67" height="220" as="geometry" />
        </mxCell>
        <mxCell id="OR4K_Lvooa0aKepmsGJe-65" value="" style="shape=image;verticalLabelPosition=bottom;labelBackgroundColor=default;verticalAlign=top;aspect=fixed;imageAspect=0;image=data:image/png,iVBORw0KGgoAAAANSUhEUgAAARAAAAHgCAIAAADi+qVbAAAfLUlEQVR4Ae2dUYgdV/3HDyKkSoXe4qNIM/Sx6ur0wYdCFKZviRB1HjQh5GmICYKIZSC2ikbtzVPBPiQDwSilNI786UNTIpmH0qwUiwOlBHyoGZuShgZCZ2nVFolm/u7+sofJ3Lmbu3fvnnt+dz/Dkp2ZO3PPbz7f87lnztykNZ/4XcUPBCAwIQEz4XEcBgEIfOJ31aowDQsEIDABAYSZABKHQGCdAMKsk+A3BCYggDATQOIQCKwTQJh1EvyGwAQEEGYCSBwCgXUCCLNOgt8QmIAAwkwAiUMgsE4AYdZJ8BsCExBAmAkgcQgE1gkgzDoJfkNgAgIIMwEkDoHAOgGEWSfBbwhMQABhJoDEIRBYJ4Aw6yT4DYEJCCDMBJA4BALrBBBmnQS/ITABAYSZABKHQGCdAMKsk+A3BCYgsFVhiqI4f/787du3J2iLQyCgnsCWhLl06ZIxZjAYrKysqCfh6wXUdV2WZVXd+e8uVFWVZVlZlhvUm+d5lmV1XW9wDC9NR2B6YS5durRr16777rvvlVdema7thT8rSZKgbwnDUK49y7JB35KmqYVTlqUxJkkS2VMUhTHGHlDevYhXURQZY6xj9q1Y2TqBKYURW3bt2vWnP/1p60Us6jtkWZauLWEYylAsm7a7Z1lmjInjeLi+JEli9UjTNIoiOTcIgmhtaQtT17W5e5F3Rpjt61HTCHPp0qX77rvv05/+9GuvvbZ9lS3MO1dVFQSBdOyiKNrXJcJkWWZ3tscTEUY8sX+2hWmaxg4ww+HQGDMcDpumQRjLc+Yrmxbm0qVL999//4MPPvjnP/955tUs2BuWZZmm6WAwkK4sK0mSFEUhEwwR5u5BYnXL3oDVdT0cDuM4TpJEbrE6wlhiaZoaY/I8RxjLZDtWNifMxYsXd+3aJXcXX/rSlx4es3z/+9/fjlp1vWdd12JIGIYysFRVJZ/9xhiZtZdluX4vdtdvOxDZ+zFhXlWVCCObdupf13UQBIPBQBAxwmxfV0GY7WJb13VRFGVZ1ncvVVXleV7Xde8dl731iuNY3JDRxg4sshKGYZqmdlovw4udGiHMdoXaNJsTpmkabskmDMMOJqN3XPYBgNVDDh4MBnaPFUY0sHMba44tQ2yxT964JbNktmNl08I0TbO8vPypT32KSf/GeRRFka0v8uwrjuP1HZlMNsqyzPO8WlvkcVn7PeVGS/bL3V2xttjHykVRyOOEIAja37owwrQxznZ9GmFknNm1tvBYeZI88jy3j7Dax9uZel3XSZK0H5fJYVVVxXEsz5RlYtMeYWQ9SZK2LYwwbcIzX59SGOsMX1xOEsnGwogqdvDJsjvjT+87t4VpmqajipzCCNOLbiY7pxdGnDHGPPjgg/zVmI3D2FiY0UlOFEXj3rAjTO9hCNOLZSY7tyRM0zT85ctJYuj8fbBJThl3zCRvVVWVfeI87n3YPx2BrQozXaucBQGlBBBGaXCUPR8CCDMf7rSqlADCKA2OsudDAGHmw51WlRJAGKXBUfZ8CCDMfLjTqlICCKM0OMqeDwGEmQ93WlVKAGGUBkfZ8yGAMPPhTqtKCSCM0uAoez4EEGY+3GlVKQGEURocZc+HAMLMhzutKiWAMEqDo+z5EECY+XCnVaUEEEZpcJQ9HwIIMx/utKqUAMIoDY6y50MAYebDnVaVErgjzLV33uEHAhC4JwFGGKWfdJQ9HwIIMx/utKqUAMIoDY6y50MAYebDnVaVEkAYpcFR9nwIIMx8uNOqUgIIozQ4yp4PAYSZD3daVUoAYZQGR9nzIYAw8+FOq0oJIIzS4Ch7PgQQZj7caVUpAYRRGhxlz4cAwsyHO60qJYAwSoOj7PkQQJj5cKdVpQQUCFNVVZZlRVH0Ii7LsigKOYb/13YvInbOkMBshEmSJOhbwjCUWrMsG/QtaZqOXkxVVWEY2peKojDGJElij8zzfDgc1nXdNE0URcaYPM+NMVmW2WNYgcB2EJiNMFmWpWtLGIbGmMFgIJu202dZZoyJ43i4viRJ0tHAXl5ZlnKw7BkVJo5jY0xVVQhjobHihsBshJFaq6oKgsCsLZ07KBGmPQKIFe1xw16wHBwEgewRYQaDQRiGMqogjGXFimMCsxGmLMs0TQeDgTFmOBzKSpIkRVFIFxcHxKX2n6PC1HVtrRsOh03TiDBBEERR1L4NK4pCbgW5JXPcaXZyczMQpq5rMSQMQxlYqqqSqYUxRibiZVmu34vd9bszEBVFITd1WZbJShzHMj9pq9UxE2F2cg92fO2zEaYoirIs67uXqqryPK/rOk3TaPwSx7G95jRNjTEy86nrOkmSOI47cxjZNMZEUcQcxqJjxQ2BGQhjB5P2vZZdlwcAbV/kqYDd0xamaRqZytd1XRRFnufF2mIfK9d1HYbhYDCQZwZ5nvOUzE1HoRUhMANhiqLI1hfpx3Ecr+/I8jxvmqYsyzzPq7Wl/QSsNwY7C7LW2dmLTPfTNJX7QJnYcEvWi5Gd20FgBsK0y5L5hkzW2/vlXkvu0JIkaT8uax8mahljwjCUe7yqqobDob1PK8vSTmaqqiqKghGmA5DNbSXgVBhRxQ4+WXZn/GlfYVVVxpggCPI8l2/xZdSyX+m0D2YO06HB5nYTcCqMvcWyKzJx71xknuf2ybIcmSSJPFDuHNk0TZqm9knaBgPX6InsgcAUBGYsTF3XZVnKxH2KatqnVFUlbzVOlfbB0u4kR7bPYh0CmyUwY2E22zzHQ0AXAYTRlRfVzpkAwsw5AJrXRQBhdOVFtXMmgDBzDoDmdRFAGF15Ue2cCSDMnAOgeV0EEEZXXlQ7ZwIIM+cAaF4XAYTRlRfVzpkAwsw5AJrXRQBhdOVFtXMmgDBzDoDmdRFAGF15Ue2cCSDMnAOgeV0EEEZXXlQ7ZwIIM+cAaF4XgW0U5sKFC0eOHFlaWrL/IFnFyiOPPHL48OEXXnhBV5BU64bAtgizsrJy+PBhFXpsUOTevXvfe+89NzHQihYCsxfmo48+OnDgwAYdUdFLBw4c+Oijj7RkSZ0OCMxemAsXLihS4p6lnjp1ykEMNKGFwOyFWZjhRVw6cOCAliyp0wGB2QvzhS98of2x7eAaZtvEG2+80a7/i1/84mzfn3dTTWD2wrR7mzFGHZ2OMBovQR1zRQUjTDcshOkSYbtFAGFaMNZWEaZLhO0WAYRpwVhbRZguEbZbBBCmBWNtFWG6RNhuEUCYFoy1VYTpEmG7RQBhWjDWVhGmS4TtFoGFEubjjz/+y1/+8uyzzz733HOXL19uXeYmVt9++23tT8Y3cbUcukkCCyLMlStXnnjiic985jPtvv7oo4+eOXNmk0AaRpjNEttRxy+CMCsrK1/96lfbqrTXjxw5sqlEGWE2hWunHaxemA8++OC73/1u25DR9WeffXbyXBlhJme1A49UL8yLL744akhnz/3333/t2rUJ02WEmRDUzjxMvTDf+MY3Onr0bv7mN7+ZMGBGmAlB7czDdAvzr3/9q/P/W+61xRjzwx/+cMKAEWZCUDvzMN3C3Lp1a5whnf1f+9rXJgyYW7IJQe3Mw3QL0zRN55/fdDyxm0899dSEATPCTAhqZx6mXpjvfOc71ooNVn7/+99PGDDCTAhqZx6mXphXXnllA0/kpc9+9rM3b96cMGBuySYEtTMPUy9M0zQ/+tGPNnbmpZdemjxdhJmc1Q480lNhrl27tnfv3h/84AeTRPLxxx9/+9vf7nXmk5/85NNPPz3Jm9hjEMaiYGWUgI/CnD179oEHHhABJnSmaZo//OEPn/vc59raPPbYY2+88cboNW+8B2E25rPDX/VLGBlY2p3eGDO5M03T3Lx586WXXlpeXv7HP/4xXbQIMx23HXKWL8LcuHHj5z//eWeIsOYcP3783//+t5tIeErmhrPSVrwQpndgsbbIyqbGma2EwQizFXoLf+78hWnPWDqSdDZn7sytW7fOnj0bRVE7ZoRp02C9Q2Cewly4cGH//v0dKzbe/PGPf3zr1q3ONUyx+be//e1Xv/qV/K84lpaW2u/ALVmbBusdAvMR5ubNm7/4xS8+//nPb6xH76tPPvnkVpwRVb785S/bN0eYTp9gcwMCcxDmj3/84ze/+U3bX6dYefLJJ//zn/9scFW9L125cuXpp5/+yle+0mkRYXpxsbOXgGthJp+xdLp1Z3NT8xmZqzz88MOdN5HNhx56qI2GOUybBusdAq6F6e2y0+186qmn/vvf/3aup7NZVdVwOAzDcIMmGGE60NjcgIBiYYwxP/nJT8Y5M4kqYhHCbNA/eKlDQLcw4szt27fbV/X3v//95MmTjz766AajSvslhGnTY31jAuqF+d//v+WnP/2pXORmVWGE2bhz8OoogUUQRv6+2dmzZ8dN69vjyeg6k/7RbsGecQQWRJhRDSbfwy3ZuM7B/lECCGMQZrRbsGccAYRBmHF9g/09BBAGYXq6BbvGEUAYw6R/XOdg/ygBhGGEGe0V7BlLAGEQZmzn4IVRAgiDMKO9gj1jCSAMwoztHLwwSgBhmPSP9gr2jCWAMIwwYzsHL4wSQBiEGe0V7BlLAGEQZmzn4IVRAgiDMKO9gj1jCbgW5iH/lscee6yNh3/T36bBeoeAa2E6zXu4yX+XzMNQ/CkJYbpZIEyXCNstAgjTgrG2ijBdImy3CCBMC8baKnOYLhG2WwRmL4z8B4vtvxB+W9uyvLxsizfGPPDAAy1crO50ArMX5vDhw+0Op3398OHDO72PcP0tArMX5sKFC9oladd/6tSpFi5WdzqB2QvTNM2RI0fafU7v+pEjR3Z6B+H67yawLcKsrKwswI3Z3r1733vvvbtxsbXTCWyLMAL1woULR44cWVpa8u/L/Y0qeuSRRw4fPvzCCy/s9K7B9fcR2EZh+ppjHwR0E0AY3flRvWMCCOMYOM3pJoAwuvOjescEEMYxcJrTTQBhdOdH9Y4JIIxj4DSnmwDC6M6P6h0TQBjHwGlONwGE0Z0f1TsmgDCOgdOcbgIIozs/qndMAGEcA6c53QQQRnd+VO+YAMI4Bk5zugkgjO78qN4xAYRxDJzmdBNAGN35Ub1jAgjjGDjN6SaAMLrzo3rHBBDGMXCa000AYXTnR/WOCSCMY+A0p5sAwujOj+odE0AYx8BpTjcBhNGdH9U7JoAwjoHTnG4CCKM7P6p3TABhHAOnOd0EEEZ3flTvmADCOAZOc7oJIIzu/KjeMQGEcQyc5nQTQBjd+VG9YwII4xg4zekmgDC686N6xwQQxjFwmtNNAGF050f1jgkgjGPgNKebAMLozo/qHRNAGMfAaU43AYTRnR/VOyaAMI6B05xuAgijOz+qd0wAYRwDpzndBBBGd35U75gAwjgGTnO6CSCM7vyo3jEBhHEMnOZ0E0AY3flRvWMCCOMYOM3pJoAwuvOjescEEMYxcJrTTQBhdOdH9Y4JIIxj4DSnmwDC6M6P6h0TuCPMtXfe4QcCELgnAUYYx59QNKebAMLozo/qHRNAGMfAaU43AYTRnR/VOyaAMI6B05xuAgijOz+qd0wAYRwDpzndBBBGd35U75gAwjgGTnO6CSCM7vyo3jEBhHEMnOZ0E0AY3flRvWMCCOMYOM3pJoAwuvOjescEEMYxcJrTTQBhdOdH9Y4JIIxj4DSnmwDC6M6P6h0TQBjHwGlONwGE0Z0f1TsmgDCOgdOcbgIIozs/qndMAGEcA6c53QQQRnd+VO+YAMI4Bk5zugkgjO78qN4xAYRxDJzmdBNAGN35Ub1jAgjjGDjN6SaAMLrzo3rHBBDGMXCa000AYXTnR/WOCSCMY+A0p5sAwujOj+odE0AYx8BpTjcBhNGdH9U7JoAwjoHTnG4CCKM7P6p3TABhHAOnOd0EEEZ3flTvmIDXwqRpWhRFkiRxHDvmQnMLRqAoiizLyrKU64qiKE3TKa7RL2HKskzWlzzPgyBI0zRaW6a4Nk6BgBAIw3AwGMRxPBgMkiRpmiYIguk+hT0VxhgzHA4Rhh4/EwLGmCRJqqoK15bFEUboVFVljJERJkkSRpiZdJqd/CZZlskgE0VRURSLJkyapsaYuq6DIDBrSxRFOzlvrn0rBLIsS9cWmQxHUZRl2YLckjVNU5blYDCQCVkQBIwwW+krnNs0zXA4jOM4iiJjTBzHaZrmeS5Tmin4+DWHkSsJw1CuhDnMFIlyyiiBuq6LopD7fJn6izyjR95zj1/CyIdBXddSN8LcMz8OmIRAkiTGmCzLqqqS49M0zbJsknM7x/glTKc4hOkAYXM6AiJMPrJM8W5eCyO3mzwlmyJXTmkTSNM0GFmme5LktTDta2YdAj4QQBgfUqAGNQQQRk1UFOoDAYTxIQVqUEMAYdRERaE+EEAYH1KgBjUEEEZNVBTqAwGE8SEFalBDAGHUREWhPhBAGB9SoAY1BBBGTVQU6gMBhPEhBWpQQwBh1ERFoT4QQBgfUqAGNQQQRk1UFOoDAYTxIQVqUEMAYdRERaE+EEAYH1KgBjUEEEZNVBTqAwGE8SEFalBDAGHUREWhPhBAGB9SoAY1BBBGTVQU6gMBhPEhBWpQQwBh1ERFoT4QQBgfUqAGNQQQRk1UFOoDAYTxIQVqUEMAYdRERaE+EEAYH1KgBjUEEEZNVBTqAwGE8SEFalBDAGHUREWhPhBAGB9SoAY1BBBGTVQU6gMBhPEhBWpQQwBh1ERFoT4QQBgfUqAGNQQQRk1UFOoDAYTxIQVqUEMAYdRERaE+EEAYH1KgBjUEEEZNVBTqAwGE8SEFalBDAGHUREWhPhBAGB9SoAY1BBBGTVQU6gMBhPEhBWpQQwBh1ERFoT4QQBgfUqAGNQQQRk1UFOoDAYTxIQVqUEMAYdRERaE+EEAYH1KgBjUEEEZNVBTqAwGE8SEFalBDAGHUREWhPhBAGB9SoAY1BBBGTVQU6gMBhPEhBWpQQwBh1ERFoT4QQBgfUqAGNQQQRk1UFOoDAYTxIQVqUEMAYdRERaE+EEAYH1KgBjUEEEZNVBTqAwGE8SEFalBDAGHUREWhPhBAGB9SoAY1BBBGTVQU6gMBhPEhBWpQQwBh1ERFoT4QQBgfUqAGNQQQRk1UFOoDAYTxIQVqUEMAYdRERaE+EEAYH1KgBjUEEEZNVBTqAwGE8SEFalBDAGHUREWhPhBAGB9SoAY1BBBGTVQU6gMBhPEhBWpQQwBh1ERFoT4QQBgfUqAGNQQQRk1UFOoDAYTxIQVqUEMAYdRERaE+EEAYH1KgBjUEEEZNVBTqAwGE8SEFalBDAGHUREWhPhBAGB9SoAY1BBBGTVQU6gMBhPEhBWpQQwBh1ERFoT4QQBgfUqAGNQQQRk1UFOoDgTvCXHvnHX4gAIF7EmCE8eFjixrUEEAYNVFRqA8EEMaHFKhBDQGEURMVhfpAAGF8SIEa1BBAGDVRUagPBBDGhxSoQQ0BhFETFYX6QABhfEiBGtQQQBg1UVGoDwQQxocUqEENAYRRExWF+kAAYXxIgRrUEEAYNVFRqA8EEMaHFKhBDQGEURMVhfpAAGF8SIEa1BBAGDVRUagPBBDGhxSoQQ2BWQpTVVWWZUVRyNXXdV2NWabDU64vWZZVVTXdm3AWBFYJvP5m838Xm3dvbJbGloSpqioMwzRNpdWiKIwxSZLIZhiGZswiB2RZNuhb4jiWA8qyTNaWsiybpgnWlizLjDF5nssx/AmBexB498bt7/2sCb/VhN9aXVmT5PYvT6/uef3Ne5w78vKWhCnL0hhj+3dHmKIokiSRA/I8T9PUGBNFke3rZVmmdy9yfBRFTdPIm4tQxpiyLBFmJD523JvAHVv+7+LqkBJ+qzn4RNM08xFGPuyDIJCqRZjBYBCGYb22yAFpmlZVlee5jD91XY+7yraBIpjc08mJQRDImzPCjAPI/h4CB5+4/fVDTfFa8/qbt79+6Pa+o/MRpq7rIAjknms4HDZNI8IEQRBFUV3XURT13pFZwUavTaSSezwZbUQ8GaakOfnTDlOjb8IeCNxF4K/V6qgit2T7jjZ/XZ39uh5hiqKQKUqWZbISx7EdQ6TcoijyMUvTNGmahiOLVULu3OQWTsTL85xbsrv6ARuTEHj9zdWxpXit+e2Lza+fa3793Koqv33RtTByvyRDQV3XSZLEcdyew4wbXmTMGQwGw+Ew3nARqWQOIw0hzCQ9hGPaBO6IsTa8rE76v35odbQRbRxP+uXBbl3XMpIUa4t9rFwURba+2Kn8+o7V303T1HW9/qD4rt/jHhnL6fKoQJ6btdGwDoEeAh/8s1n7uTP1f/fGqi3f+9nqTMaxME3TDIfDwWDQnqjI7EXqzvM8Wlvknk3mNlEUyYRHTm+fa9ftY7emacaNVMxhejoHu3oJvHtj9R5MDHn3xuqzsl8/d2dW4/KxsjzRCsOwLEv5jnI4HBpj7NcyshmGob3zkt5vfZADhsOhHV9kFmQPaJomz/Ph3Yud0vTCYScEugSK11Zvxn55+q6vKf9arZrzwT+7B99re/rvYaqqMsYEQZDneVmW9luXjjBpmtqZvxhifZDNJEnGHdBbvJzFCNMLh509BESY7/1s1ZDOz9oTs55Txu+aXhj5+LdPluWGKkkS+zWL9Gx7o2VXOsLY/XbFHtBbNsL0YmHnWAJrwshj5e6fv31x7FljXtiSMPKeVVWVZVlVlVVF9stXKL1/TnhAb83SXKet3iPZCYGZE5iBMDOviTeEgLcEEMbbaCjMRwII42Mq1OQtAYTxNhoK85EAwviYCjV5SwBhvI2GwnwkgDA+pkJN3hJAGG+joTAfCSCMj6lQk7cEEMbbaCjMRwII42Mq1OQtAYTxNhoK85EAwviYCjV5SwBhvI2GwnwkgDA+pkJN3hJAGG+joTAfCSCMj6lQk7cEEMbbaCjMRwII42Mq1OQtAYTxNhoK85HA7IV5fLfhBwJeEZiheQiD3otPAGEWP2OvPqG1F4MwCAOBTRBAmE3A0v7pSP1bJ4AwCAOBTRBAmE3A2vrnE++gnQDCIAwENkEAYTYBS/unI/VvnQDCIAwENkEAYTYBa+ufT7yDdgIIgzAQ2AQBhNkELO2fjtS/dQII46MwR/eFJ47F7Z/0YCRhn3/+9PWrV86cTMdlf2hP8OrL+blTw/RgdP3qlVdfzttHnjgWn3/+9DPHE7vzmePJ9atXzj9/2u7ZYOXVl/PrV6+0T9/g4IV8CWF8FObVl/NOMG9dLg/tCQ7tCcrli03TnDs1fHy3ObovPHMy7fykB6Omaa5fvXLiWNw0zVuXy3bHPf/86aZp2hadOZk2TVMuX7SHpQejtquyvn9p8Phu89blsmmaDXS1b7KoK51ctrLJ31aemXvpwchqcP3qldFURJhnjiejL/UKc+7UsFy+WC5flHf7cOV92Tx3ajgqjFjReWeEkY+ADpatbCLMzISxH8+H9gQSidxlnTs1lB4vwhzaE5w4FkuPb5pGhoJeYWRcGk331ZfzUWFOHIufOZ7Iz7lTQzlLSmKEGWU49R6EmbEwR/eFoke5fNHeJkmXFWGkEx/dF0pmMgjI5rhbskN7gvRgdGhPYJ0cFca+9PhuI4PY9atXEEYITK3H6IkIMxth9i8Nnjme2DHhrcvl/qVB5zapLYwMKU3THNoTfLjyvgQzKsz+pUF7alQuXxTBRJi3LpcnjsX20YJ1Rk6xjwQYYUb7/dR7EGY2wtgR48OV98+cTKVbbzDC2LumE8diO0sZFUYM/HDl/fPPnxavZKJv7+hGnxDYG8Kj+0JGGEaY2fRv+2E8w5UzJ9MTx+Kj+8LRnzMnU3lkbJuzg48I0HtLtn9pIB+E0vWtk/uXBiLM9atXzp0atp8X718aiGP2foynZI/vNlOPJ6MnMsLM0kDbxUdB28fKj+829tmxzHbSg1GvMHaskPHKvvmhPUHvHMba0jSNHV4QBmFm2cXtR/5MVvYvDc6dGo7+tJ+SpQcjubmS51qilnzTMnpLJie++nKeHoxkZvLhyvuP7zajwpw4FsvB8uStfTnMYXo/v6bbyQgzS/1kov/W5bLzI4bIpF/6vf3OUTZlSjMqjLVL0v1w5X2Z4neEsd/t2AMQpk1gOjd6z0KYGQsjlK9fvTL6I9+1718a2OdXEuq4WzJ5VW7Azj9/+szJ1D5Z7ggj913nnz8tN2/tvsItGbdks+zinb61xU07zZC5uP0mUVZOHIvHvX/vHGbcwb23ZBsczC1Z71gx3U5GmFnqZ4XpDaPzN8TaXVy+7iyXL9rnAe1XR9dHR5jRY+wehOmNY7qdCDNLYeQJ2OhfgrR//8V24nErcgPWflLce6T8Dc57HibnPnM8OXMyHf1+s/edF3LndG70noUwMxZmITuc9ovq7frT7UQYhFl8AtO50XsWwix+d9E+Pmy9/t6uP91OhEGYxScwnRu9ZyHM4neXrX9Ca3+H3q4/3U6EQZjFJzCdG71nIczidxft48PW6+/t+tPtRBiEWXwC07nRexbCLH532fontPZ36O360+1EGIRZfALTudF71uyF6W2GnRBYDAIIsxg5chWOCCCMI9A0sxgEEGYxcuQqHBFAGEegaWYxCCDMYuTIVTgigDCOQNPMYhBAmMXIkatwRABhHIGmmcUggDCLkSNX4YgAwjgCTTOLQQBhFiNHrsIRAYRxBJpmFoMAwixGjlyFIwII4wg0zSwGgf8J8//QpYz1dm+uiwAAAABJRU5ErkJggg==;" vertex="1" parent="1">
          <mxGeometry x="801" y="400" width="124.67" height="220" as="geometry" />
        </mxCell>
        <mxCell id="OR4K_Lvooa0aKepmsGJe-66" value="" style="shape=image;verticalLabelPosition=bottom;labelBackgroundColor=default;verticalAlign=top;aspect=fixed;imageAspect=0;image=data:image/png,iVBORw0KGgoAAAANSUhEUgAAARAAAAHgCAIAAADi+qVbAAAcq0lEQVR4Ae2dQYjc5t2HX5rApqE5KKdcctih5JJDDbrlYhrkS8B8mCJyMU56qKA2ObTQCHIrpiBDi6E52AIfWoKDP0HxF3AgsQ4ldghJ0CVx6SFYsKFxyCVyago5xfq6+/e+yKOZ9ezs7M5vtM+weDUazeg3z0/PvJJmE7kf/bXmBwIQmJGAm3E5FoMABH7013pTmJYbBCAwAwGEmQESi0BgmwDCbJPgNwRmIIAwM0BiEQhsE0CYbRL8hsAMBBBmBkgsAoFtAgizTYLfEJiBAMLMAIlFILBNAGG2SfAbAjMQQJgZILEIBLYJIMw2CX5DYAYCCDMDJBaBwDYBhNkmwW8IzEAAYWaAxCIQ2CaAMNsk+A2BGQggzAyQWAQC2wQQZpsEvyEwAwGEmQESi6wmgVu3bhVF8b8z3Iqi+Mc//jHLu0SYWSixzEoS+OMf/+hmvv3pT3+a5U3uVZiyLK9du3b//v1ZVsYyEDhIAu+8845zLkmSnceYX/3qV865d955Z5ZsexLmxo0bzrkgCO7evTvLylimrus8z8uynIbCFqiqatoCs8wvyzLP86ZpZll4wMt8+umnzrlz587t/B6zLHPOffrppzsvZo/OL8yNGzfW1taeeOKJv//977Os6bAtU5Zl/PAtSZKyLO0zr23bqqrSNDU3/LQtkKap4crzPJp0swWapimKom9XHMfOubo+7P9vk42NDefcq6++uvO298tf/vK/i21sbOy8mD06pzBmy9ra2ocffjjLag7hMkVRhFs3G4TDMIyiqCtMnufOuSzL2ra1DzkbfJxzXpiiKB6WLo6iyDkXRVHbtnVd++kuYYQxGvfu3VtbW3vxxRe7cPrTL7744tra2r179/oP9efMI8yNGzeeeOKJJ5988qOPPuq/InO6BIqicM6NRiObacIEQRCG4fnz5x8pTPelbNokieMYYfpw+nOeffbZ5557rj+/O+e555579tlnu3N2mN61MDdu3PjJT37y9NNPf/zxxzu8Lg8ZARsQnHN5nrdta8KMRqM4jk2Y0WgURdFoNLJl/BA0bYeqqiq/U8cI88jN7IUXXnjqqae+//77aUt+//33Tz311AsvvDBtgbH5uxPm+vXra2trto/xs5/97KdTbq+99trYag7h3aZpbNcoSZIwDG0rtwEnSZK2bW2XLAzDOI5tAb9LZudC+wcnbdvaK9g+G8I8crt6+eWX/0v+66+/nrbk119/7Zx7+eWXpy0wNh9hxoAs7K7Z4g82bBjxA4gXZuIxTBRFeZ6/8sordhTU/dfGoiAIoihCmEe29frrrzvnPv/882lLfv755865119/fdoCY/N3J0zbtuySjRGcdreu66Io2rZtmqYsy2LrVpZllmV2WvmRB/1ZlvkjfhuCbDiymUmSeGHs9bMsS9PUzhNwlsx6efPNN51z77333rSa3nvvPefcm2++OW2Bsfm7FqZt25s3b/74xz/moH8M5cS7WZYFQdD9ujmKIvuGxIQJtm/dYxh/lsy/ZtcuP9OE6b647fhxlswjunr1qnPu7bff9nPGJt5++23n3NWrV8fmT7s7jzA2zqxt3TitPI2sfdPinAvDsKqqpmnqurbTx+aDffeSdm5VVdk+24zCNE2T57kfu/x5AoTxpXz88cfOueeff/5/ptyef/5559zsZ7DmFMY7wxeXvpv+hI0Ao9HIvl4syzJJku7XLP2n7EqY/tNtDsJ4MnVdP/bYY2OD8Njdxx57zH/W+CdOm5hfGHPGOff000/zpzHT+BZFYYfpvqQkSXb4oxWEmUZyvvnffffd448//tJLL017+ksvvfT4449/99130xYYm78nYeyLBf74coxp/25d11VV1XW9gyr2rKZpbMmxF5k2f2wxu2urm/jQYZv5ww8/PPPMM+vr6/835ba+vv7MM8/88MMPM5LZqzAzrobFILAsAr/5zW/88D5x4re//e3s2RBmdlYsuZIE7t+///7770/7C//3339/V/9xCsKs5EZA6GURQJhlkWe9K0kAYVayNkIviwDCLIs8611JAgizkrURelkEEGZZ5FnvShJAmJWsjdDLIoAwyyLPeleSAMKsZG2EXhYBhFkWeda7kgQQZiVrI/SyCCDMssiz3pUkgDArWRuhl0UAYZZFnvWuJAGEWcnaCL0sAgizLPKsdyUJIMxK1kboZRFAmGWRZ70rSQBhVrI2Qi+LwANh/vXll/xAAAKPJMAIs6yPKta7kgQQZiVrI/SyCCDMssiz3pUkgDArWRuhl0UAYZZFnvWuJAGEWcnaCL0sAnsVJund7OqnbdumaeovoGUT3Ys2ZlnmL9DlnPPT3cvT2XT/YinLgrXq67UroXf/h+h2RbRs61YURdM0voulv9ksy8Y2LttI7H+Bn+e5/T/XR6NRnudBEBxM4L0KY5cDsgvKxXFsl4yz6La5Wxl2ISH/htu2tSsJ2xXtuiX5y6bahSKiKOpqdjBQhroWu6RztwW7ZE2SJFaHCRMEgV15c7kc8jz3G49tP5bKLsY2Go2CILCtZZWEMd3tsnN2mVJPOQzDKIrs+lj2Jn1VdqUh+1SwkvxlhgxNFEV2sbswDO2KkP5lmZiDQFVVcRwHQZAkSRAEeZ7bOGNjThiGQRDEcWxdpGk6+wWG5ggz31P8pdujKLLLUNvbsWt6r8YIU1WVXS0oy7KmaewDzK4bbLtk0cM32/TrurbBxy4FbBeet1do23ZsLy6OY7+PNx9onmUXafJjdZ7n9vHctq19KuXbN+vCf3gtEV1RFN3hJU1Tu3xnVVV2GXd/0U9LuxrC1HWd57ldAKjeutnlfJum6R/AmAllWdpl6W0H1Fr0u2RxHI8m3fzQtMQKV3fVdV2XZVk9fCvLsmkaG8/tqil2MOCc8x9eS3zLO2w/9tE8Go3SNLXPgpXZJbMhpX+RGrtSqX1C+Ks62l27PKpdMNUuk51lmd9DqKrKduHsWf5yp93j1CW2uKKrjqJo+1LNm9dz9tM2dNu1zeyAwf4V2R8bO4bJsswfzdqV3O3TOUmSPM9tJ+0ACtrrQb9FtPFxLG4cx/YmgyAY68CWt5MEZp1nYecPuhKySzYGdu67E2vyXdiuThAEvou5V7SQJ4ZhaKcibN/EH8PYp233bKp9BCxkpY98kX0Uxt6tjRL2r2/CDj1tP8EK8ztdYRjGcVxu3+wI9ZFvgwVmITBRGDtFZvvVdtLJdzHLa+7fMmNbQleYsZXakdjYzH26uzBh+kdddqzS/STwY0XTNNZTEARhGHZPYvYPY0T626cCDvJlJ+7r79DFQWbrr2v2LcFOY/RfYT/mLEaY/UjGa0JAkADCCJZCJF0CCKPbDckECSCMYClE0iWAMLrdkEyQwANhHvnf/rMABCDwry+/ZIQR/BQjki4BhNHthmSCBBBGsBQi6RJAGN1uSCZIAGEESyGSLgGE0e2GZIIEEEawFCLpEkAY3W5IJkgAYQRLIZIuAYTR7YZkggQQRrAUIukSQBjdbkgmSABhBEshki4BhNHthmSCBBBGsBQi6RJAGN1uSCZIAGEESyGSLgGE0e2GZIIEEEawFCLpEkAY3W5IJkgAYQRLIZIuAYTR7YZkggQQRrAUIukSQBjdbkgmSABhBEshki4BhNHthmSCBBBGsBQi6RJAGN1uSCZIAGEESyGSLgGE0e2GZIIEEEawFCLpEkAY3W5IJkgAYQRLIZIuAYTR7YZkggQQRrAUIukSQBjdbkgmSABhBEshki4BhNHthmSCBBBGsBQi6RJAGN1uSCZIAGEESyGSLgGE0e2GZIIEEEawFCLpEkAY3W5IJkgAYQRLIZIuAYTR7YZkggQQRrAUIukSQBjdbkgmSABhBEshki4BhNHthmSCBBBGsBQi6RJAGN1uSCZIAGEESyGSLgGE0e2GZIIEEEawFCLpEkAY3W5IJkgAYQRLIZIuAYTR7YZkggQQRrAUIukSQBjdbkgmSABhBEshki4BhNHthmSCBBBGsBQi6RJAGN1uSCZIAGEESyGSLgGE0e2GZIIEEEawFCLpEkAY3W5IJkgAYQRLIZIuAYTR7YZkggQQRrAUIukSQBjdbkgmSABhBEshki4BhNHthmSCBBBGsBQi6RJAGN1uSCZIAGEESyGSLgGE0e2GZIIEEEawFCLpEkAY3W5IJkgAYQRLIZIuAYTR7YZkggQQRrAUIukSQBjdbkgmSABhBEshki4BhNHthmSCBBBGsBQi6RJAGN1uSCZIAGEESyGSLgGE0e2GZIIEEEawFCLpEkAY3W5IJkgAYQRLIZIuAYTR7YZkggQQRrAUIukSQBjdbkgmSABhBEshki4BhNHthmSCBBBGsBQi6RJAGN1uSCZIAGEESyGSLgGE0e2GZIIEEEawFCLpEkAY3W5IJkgAYQRLIZIuAYTR7YZkggQQRrAUIukSQBjdbkgmSABhBEshki4BhNHthmSCBBBGsBQi6RJAGN1uSCZIAGEESyGSLgGE0e2GZIIEEEawFCLpEkAY3W5IJkgAYQRLIZIuAYTR7YZkggQQRrAUIukSQBjdbkgmSABhBEshki4BhNHthmSCBBBGsBQi6RJAGN1uSCZIAGEESyGSLgGE0e2GZIIEEEawFCLpEkAY3W5IJkgAYQRLIZIuAYTR7YZkggQQRrAUIukSQBjdbkgmSABhBEshki4BhNHthmSCBBBGsBQi6RJAGN1uSCZIAGEESyGSLgGE0e2GZIIEEEawFCLpEkAY3W5IJkgAYQRLIZIuAYTR7YZkggQQRrAUIukSQBjdbkgmSABhBEshki4BhNHthmSCBBBGsBQi6RJAGN1uSCZIAGEESyGSLgGE0e2GZIIEEEawFCLpEkAY3W5IJkgAYQRLIZIuAYTR7YZkggQQRrAUIukSQBjdbkgmSABhBEshki4BhNHthmSCBBBGsBQi6RJAGN1uSCZIAGEESyGSLgGE0e2GZIIEEEawFCLpEkAY3W5IJkgAYQRLIZIuAYTR7YZkggQQRrAUIukSQBjdbkgmSABhBEshki4BhNHthmSCBBBGsBQi6RJAGN1uSCZIAGEESyGSLgGE0e2GZIIEEEawFCLpEkAY3W5IJkgAYQRLIZIuAYTR7YZkggQQRrAUIukSQBjdbkgmSABhBEshki4BhNHthmSCBBBGsBQi6RJAGN1uSCZIAGEESyGSLgGE0e2GZIIEEEawFCLpEkAY3W5IJkgAYQRLIZIuAYTR7YZkggQQRrAUIukSQBjdbkgmSABhBEshki4BhNHthmSCBBBGsBQi6RJAGN1uSCZIAGEESyGSLgGE0e2GZIIEEEawFCLpEkAY3W5IJkgAYQRLIZIuAYTR7YZkggQQRrAUIukSQBjdbkgmSABhBEshki4BhNHthmSCBBBGsBQi6RJAGN1uSCZIAGEESyGSLgGE0e2GZIIEEEawFCLpEkAY3W5IJkgAYQRLIZIuAYTR7YZkggQQRrAUIukSQBjdbkgmSABhBEshki4BhNHthmSCBBBGsBQi6RJAGN1uSCZIAGEESyGSLgGE0e2GZIIEEEawFCLpEkAY3W5IJkgAYQRLIZIuAYTR7YZkggQQRrAUIukSQBjdbkgmSABhBEshki4BhNHthmSCBBBGsBQi6RJAGN1uSCZIAGEESyGSLgGE0e2GZIIEEEawFCLpEkAY3W5IJkgAYQRLIZIuAYTR7YZkggQQRrAUIukSQBjdbkgmSABhBEshki4BhNHthmSCBBBGsBQi6RJAGN1uSCZIAGEESyGSLgGE0e2GZIIEEEawFCLpEkAY3W5IJkgAYQRLIZIuAYTR7YZkggQQRrAUIukSQBjdbkgmSABhBEshki4BhNHthmSCBBBGsBQi6RJAGN1uSCZIAGEESyGSLgGE0e2GZIIEEEawFCLpEkAY3W5IJkgAYQRLIZIuAYTR7YZkggQQRrAUIukSQBjdbkgmSABhBEshki4BhNHthmSCBBBGsBQi6RJAGN1uSCZIAGEESyGSLgGE0e2GZIIEEEawFCLpEkAY3W5IJkgAYQRLIZIuAYTR7YZkggQQRrAUIukSQBjdbkgmSABhBEshki4BhNHthmSCBBBGsBQi6RJAGN1uSCZIAGEESyGSLgGE0e2GZIIEEEawFCLpEkAY3W5IJkgAYQRLIZIuAYTR7YZkggQQRrAUIukSQBjdbkgmSABhBEshki4BhNHthmSCBBBGsBQi6RJAGN1uSCZIAGEESyGSLgGE0e2GZIIEEEawFCLpEkAY3W5IJkgAYQRLIZIuAYTR7YZkggQQRrAUIukSQBjdbkgmSABhBEshki6BB8L868sv+YEABB5JgBFG98OMZIIEEEawFCLpEkAY3W5IJkgAYQRLIZIuAYTR7YZkggQQRrAUIukSQBjdbkgmSABhBEshki4BhNHthmSCBBBGsBQi6RJAGN1uSCZIAGEESyGSLgGE0e2GZIIEEEawFCLpEliAMHVdF0VRVdXs77Ku6zzPy7K0pzRNU0+5zf6a3SWr7Vue53Vddx9iGgKbBD75rP3b9farb3ZLY35hyrLMt25Jkjjnoiiyu3me90PUdR2GYZqm9lBZls65JEnsbhiGbsrNFsjzPJh0i+PYFqiqKtm6mbejrVue5865oihsGf49pAS++ub+r3/fhr9ow19sTmxJcv8PFzfnfPLZbpnML0wURRM38iAI+iGqqnLO+e17TJiyLM26OI6LokjT1Az023pVVenDN29p27b24iaUc66qKoTpV3Bo5zyw5W/XN4eU8Bftyd+1bbsEYawAGzqcc0EQ7LBXZh/2o9HInmXCBEEQhmGzdbMF0jS1HTwbf5qmmVZz10ATzPbp7Imj0chenBFmGsBDNP/k7+7//FRbftR+8tn9n5+6f/z0EoSp6zpJEj/IZFkWBIFzLgzDJEnGzGmaZjQa2XCUZVnbtibMaDSKoqhpGv86Y0OWF6zfblEUzjnbx7PRxsSzccxWZ//6Yar/Isw5FAT+WW+OKrZLdvx0+8/NY9oljDBhGEZRlGVZURRxHOd5nmVZHMdhGHaPs8uytEOUPM9twva7uscwZVkWU25t26ZpGvZuXokoikyeaOtmQwq7ZIfChFne5CefbY4t5UftX662f36r/fNbm6r85epBC2NuxFs30yAMQ7sbx7E/mrfN3Q8FTdMkSRLHcfcYZtrwYqNNEATddflVdCdsLXYMY2MOwsyyLR2GZR6IsTW8bB70//zU5mhj2hzkQf/ET30/DERR1C3DBpymaWwkKbdu/rSyP9uW57k/lPcn3OycW9M02yeKH/rdHcq6a7Sn26mCsf3D7mJMD5/Av//Tbv08OPT/6ptNW379+80jmYMUxkDbFhnHcRRFcRynaTpt6/QHOf4oxY5e7HWKorAdKhus7NjG9vdsgSzL/BO7E/60W9u200YqjmGGb8XO7/Crbzb3wcyQr77ZPFf257ceHNUc5GllfzLX9sGSJJl2kG1LhmFYVZV9R2kC+K9l7G53p862fu+DLZBlmR9f7LjFL9C2bVEU2cM3exGE2XlzGv6j5UebO2N/uPjQ15T/rDfN+fd/dvv25/8exk4E2zkxO6U7poGPUte1c240GtkfBPhvXcaESdPUH/nbS3kf7G6SJNMW8OvqTtizEKbL5DBOmzC//v2mIWM/W2fMdsVkfmHsCN7OJvvdpO6OVjdHURQ2/vglkyTxX7PYlu0f8hNjwvj5fsIv0F2Xn0YYj+JQT2wJY6eVx//9y9XdkplfGL+muq6rqqrr2gvgHxqbmLakfYUy8V97hYkP2cyxVXTv2uoemar7FKYhsDOBBQiz8wp4FAJDIoAwQ2qT97LvBBBm3xGzgiERQJghtcl72XcCCLPviFnBkAggzJDa5L3sOwGE2XfErGBIBBBmSG3yXvadAMLsO2JWMCQCCDOkNnkv+04AYfYdMSsYEgGEGVKbvJd9J4Aw+46YFQyJAMIMqU3ey74TQJh9R8wKhkQAYYbUJu9l3wkgzL4jZgVDIoAwQ2qT97LvBBBm3xGzgiERQJghtcl72XcCixfm2LrjBwJSBBaoEcKg9/AJIMzwO5b6hF71MAiDMBDYBQGE2QWsVf90JP/eCSAMwkBgFwQQZhew9v75xCusOgGEQRgI7IIAwuwC1qp/OpJ/7wQQBmEgsAsCCLMLWHv/fOIVVp0AwiAMBHZBAGF2AWvVPx3Jv3cCCKMozOnj4dkzcfcnPRlZ2dcuX7yzcfvSuXRa96eOjj54t7hyIUtPRnc2bn/wbtFd8uyZ+Nrli+ffSPzM828kdzZuX7t80c/ZYeKDd4s7G7e7T99h4UE+hDCKwnzwbjFWzBe3qlNHR6eOjqqb19u2vXIhO7buTh8PL51Lx37Sk1Hbtnc2bp89E7dt+8WtqrvhXrt8sW3brkWXzqVt21Y3r/vF0pNR11WbPnEkOLbuvrhVtW27g67+RYY6MdbLXu7y18oLcy89GXkN7mzc7rdiwpx/I+k/NFGYKxey6ub16uZ1e7V7d7+1u1cuZH1hzIqxV0YY+wgYw7KXuwizMGH8x/OpoyOrxPayrlzIbIs3YU4dHZ09E9sW37atDQUThbFxqd/uB+8WfWHOnonPv5HYz5ULmT3LIjHC9BnOPQdhFizM6eOh6VHdvO53k2yTNWFsIz59PLTObBCwu9N2yU4dHaUno1NHR97JvjD+oWPrzgaxOxu3EcYIzK1H/4kIsxhhThwJzr+R+DHhi1vViSPB2G5SVxgbUtq2PXV0dO/ut1ZMX5gTR4LuoVF187oJZsJ8cas6eyb2pxa8M/YUf0qAEaa/3c89B2EWI4wfMe7d/fbSudQ26x1GGL/XdPZM7I9S+sKYgffufnvt8kXzyg70/R5d/wyB3yE8fTxkhGGEWcz27T+MFzhx6Vx69kx8+njY/7l0LrVTxn51fvAxASbukp04EtgHoW363skTRwIT5s7G7SsXsu754hNHAnPM749xluzYupt7POk/kRFmkQb6TbwP2p9WPrbu/LljO9pJT0YThfFjhY1X/sVPHR1NPIbxtrRt64cXhEGYRW7i/iN/IRMnjgRXLmT9n+5ZsvRkZDtXdl7L1LJvWvq7ZPbED94t0pORHZncu/vtsXXXF+bsmdgWtjNv3bfDMczEz6/5ZjLCLFI/O9D/4lY19mOG2EG/bff+O0e7a4c0fWG8Xdbuvbvf2iH+mDD+ux2/AMJ0CcznxsRnIcyChTHKdzZu93/su/YTRwJ//spKnbZLZo/aDti1yxcvnUv9meUxYWy/69rli7bz1t1W2CVjl2yRm/jYtrXHu/4ww47F/TeJNnH2TDzt9Scew0xbeOIu2Q4Ls0s2cayYbyYjzCL188JMLGPsL8S6m7h93VndvO7PB3Qf7U/3R5j+Mn4OwkysY76ZCLNIYewMWP+PIP3fv/iNeNqE7YB1zxRPXNL+gvORi9lzz7+RXDqX9r/fnPjKg5w5nxsTn4UwCxZmkBvcqr+piZv+fDMRBmGGT2A+NyY+C2GGv7ms+viw9/wTN/35ZiIMwgyfwHxuTHwWwgx/c9n7J/Sqv8LETX++mQiDMMMnMJ8bE5+FMMPfXFZ9fNh7/omb/nwzEQZhhk9gPjcmPgthhr+57P0TetVfYeKmP99MhEGY4ROYz42Jz1q8MBNXw0wIDIMAwgyjR97FARFAmAMCzWqGQQBhhtEj7+KACCDMAYFmNcMggDDD6JF3cUAEEOaAQLOaYRBAmGH0yLs4IAIIc0CgWc0wCCDMMHrkXRwQAYQ5INCsZhgEEGYYPfIuDogAwhwQaFYzDAIIM4weeRcHRABhDgg0qxkGgf8K8/8XYQgNjTlnAwAAAABJRU5ErkJggg==;" vertex="1" parent="1">
          <mxGeometry x="951" y="400" width="124.67" height="220" as="geometry" />
        </mxCell>
        <mxCell id="OR4K_Lvooa0aKepmsGJe-75" style="edgeStyle=orthogonalEdgeStyle;rounded=0;orthogonalLoop=1;jettySize=auto;html=1;exitX=1;exitY=1;exitDx=0;exitDy=0;entryX=0.5;entryY=1;entryDx=0;entryDy=0;" edge="1" parent="1" source="OR4K_Lvooa0aKepmsGJe-67" target="OR4K_Lvooa0aKepmsGJe-68">
          <mxGeometry relative="1" as="geometry">
            <Array as="points">
              <mxPoint x="580" y="390" />
              <mxPoint x="1012" y="390" />
            </Array>
          </mxGeometry>
        </mxCell>
        <mxCell id="OR4K_Lvooa0aKepmsGJe-91" style="edgeStyle=orthogonalEdgeStyle;rounded=0;orthogonalLoop=1;jettySize=auto;html=1;exitX=0.75;exitY=0;exitDx=0;exitDy=0;entryX=0.75;entryY=0;entryDx=0;entryDy=0;" edge="1" parent="1" source="OR4K_Lvooa0aKepmsGJe-67" target="OR4K_Lvooa0aKepmsGJe-68">
          <mxGeometry relative="1" as="geometry">
            <Array as="points">
              <mxPoint x="562" y="250" />
              <mxPoint x="1032" y="250" />
            </Array>
          </mxGeometry>
        </mxCell>
        <mxCell id="OR4K_Lvooa0aKepmsGJe-67" value="Main" style="rounded=0;whiteSpace=wrap;html=1;fontFamily=Noto sans;fontSource=https%3A%2F%2Ffonts.googleapis.com%2Fcss%3Ffamily%3DNoto%2Bsans;" vertex="1" parent="1">
          <mxGeometry x="505.33000000000004" y="345" width="76" height="30" as="geometry" />
        </mxCell>
        <mxCell id="OR4K_Lvooa0aKepmsGJe-68" value="Cart" style="rounded=0;whiteSpace=wrap;html=1;fontFamily=Noto sans;fontSource=https%3A%2F%2Ffonts.googleapis.com%2Fcss%3Ffamily%3DNoto%2Bsans;" vertex="1" parent="1">
          <mxGeometry x="975.3399999999999" y="345" width="76" height="30" as="geometry" />
        </mxCell>
        <mxCell id="OR4K_Lvooa0aKepmsGJe-92" style="edgeStyle=orthogonalEdgeStyle;rounded=0;orthogonalLoop=1;jettySize=auto;html=1;exitX=0.5;exitY=0;exitDx=0;exitDy=0;entryX=0.25;entryY=0;entryDx=0;entryDy=0;" edge="1" parent="1" source="OR4K_Lvooa0aKepmsGJe-69" target="OR4K_Lvooa0aKepmsGJe-68">
          <mxGeometry relative="1" as="geometry">
            <Array as="points">
              <mxPoint x="703" y="280" />
              <mxPoint x="994" y="280" />
            </Array>
          </mxGeometry>
        </mxCell>
        <mxCell id="OR4K_Lvooa0aKepmsGJe-69" value="Order" style="rounded=0;whiteSpace=wrap;html=1;fontFamily=Noto sans;fontSource=https%3A%2F%2Ffonts.googleapis.com%2Fcss%3Ffamily%3DNoto%2Bsans;" vertex="1" parent="1">
          <mxGeometry x="665.3299999999999" y="345" width="76" height="30" as="geometry" />
        </mxCell>
        <mxCell id="OR4K_Lvooa0aKepmsGJe-70" value="Payment" style="rounded=0;whiteSpace=wrap;html=1;fontFamily=Noto sans;fontSource=https%3A%2F%2Ffonts.googleapis.com%2Fcss%3Ffamily%3DNoto%2Bsans;" vertex="1" parent="1">
          <mxGeometry x="825.3399999999999" y="345" width="76" height="30" as="geometry" />
        </mxCell>
        <mxCell id="OR4K_Lvooa0aKepmsGJe-80" value="" style="endArrow=classic;startArrow=classic;html=1;rounded=0;exitX=1;exitY=0;exitDx=0;exitDy=0;entryX=0;entryY=0;entryDx=0;entryDy=0;" edge="1" parent="1" source="OR4K_Lvooa0aKepmsGJe-67" target="OR4K_Lvooa0aKepmsGJe-69">
          <mxGeometry width="50" height="50" relative="1" as="geometry">
            <mxPoint x="600" y="440" as="sourcePoint" />
            <mxPoint x="650" y="390" as="targetPoint" />
          </mxGeometry>
        </mxCell>
        <mxCell id="OR4K_Lvooa0aKepmsGJe-81" value="" style="endArrow=classic;startArrow=classic;html=1;rounded=0;exitX=1;exitY=0;exitDx=0;exitDy=0;entryX=0;entryY=0;entryDx=0;entryDy=0;" edge="1" parent="1" source="OR4K_Lvooa0aKepmsGJe-69" target="OR4K_Lvooa0aKepmsGJe-70">
          <mxGeometry width="50" height="50" relative="1" as="geometry">
            <mxPoint x="600" y="440" as="sourcePoint" />
            <mxPoint x="650" y="390" as="targetPoint" />
          </mxGeometry>
        </mxCell>
        <mxCell id="OR4K_Lvooa0aKepmsGJe-87" value="&lt;span style=&quot;text-wrap-mode: nowrap;&quot;&gt;보드를 부팅하면 intro 스크린이 실행된다.&lt;/span&gt;&lt;div style=&quot;text-wrap-mode: nowrap;&quot;&gt;약 3초 후 Main 스크린으로 전환된다.&lt;/div&gt;" style="rounded=0;whiteSpace=wrap;html=1;fontFamily=Noto sans;fontSource=https%3A%2F%2Ffonts.googleapis.com%2Fcss%3Ffamily%3DNoto%2Bsans;" vertex="1" parent="1">
          <mxGeometry x="50" y="580" width="230" height="40" as="geometry" />
        </mxCell>
        <mxCell id="OR4K_Lvooa0aKepmsGJe-94" value="" style="endArrow=classic;html=1;rounded=0;exitX=0;exitY=0.5;exitDx=0;exitDy=0;entryX=0.5;entryY=0;entryDx=0;entryDy=0;" edge="1" parent="1" source="OR4K_Lvooa0aKepmsGJe-62" target="OR4K_Lvooa0aKepmsGJe-87">
          <mxGeometry width="50" height="50" relative="1" as="geometry">
            <mxPoint x="430" y="560" as="sourcePoint" />
            <mxPoint x="480" y="510" as="targetPoint" />
          </mxGeometry>
        </mxCell>
        <mxCell id="OR4K_Lvooa0aKepmsGJe-95" value="&lt;span style=&quot;color:rgba(55, 53, 47, 1)&quot; data-token-index=&quot;0&quot; class=&quot;notion-enable-hover&quot;&gt;Raspberry Pi5(Server)&lt;/span&gt;" style="rounded=0;whiteSpace=wrap;html=1;fontFamily=Noto sans;fontSource=https%3A%2F%2Ffonts.googleapis.com%2Fcss%3Ffamily%3DNoto%2Bsans;" vertex="1" parent="1">
          <mxGeometry x="120" y="770" width="160" height="30" as="geometry" />
        </mxCell>
      </root>
    </mxGraphModel>
  </diagram>
</mxfile>
